<svg xmlns="http://www.w3.org/2000/svg" viewBox="0 0 260.85 267.44"><title>EMAIL</title><g id="ART"><path d="M205.79,233.06c-2.43,2.5-4.55,5.76-7.55,7.53-6.19,3.65-12.93,6.37-19.3,9.74-7.77,4.11-16.1,5.14-24.59,4.29-9.31-.94-18.5-1.46-27.62-5.19C111,243,100.45,231.73,92.58,217.62c-6.41-11.48-11.5-23.45-11.84-37.25-.41-17,.89-33.42,12.2-47,8.2-9.84,17.77-18.38,29.64-23.95,4.69-2.2,9-5.4,13.75-7.26a91.36,91.36,0,0,1,16.57-4.49,36,36,0,0,1,11.15,0c2.9.39,5.65,1.88,8.94,3a2.9,2.9,0,0,0,.44-1.83c-1-5.43-2.18-10.81-3.12-16.24a2.91,2.91,0,0,1,1.2-2.49c5.45-2.08,11.1-4.2,16.95-2.89,4.64,1,8.45,3.75,10.07,8.87,2.49,7.88,5.32,15.66,8,23.47,3.65,10.56,7.12,21.19,11,31.64,3.06,8.17,3.32,16.77,4.56,25.2,1.77,12,2.83,24.14,4.38,36.19.67,5.21,1.18,10.6,3,15.44,1.07,2.84,4.32,5.26,7.16,6.81.94.51,4-2,5.54-3.58,11.63-12.1,18.16-26.93,21.74-43a112.48,112.48,0,0,0,1.92-33.75,108.42,108.42,0,0,0-7.72-32.79A54.7,54.7,0,0,0,246.64,95,208.4,208.4,0,0,0,222.72,74c-4.6-3.45-10.5-5.36-16-7.31-4.9-1.71-10.16-2.36-15.18-3.74-6.79-1.86-13.64-1.27-20.46-.69-6.51.56-13.32.61-19.37,2.69A251.64,251.64,0,0,0,116.5,79.55c-8.05,4.22-16.16,9-22.21,16.4-6.5,8-13.59,15.42-20.23,23.27-1.44,1.71-1.89,4.21-3.1,6.17-7.19,11.67-8.75,24.68-9.57,38-.46,7.52-2.19,15-2.51,22.49-.34,7.83.31,15.37,3.47,23.12,6.94,17.05,19.51,28.88,33.43,39.66,3.57,2.76,8.23,4.31,12.6,5.78,5.9,2,12.23,2.83,18,5.13,6.67,2.66,13.42,2.35,20.29,2.57,9.27.31,18.52,1.27,27.79,1.65,4.33.18,8.74.86,12.78-2.16,3-2.21,8.58,1.63,9.34,5.94q1.29,7.39,2.68,14.75c.45,2.38-2.59,7-5.25,6.73-11.72-1.17-22.14,4.62-33.44,5.71-16.19,1.56-32,3.08-48.25-1.75-21.29-6.35-39.64-16.93-54.69-33-8-8.56-12.48-19.25-15.6-30.48-2.66-9.58-5.78-19.06-7.9-28.75-2-8.93-3.44-17.85-2.93-27.31A197.32,197.32,0,0,1,39,127.52c2.53-8.52,7.81-16.4,12.79-24,6.17-9.38,13.36-18.08,20-27.14S87.31,61.2,97.52,56.36C107,51.87,115.79,46,124.85,40.71c9.84-5.77,20.58-8.82,31.78-10.18,7.8-.94,15.73-2.06,23.51-1.61,10.86.63,21.5,2.81,30.94,9.15,4.26,2.86,9.42,4.32,14,6.69,12.88,6.6,25.71,13.45,35.35,24.57,8.47,9.77,15.8,20.44,20,32.81,4.51,13.3,8.89,26.68,9.84,40.88.41,6.23,1.72,12.44,1.6,18.64-.22,11.45-1,23-4.74,33.91-3.33,9.66-6.58,19.47-11.16,28.56-3.36,6.68-8.73,12.37-13.37,18.37a40.38,40.38,0,0,1-6.38,6.81c-8.36,6.75-18.25,8.74-28.05,5.2-7.76-2.8-15-7.53-18.6-16C208.8,236.56,207.15,234.95,205.79,233.06ZM181.54,90.37c1.35,5.9,3,11.81,3.9,17.83a8.11,8.11,0,0,1-2.15,6.39c-3.27,2.77-11.33-.06-13.62-3.73-1.16-1.86-3.29-3.95-5.26-4.28-3.54-.6-7.3,0-11,.19-10.66.65-18.76,7.51-27.74,12-9.24,4.63-17,11.48-23.93,19.32a48.61,48.61,0,0,0-12.49,31.79c-.18,11.21.77,22.38,6,33.19s9.7,21.36,19.54,28.74a63.74,63.74,0,0,0,27.42,12.24c10.94,1.9,22,2,32.41-3.18,2.07-1,4.19-2,6.34-2.81,11.18-4.45,19-11.62,20.15-24.39.23-2.45,1.53-4.4,4.66-3.93,2.94.44,6.52.64,6.55,4.39.07,7,2.57,13.14,5.45,19.13,6.39,13.3,22.52,17.36,33.89,6.65,15.88-15,24.08-34.13,28.62-54.81,2.15-9.79,2-20.14,2.26-30.25a88.14,88.14,0,0,0-1.46-20.58c-3.6-16.64-8.45-32.87-17.74-47.53a77.6,77.6,0,0,0-28.86-26.65c-7.9-4.35-16.07-8.22-24-12.59-8.93-4.95-18.49-8.36-28.52-8.86a151.94,151.94,0,0,0-28.39,1.74c-7.68,1.07-15.17,3.18-22,7.61a281.54,281.54,0,0,1-26.84,15.37c-11.47,5.77-21.62,12.8-29,23.59-4.07,6-9.14,11.22-13.3,17.12a166.24,166.24,0,0,0-9.91,16.22C46.82,131,44,142.62,42.35,154.56c-1.13,8.2-2.92,16.45-2.71,24.64a130.47,130.47,0,0,0,3.89,27,199.91,199.91,0,0,0,9.34,29.09A77.2,77.2,0,0,0,64.34,255.1c7.93,9.58,18.5,16,29.85,21.16a128.88,128.88,0,0,0,29.75,9.18c7.18,1.36,13.93.06,20.89-.84,7.89-1,15.86-1.38,23.74-2.49,5.75-.81,11.4-2.34,17.08-3.63a8.31,8.31,0,0,0,2.15-1.27l-1.41-3.84c-4.81,0-9.45.15-14.08,0-16.13-.62-32.36.41-48.1-5-3.8-1.31-7.69-3.1-11.72-3.65-9.45-1.29-18-5.55-25.18-10.85a103.9,103.9,0,0,1-22.71-22.95c-5.86-8.19-11.69-16.72-13.79-27.45a81.86,81.86,0,0,1-1.16-26.61c1-8,2.65-16.07,2.9-24.14.42-13.79,5.56-25.83,12.64-37.14,2.94-4.7,7.46-8.38,10.86-12.84,5.71-7.48,10.89-15.41,19.06-20.57,9.41-5.94,18.7-12.14,28.43-17.52,5-2.76,10.84-4,16.26-6,1.75-.65,3.31-2,5.1-2.35,7.59-1.57,15.18-3.46,22.87-4.17,8.58-.79,17.3-1.68,25.82,1.17A79.49,79.49,0,0,0,204,56c9.83,1.85,19.14,4.66,26.43,12.13a92.91,92.91,0,0,0,8.07,6.73c10.68,8.71,20.53,18.13,26.2,31,1.61,3.66,2.4,7.7,4.13,11.29,5.25,10.92,5.55,22.75,6.26,34.39a118.74,118.74,0,0,1-6.54,46.54c-4.65,13.46-12.88,24.15-22,34.4-2.4,2.69-6.12,5.25-9.75,3.26a70.14,70.14,0,0,1-13.68-10c-1.91-1.76-2.87-5-3.36-7.74-1.24-6.82-2-13.73-2.9-20.62-1.45-10.91-3.45-21.78-4.14-32.73-.78-12.37-4.55-23.89-8.29-35.46-2.25-6.95-6-13.47-7.73-20.51-1.5-6.07-4.26-11.19-7.23-16.51C187.24,88.16,185.09,88.37,181.54,90.37Z" transform="translate(-31.07 -28.82)"/><path d="M117.75,219.07c-.2-1-.09-2.07-.55-2.57-6.53-7.17-8.86-16.08-9.54-25.27a54.12,54.12,0,0,1,1.79-16.28,177,177,0,0,1,7-22.66A42.08,42.08,0,0,1,124.2,139c6.36-6.87,12.9-13.89,21.91-17.47,11.05-4.39,20.89-2.08,27.5,8.11a113.82,113.82,0,0,1,17,44.18c2,12,1.88,23.69-1.64,35.36-1.73,5.74-2.52,11.87-5,17.28a16.69,16.69,0,0,1-12.17,9.84c-4,.79-8,2.2-12.09,2.33-8.34.26-17.17-.09-24.1-4.67-4.44-2.94-10.61-4.78-12.72-11.11C122.36,221.08,119.35,220.16,117.75,219.07Zm64.07-41a2.55,2.55,0,0,0,0-1.41c-2.57-8.76-5-17.58-7.87-26.24a40.51,40.51,0,0,0-13.06-19.34c-1.6-1.27-2.27-4.5-5.56-2.76-2.13,1.14-4.72,1.52-6.68,2.86a117.37,117.37,0,0,0-11.33,8.87c-2.7,2.39-5.91,4.86-7.26,8-5.7,13.16-11.74,26.41-11.82,41.1,0,5.69.64,12.08,3.25,16.95,5,9.35,11.85,17.63,22.86,20.78a43.94,43.94,0,0,0,22.3.91c6.19-1.46,8.46-6.43,10.2-12.71C180.11,203.21,183.63,191.58,181.82,178.08Z" transform="translate(-31.07 -28.82)"/></g></svg>