<svg xmlns="http://www.w3.org/2000/svg" viewBox="0 0 265.58 258.82"><title>GITHUD</title><g id="ART"><path d="M87.57,220.3c-3.5,5.56-4.38,5.75-8.48,1.49l3.68-4.85c-4.35-4.36-11.25-8.42-15.65-5.94a30.78,30.78,0,0,1,2.81,5.4c.16.51-1.91,2.48-2.37,2.3a39.51,39.51,0,0,1-5.83-3.45l-.87,3.35c7,2.36,14.24,2.81,18.53,9.71,3.54,5.7,7.11,11.51,11.59,16.43,3,3.28,7.68,5,11.48,7.56a19,19,0,0,0,12.3,3.52,34.37,34.37,0,0,1,8.85.73c3.23.66,4.3,3.28,4.28,6.33,0,4.77-.21,9.54-.13,14.31,0,1.07.83,2.13,1.3,3.19a8.38,8.38,0,0,1,1,2.13c.31,2.62.45,5.26.7,8.54-3,2-6.77.18-10.35-.46-8.51-1.52-15.95-6-23.86-9.15-13.29-5.35-23.49-14.81-34.18-23.6-4-3.28-6.85-8.09-9.69-12.55A224.08,224.08,0,0,1,41.4,225.69c-4.41-8.77-6.55-18.35-8.68-27.89-1.2-5.4-2.89-10.72-3.74-16.17-2.07-13.21-4.45-26.52-1.07-39.82,1.18-4.65,3.93-8.88,5.53-13.46,4-11.44,10.35-21.52,17.13-31.45C54.4,91.27,57.32,85,61,79.3A74.68,74.68,0,0,1,81.44,58.17c11.78-8.18,25.09-13,38.75-17.07,4.19-1.24,8.3-2.77,12.42-4.24,8.66-3.1,17.51-4,26.72-3.64s18.33,1.93,27.4,3.64c9.3,1.75,18.45,4.22,26.73,8.76s17.15,7.72,23.68,14.71c8.91,9.55,17.46,19.44,26.44,28.93,4.84,5.12,9.59,10.29,12.57,16.66,3.85,8.23,7.38,16.62,10.61,25.12a83,83,0,0,1,5,32.48c-.34,10.41-.89,20.82-1.39,31.23-.14,2.9-.82,5.81-.61,8.67.38,5.21-2.07,9.48-4,14-3.69,8.76-7.07,17.78-13.12,25.2-4,5-9.08,9.14-13.7,13.64-3.32,3.24-6.66,6.46-10.07,9.61a30.73,30.73,0,0,1-4.74,3.74c-4.37,2.66-8.89,5.08-13.26,7.74-4.15,2.53-8,5.71-12.31,7.75-5.36,2.52-10.44,6.2-16.81,6-4-.15-4.59-1.74-4.77-5.69-.32-7.13-.85-14.4-2.64-21.26-1-3.81-.46-7.41-.92-11.07-.95-7.52-.73-15.19-5-22a37.49,37.49,0,0,1-3.71-8.26,4.38,4.38,0,0,1,.79-3.83c1.11-1,3.28-2.08,4.43-1.65,7.23,2.73,12.62-.62,18.31-4.38,7.59-5,13.11-11.92,18.44-19a51.19,51.19,0,0,0,10.07-23c.54-3.4,2.11-6.79,1.91-10.11A80.72,80.72,0,0,0,236,144.94c-1.76-6.64-4.18-13.11-6.33-19.64a5.13,5.13,0,0,0-.82-1.89c-4.33-4.68-3.1-10.21-2.92-15.77.1-3-.7-6.8-2.61-8.76a8.09,8.09,0,0,0-10.4-1.38,59.17,59.17,0,0,1-9.45,4.93c-5.82,2.22-11.78,1.06-17.58-.32s-11.24-2.74-17.18-2.48c-6.39.27-12.81,0-19.22,0a15.48,15.48,0,0,0-4.11.6c-5.34,1.53-10.62,3.23-16,4.73-4.61,1.29-8-1.84-11.53-3.77-4.73-2.57-8.87-6.34-13.75-8.46-7.52-3.26-13.66,1.57-13.64,9.64,0,2.93,1,5.76-.25,9-1,2.58.09,6,.39,9,.23,2.29.93,4.56.93,6.84a10.62,10.62,0,0,1-1.19,5.44c-7.15,11.39-10.56,23-5.75,36.53a195.31,195.31,0,0,0,12.68,29.16c2.94,5.33,7.06,9.78,13.35,11.49,6,1.63,11.9,3.46,17.9,5,4.46,1.13,5.67,4.21,3,8-2.78,4-4.25,8.3-2.18,13.17,1.11,2.62-1.13,7.37-4.35,6.88-6.67-1-13.53-1.67-19-6.07-4.15-3.3-8-7-11.92-10.56C91.93,224.4,89.88,222.44,87.57,220.3ZM133.63,44.6c1.67,0,3.5.49,5,0,4.2-1.41,4.15-1.57,5.47,2.49.19.59.32,1.21.5,1.9,3.19-2.22,6.13-4.2,9-6.29,1.82-1.33,3.41-2.23,4.68.61.92,2,4.36,3.18,6.59,2.44a29.23,29.23,0,0,1,6.48-1.66c1-.09,2.34.93,3.18,1.78s1,2,1.53,3.15c1.53-1,2.81-1.75,4.08-2.55,4.5-2.86,5.77-2.48,7.64,2.48,4.16-2.62,4,1.13,4.63,3.41,2.4-.93,4.48-2.12,6.69-2.44,1.37-.2,3.88.61,4.22,1.55,1,2.76,2.46,3,5,2.54,2.65-.47,5-.37,6.85,2.64A7.37,7.37,0,0,0,221.55,60c1.45-.07,3.64,2.06,4.36,3.69.88,2,.58,4.51.78,6.74C231,67.91,239,72,239.41,77.18a5.12,5.12,0,0,0,2.42,4.14,42.1,42.1,0,0,1,6.77,6.94c1.07,1.35,1.39,3.29,2.07,5,3.48-2,6.24-1.89,7.23.69.91,2.38.7,5.19.86,6.63,2.25,1.6,4.41,2.38,5.26,3.89a108.54,108.54,0,0,1,4.76,10.76l4.77-2.09c-2.88-4.39-5.58-9-8.78-13.25-3.5-4.65-7.46-9-11.24-13.4-4-4.71-7.9-9.52-12.07-14.08C235.13,65.47,227,61,219.19,55.95c-13-8.4-27.29-12.51-42.2-14.79a128.38,128.38,0,0,0-26.41-1.51c-5.71.32-11.27,3.26-16.89,5-3.75,1-7.54,1.94-11.2,3.24-.71.25-1.38,2.85-1.21,3,1.36.83,3.69,2.26,4.31,1.75A94,94,0,0,0,133.63,44.6Zm101.48,64.23-1.28-.06c.58,4.48.59,9.12,1.86,13.39,2.07,6.91,5.42,13.44,7.39,20.37,1.75,6.16,3.21,12.65,3.25,19,0,8.09-2.2,15.94-5.57,23.5-4.29,9.63-9.35,18.54-17.47,25.5-1.9,1.63-3.33,3.81-5.45,6.3,3.49-1.89,6.28-3.38,9-4.93.33-.19.52-.69.7-1.08,1.63-3.47,2.47-7.56,7.1-8.58.3-.07.43-.78.7-1.14,1.76-2.32,3.59-4.58,5.27-7a12.49,12.49,0,0,0,1.22-2.91c.53-1.43.92-2.93,1.57-4.3.37-.78,1.38-1.27,1.69-2.06,1-2.54,1.83-5.16,3-8.49-.87-1.39-2.8-4,.08-6.34,1.58-1.3,1.13-2.47,1-3.92-.17-1.78-.18-3.58-.26-5.37-1.62-3.14-1.55-3.11-.22-6.94.71-2,2.37-4.13-.22-6.28-.45-.38.07-2.52.69-3.5,2.29-3.64,6.31-6.4,5.76-12.08a23.88,23.88,0,0,0-1.93,2.2c-1.55,2.35-3.27,4.52-6.49,3.47-2.9-.94-4.47-5-3.82-8.37a4.7,4.7,0,0,0-.73-3.35c-1.29-1.7-3.1-3-.67-5.22.43-.4-.08-1.9-.25-2.87a41.13,41.13,0,0,0-.95-4.39,4.7,4.7,0,0,0-1.23-2.28A30.42,30.42,0,0,0,235.11,108.84Zm-113.76-15A10.42,10.42,0,0,0,130.68,96c8.45-1.72,16.67-4.54,25.62-3.5,5.24.61,10.69-.73,16-.31,6.46.5,12.84,2,19.26,2.94,5.88.88,10.73-1.71,15.54-4.65A10,10,0,0,0,202.54,89c-4.45.1-8.9.49-13.35.78a2,2,0,0,0-1,.3c-4.87,3.47-9.87-2.06-14.75.2,0,0-.16-.15-.24-.24-1.76-1.83-3.26-1.25-5.14.09-3.15,2.24-6.24,1.46-7.87-.9-2.82.68-5.46,2.09-7.68,1.61s-3.79-2.9-5.66-4.46c-5,6.65-7.36,6.93-20.09,1.53ZM37,186.45c1.76-2.25,3.3-3.83,4.3-5.69a3.45,3.45,0,0,0-.48-3.25c-4.21-3.62-4.42-4.22-2-8.42-.68-1.46-2.05-3-1.69-3.88,1.64-3.78-1.8-4.33-2.85-6.35l-.92.34ZM284.38,156.9c.95-8.25-1.23-21.14-4-24.41-1.22,2,.66,6.18-3.8,5.54-.41,3-.16,5.17,3.71,5,.7,0,2.53,3.38,2.08,4.08C279.88,151,282.69,153.39,284.38,156.9ZM77.09,134.81l1.07.52c4.35-5.44,5.54-28.86,1.51-31.37-.18.86-.08,2-.59,2.46-1.81,1.55-1,2.66-.39,4.62a34.62,34.62,0,0,1,1.6,12.39C80,127.28,78.22,131,77.09,134.81ZM107.8,280.17l9.14,4.7c3.69-6.55.11-13.2,1.42-19.7l-1.92-.44-1.65-.37C119.73,273.49,117.32,277.08,107.8,280.17Zm97.26,1.38c5.35.62,15.43-4.85,20.47-11l-3.36-.38.4.58L216.19,275c-.53-.47-.64-.26-.66,0-.28,3.28-3.17,4.24-5.37,4.43s-4.38-1.46-4-4.64c.1-.77-.81-1.67-1.26-2.51l-.86.26ZM285,158l-1.35-.23c-1.26,3.24-2.56,6.46-3.7,9.75-.13.38.55,1.2,1,1.62,1.3,1.13,2.69,2.14,4,3.18ZM34.29,147l1.55.73c1.5-2.73,3-5.47,4.51-8.18,2-3.62,2.06-3.61,0-9.16Zm84.81,88.35c.38-4.58.72-8.13.93-11.67a2.3,2.3,0,0,0-.81-1.67,1.77,1.77,0,0,0-1.52.07c-.18.58-.29,1.52.05,1.88,1.7,1.85.61,3.15-.82,4.18a56.63,56.63,0,0,1-5.36,3Zm-72.24-14,5.52,10.18,2.7-1.57c-.81-1.57-2.24-3.22-2.47-5C51.93,219.83,52.12,219.8,46.85,221.42ZM275.66,182l-1.44-.82L263.72,200.1l1.22.72A136.08,136.08,0,0,0,275.66,182Zm.21-63.25-1.52-.11-1.54,9.64,6.12-2.43Zm8.37,72.47-5.7,6.68,4.82,5.3ZM109.82,85.78l.23,1.06c1.27.93,2.51,1.89,3.8,2.76,1.15.77,2.36,1.44,4.16,2.53-.92-3-1-5.75-2.39-6.94C114.59,84.32,111.81,85.51,109.82,85.78Zm2.41-34.43L99.64,56C105.74,59.08,108.81,54.75,112.22,51.35ZM83.59,89.42l-1.4-.48c-.4,1.06-.74,2.14-1.21,3.17-.6,1.32-1.3,2.6-2,3.92l2.67,4.25ZM198.23,232.1l1.23-.07,1.9-5.86h-5.54Zm-121.45-62-3.54-11.4C71.61,163.56,72.93,168.14,76.78,170.13Zm-9.45,32,9.8.88-8.85-4.82Zm209.84,20.24,2.72-6.38-.7-.81c-.95.5-2.43.78-2.73,1.53C275.78,218.45,273.88,220.56,277.17,222.36Zm-67.2,5.1,2.24-6-1-.71-4.82,3.46ZM85.43,267.08l-.43.68,7.53,5.12.52-.66-2.77-4.54ZM41.27,201.41l1.11.15c.55-1.21,1.87-2.84,1.49-3.54-.62-1.15-2.35-1.7-4.43-3Zm218,44.64.5.48a45.59,45.59,0,0,0,4.41-4.16c.41-.49-.08-1.73-.16-2.63-.76.29-1.88.37-2.2.91A55.65,55.65,0,0,0,259.27,246Zm.54-65.68-2,5,.66.54,5.49-4.8ZM57.71,98.92,53,107C54.66,104.67,59.46,104.27,57.71,98.92ZM81.85,188,83,187.3c-1-2.06-.84-4.84-3.54-5.76l-1.1.69Zm182.89,30.66-4.23,6.05C263.43,225,265.53,222.05,264.75,218.68Z" transform="translate(-26.21 -33.14)"/><path d="M109.5,245.59c-2,1.71-3.21,3.62-4.28,3.54a4.07,4.07,0,0,1-4-4.27c0-2.46,1.94-2.92,3.6-2.48C106.26,242.76,107.45,244.12,109.5,245.59Z" transform="translate(-26.21 -33.14)"/><path d="M94.08,229.62c-2.14,1.57-3.73,3.41-4.45,3.11-1.55-.63-2.65-2.36-3.94-3.64,1.17-1,2.4-2.86,3.51-2.8C90.6,226.38,91.9,228,94.08,229.62Z" transform="translate(-26.21 -33.14)"/><path d="M96.79,240.94c-1.39-1.77-3.05-3-3.13-4.27-.06-1,1.83-2.16,2.86-3.24,1.07,1.34,2.47,2.56,3.06,4.08C99.79,238.07,98.12,239.37,96.79,240.94Z" transform="translate(-26.21 -33.14)"/><path d="M76.11,219.15c-3.14-.24-4.91-1.13-4.39-3.41.23-1,2.49-2.5,3.12-2.21A6.53,6.53,0,0,1,77.68,217C77.89,217.55,76.46,218.71,76.11,219.15Z" transform="translate(-26.21 -33.14)"/></g></svg>