<svg id="ART" xmlns="http://www.w3.org/2000/svg" viewBox="0 0 989.09 508.56"><defs><style>.cls-1{fill:#231f20;}</style></defs><title>Diagonal Lines Bkgd Rectangle 3</title><polygon class="cls-1" points="501.11 0 0 470.81 0 474.25 504.77 0 501.11 0"/><polygon class="cls-1" points="485.12 0 0 455.79 0 459.23 488.78 0 485.12 0"/><polygon class="cls-1" points="526.21 0 0 494.39 0 497.83 529.87 0 526.21 0"/><polygon class="cls-1" points="473.69 0 0 445.05 0 448.49 477.35 0 473.69 0"/><polygon class="cls-1" points="455.04 0 0 427.52 0 430.96 458.69 0 455.04 0"/><polygon class="cls-1" points="384.94 0 0 361.67 0 365.11 388.6 0 384.94 0"/><polygon class="cls-1" points="404.65 0 0 380.19 0 383.63 408.31 0 404.65 0"/><polygon class="cls-1" points="432.13 0 0 406 0 409.44 435.78 0 432.13 0"/><polygon class="cls-1" points="422.08 0 0 396.56 0 400 425.74 0 422.08 0"/><polygon class="cls-1" points="543.03 0 1.74 508.56 5.4 508.56 546.68 0 543.03 0"/><polygon class="cls-1" points="633.11 0 91.82 508.56 95.48 508.56 636.76 0 633.11 0"/><polygon class="cls-1" points="725.21 0 183.93 508.56 187.59 508.56 728.87 0 725.21 0"/><polygon class="cls-1" points="704.47 0 163.18 508.56 166.84 508.56 708.13 0 704.47 0"/><polygon class="cls-1" points="683.49 0 142.2 508.56 145.86 508.56 687.15 0 683.49 0"/><polygon class="cls-1" points="736.08 0 194.79 508.56 198.45 508.56 739.74 0 736.08 0"/><polygon class="cls-1" points="660.58 0 119.29 508.56 122.95 508.56 664.24 0 660.58 0"/><polygon class="cls-1" points="613.4 0 72.11 508.56 75.77 508.56 617.05 0 613.4 0"/><polygon class="cls-1" points="374.08 0 0 351.46 0 354.9 377.73 0 374.08 0"/><polygon class="cls-1" points="584.42 0 43.13 508.56 46.79 508.56 588.08 0 584.42 0"/><polygon class="cls-1" points="650.54 0 109.25 508.56 112.91 508.56 654.19 0 650.54 0"/><polygon class="cls-1" points="103.9 0 0 97.61 0 101.05 107.56 0 103.9 0"/><polygon class="cls-1" points="80.99 0 0 76.09 0 79.53 84.65 0 80.99 0"/><polygon class="cls-1" points="755.79 0 214.5 508.56 218.16 508.56 759.45 0 755.79 0"/><polygon class="cls-1" points="133.98 0 0 125.88 0 129.32 137.64 0 133.98 0"/><polygon class="cls-1" points="122.55 0 0 115.14 0 118.58 126.21 0 122.55 0"/><polygon class="cls-1" points="70.94 0 0 66.66 0 70.09 74.6 0 70.94 0"/><polygon class="cls-1" points="53.52 0 0 50.28 0 53.72 57.17 0 53.52 0"/><polygon class="cls-1" points="2.19 0 0 2.06 0 5.5 5.85 0 2.19 0"/><polygon class="cls-1" points="22.94 0 0 21.55 0 24.99 26.6 0 22.94 0"/><polygon class="cls-1" points="33.8 0 0 31.76 0 35.2 37.46 0 33.8 0"/><polygon class="cls-1" points="149.97 0 0 140.91 0 144.34 153.63 0 149.97 0"/><polygon class="cls-1" points="281.97 0 0 264.92 0 268.36 285.63 0 281.97 0"/><polygon class="cls-1" points="353.33 0 0 331.97 0 335.4 356.99 0 353.33 0"/><polygon class="cls-1" points="299.4 0 0 281.3 0 284.73 303.06 0 299.4 0"/><polygon class="cls-1" points="175.07 0 0 164.49 0 167.92 178.73 0 175.07 0"/><polygon class="cls-1" points="332.35 0 0 312.26 0 315.69 336.01 0 332.35 0"/><polygon class="cls-1" points="309.44 0 0 290.73 0 294.17 313.1 0 309.44 0"/><polygon class="cls-1" points="262.26 0 0 246.4 0 249.84 265.92 0 262.26 0"/><polygon class="cls-1" points="220.34 0 0 207.02 0 210.46 224 0 220.34 0"/><polygon class="cls-1" points="191.89 0 0 180.29 0 183.72 195.55 0 191.89 0"/><polygon class="cls-1" points="233.28 0 0 219.18 0 222.61 236.94 0 233.28 0"/><polygon class="cls-1" points="571.48 0 30.19 508.56 33.85 508.56 575.14 0 571.48 0"/><polygon class="cls-1" points="989.09 252.32 716.37 508.56 720.03 508.56 989.09 255.76 989.09 252.32"/><polygon class="cls-1" points="989.09 272.04 737.35 508.56 741.01 508.56 989.09 275.47 989.09 272.04"/><polygon class="cls-1" points="989.09 320.26 788.67 508.56 792.33 508.56 989.09 323.69 989.09 320.26"/><polygon class="cls-1" points="989.09 291.53 758.1 508.56 761.75 508.56 989.09 294.96 989.09 291.53"/><polygon class="cls-1" points="989.09 230.8 693.46 508.56 697.12 508.56 989.09 234.24 989.09 230.8"/><polygon class="cls-1" points="989.09 301.74 768.96 508.56 772.62 508.56 989.09 305.18 989.09 301.74"/><polygon class="cls-1" points="989.09 186.47 646.28 508.56 649.93 508.56 989.09 189.91 989.09 186.47"/><polygon class="cls-1" points="989.09 159.24 617.3 508.56 620.96 508.56 989.09 162.68 989.09 159.24"/><polygon class="cls-1" points="989.09 221.37 683.42 508.56 687.08 508.56 989.09 224.8 989.09 221.37"/><polygon class="cls-1" points="989.09 204.99 665.99 508.56 669.65 508.56 989.09 208.43 989.09 204.99"/><polygon class="cls-1" points="989.09 147.09 604.36 508.56 608.02 508.56 989.09 150.53 989.09 147.09"/><polygon class="cls-1" points="989.09 336.63 806.1 508.56 809.76 508.56 989.09 340.07 989.09 336.63"/><polygon class="cls-1" points="989.09 472.14 950.33 508.56 953.99 508.56 989.09 475.58 989.09 472.14"/><polygon class="cls-1" points="989.09 507.04 987.47 508.56 989.09 508.56 989.09 507.04"/><polygon class="cls-1" points="989.09 432.76 908.42 508.56 912.08 508.56 989.09 436.2 989.09 432.76"/><polygon class="cls-1" points="989.09 490.66 970.04 508.56 973.7 508.56 989.09 494.1 989.09 490.66"/><polygon class="cls-1" points="989.09 456.34 933.51 508.56 937.17 508.56 989.09 459.78 989.09 456.34"/><polygon class="cls-1" points="989.09 417.73 892.42 508.56 896.08 508.56 989.09 421.17 989.09 417.73"/><polygon class="cls-1" points="989.09 367.94 839.43 508.56 843.09 508.56 989.09 371.38 989.09 367.94"/><polygon class="cls-1" points="989.09 389.47 862.34 508.56 866 508.56 989.09 392.91 989.09 389.47"/><polygon class="cls-1" points="989.09 406.99 880.99 508.56 884.65 508.56 989.09 410.43 989.09 406.99"/><polygon class="cls-1" points="931.3 0 390.02 508.56 393.68 508.56 934.96 0 931.3 0"/><polygon class="cls-1" points="877.35 0 336.06 508.56 339.72 508.56 881.01 0 877.35 0"/><polygon class="cls-1" points="989.09 126.76 582.72 508.56 586.38 508.56 989.09 130.2 989.09 126.76"/><polygon class="cls-1" points="773.22 0 231.93 508.56 235.59 508.56 776.88 0 773.22 0"/><polygon class="cls-1" points="913.88 0 372.59 508.56 376.25 508.56 917.53 0 913.88 0"/><polygon class="cls-1" points="852.25 0 310.96 508.56 314.62 508.56 855.91 0 852.25 0"/><polygon class="cls-1" points="894.16 0 352.88 508.56 356.54 508.56 897.82 0 894.16 0"/><polygon class="cls-1" points="836.26 0 294.97 508.56 298.63 508.56 839.91 0 836.26 0"/><polygon class="cls-1" points="806.17 0 264.88 508.56 268.54 508.56 809.83 0 806.17 0"/><polygon class="cls-1" points="783.26 0 241.98 508.56 245.63 508.56 786.92 0 783.26 0"/><polygon class="cls-1" points="824.83 0 283.54 508.56 287.2 508.56 828.48 0 824.83 0"/><polygon class="cls-1" points="941.35 0 400.06 508.56 403.72 508.56 945.01 0 941.35 0"/><polygon class="cls-1" points="989.09 67.53 519.69 508.56 523.35 508.56 989.09 70.97 989.09 67.53"/><polygon class="cls-1" points="989.09 98.5 552.64 508.56 556.3 508.56 989.09 101.93 989.09 98.5"/><polygon class="cls-1" points="989.09 76.97 529.73 508.56 533.39 508.56 989.09 80.41 989.09 76.97"/><polygon class="cls-1" points="989.09 116.02 571.29 508.56 574.95 508.56 989.09 119.46 989.09 116.02"/><polygon class="cls-1" points="964.26 0 422.97 508.56 426.63 508.56 967.92 0 964.26 0"/><polygon class="cls-1" points="989.09 51.16 502.26 508.56 505.92 508.56 989.09 54.6 989.09 51.16"/><polygon class="cls-1" points="989.09 13.68 462.37 508.56 466.02 508.56 989.09 17.12 989.09 13.68"/><polygon class="cls-1" points="982.91 0 441.62 508.56 445.28 508.56 986.57 0 982.91 0"/><polygon class="cls-1" points="989.09 23.89 473.23 508.56 476.89 508.56 989.09 27.33 989.09 23.89"/></svg>