<svg id="ART" xmlns="http://www.w3.org/2000/svg" xmlns:xlink="http://www.w3.org/1999/xlink" viewBox="0 0 864 1800"><defs><style>.cls-1,.cls-3{fill:none;}.cls-2{clip-path:url(#clip-path);}.cls-3{stroke:#231f20;stroke-miterlimit:10;stroke-width:2px;}</style><clipPath id="clip-path"><rect class="cls-1" width="864" height="1798.35"/></clipPath></defs><title>Artboard 1</title><g class="cls-2"><line class="cls-3" x1="1376.04" y1="-55.17" x2="-195.13" y2="1516"/><line class="cls-3" x1="1376.04" y1="-64" x2="-195.13" y2="1507.17"/><line class="cls-3" x1="1376.04" y1="-78.42" x2="-195.13" y2="1492.75"/><line class="cls-3" x1="1376.04" y1="-96.13" x2="-195.13" y2="1475.04"/><line class="cls-3" x1="1372.16" y1="-100.01" x2="-199.01" y2="1471.16"/><line class="cls-3" x1="1372.16" y1="-113.49" x2="-199.01" y2="1457.69"/><line class="cls-3" x1="1372.16" y1="-128.72" x2="-199.01" y2="1442.45"/><line class="cls-3" x1="1376.04" y1="-141" x2="-195.13" y2="1430.17"/><line class="cls-3" x1="1376.04" y1="-157.04" x2="-195.13" y2="1414.13"/><line class="cls-3" x1="1376.04" y1="-171.46" x2="-195.13" y2="1399.71"/><line class="cls-3" x1="1376.04" y1="-189.17" x2="-195.13" y2="1382"/><line class="cls-3" x1="1372.16" y1="-193.05" x2="-199.01" y2="1378.12"/><line class="cls-3" x1="1372.16" y1="-206.52" x2="-199.01" y2="1364.65"/><line class="cls-3" x1="1372.16" y1="-221.76" x2="-199.01" y2="1349.41"/><line class="cls-3" x1="1360.96" y1="-223.56" x2="-210.21" y2="1347.61"/><line class="cls-3" x1="1360.96" y1="-242.96" x2="-210.21" y2="1328.21"/><line class="cls-3" x1="1376.04" y1="-270.4" x2="-195.13" y2="1300.77"/><line class="cls-3" x1="1376.04" y1="-279.24" x2="-195.13" y2="1291.93"/><line class="cls-3" x1="1376.04" y1="-293.66" x2="-195.13" y2="1277.51"/><line class="cls-3" x1="1376.04" y1="-311.37" x2="-195.13" y2="1259.8"/><line class="cls-3" x1="1372.16" y1="-333.25" x2="-199.01" y2="1237.92"/><line class="cls-3" x1="1372.16" y1="-346.72" x2="-199.01" y2="1224.45"/><line class="cls-3" x1="1372.16" y1="-361.96" x2="-199.01" y2="1209.21"/><line class="cls-3" x1="1376.04" y1="-374.24" x2="-195.13" y2="1196.93"/><line class="cls-3" x1="1376.04" y1="-390.28" x2="-195.13" y2="1180.9"/><line class="cls-3" x1="1376.04" y1="-406.49" x2="-195.13" y2="1164.68"/><line class="cls-3" x1="1376.04" y1="-424.2" x2="-195.13" y2="1146.97"/><line class="cls-3" x1="1372.16" y1="-428.09" x2="-199.01" y2="1143.09"/><line class="cls-3" x1="1372.16" y1="-441.56" x2="-199.01" y2="1129.61"/><line class="cls-3" x1="1372.16" y1="-456.79" x2="-199.01" y2="1114.38"/><line class="cls-3" x1="1360.96" y1="-467.99" x2="-210.21" y2="1103.18"/><line class="cls-3" x1="1360.96" y1="-477.99" x2="-210.21" y2="1093.18"/><line class="cls-3" x1="1376.04" y1="-509.8" x2="-195.13" y2="1061.37"/><line class="cls-3" x1="1376.04" y1="-518.64" x2="-195.13" y2="1052.53"/><line class="cls-3" x1="1376.04" y1="-533.06" x2="-195.13" y2="1038.11"/><line class="cls-3" x1="1376.04" y1="-550.77" x2="-195.13" y2="1020.4"/><line class="cls-3" x1="1372.16" y1="-554.65" x2="-199.01" y2="1016.52"/><line class="cls-3" x1="1372.16" y1="-568.12" x2="-199.01" y2="1003.05"/><line class="cls-3" x1="1372.16" y1="-590.56" x2="-199.01" y2="980.61"/><line class="cls-3" x1="1376.04" y1="-602.84" x2="-195.13" y2="968.33"/><line class="cls-3" x1="1376.04" y1="-618.88" x2="-195.13" y2="952.3"/><line class="cls-3" x1="1376.04" y1="-633.29" x2="-195.13" y2="937.88"/><line class="cls-3" x1="1376.04" y1="-651" x2="-195.13" y2="920.17"/><line class="cls-3" x1="1372.16" y1="-654.89" x2="-199.01" y2="916.29"/><line class="cls-3" x1="1372.16" y1="-668.36" x2="-199.01" y2="902.81"/><line class="cls-3" x1="1372.16" y1="-683.59" x2="-199.01" y2="887.58"/><line class="cls-3" x1="1360.96" y1="-685.39" x2="-210.21" y2="885.78"/><line class="cls-3" x1="1360.96" y1="-704.79" x2="-210.21" y2="866.38"/><line class="cls-3" x1="1376.04" y1="-732.24" x2="-195.13" y2="838.93"/><line class="cls-3" x1="1376.04" y1="-741.08" x2="-195.13" y2="830.1"/><line class="cls-3" x1="1376.04" y1="-755.49" x2="-195.13" y2="815.68"/><line class="cls-3" x1="1376.04" y1="-773.2" x2="-195.13" y2="797.97"/><line class="cls-3" x1="1372.16" y1="-777.09" x2="-199.01" y2="794.09"/><line class="cls-3" x1="1372.16" y1="-790.56" x2="-199.01" y2="780.61"/><line class="cls-3" x1="1372.16" y1="-805.79" x2="-199.01" y2="765.38"/><line class="cls-3" x1="1376.04" y1="-818.08" x2="-195.13" y2="753.1"/><line class="cls-3" x1="1376.04" y1="-834.11" x2="-195.13" y2="737.06"/><line class="cls-3" x1="1376.04" y1="-850.33" x2="-195.13" y2="720.84"/><line class="cls-3" x1="1376.04" y1="-868.04" x2="-195.13" y2="703.13"/><line class="cls-3" x1="1372.16" y1="-871.92" x2="-199.01" y2="699.25"/><line class="cls-3" x1="1372.16" y1="-885.39" x2="-199.01" y2="685.78"/><line class="cls-3" x1="1372.16" y1="-900.63" x2="-199.01" y2="670.54"/><line class="cls-3" x1="1360.96" y1="-911.83" x2="-210.21" y2="659.34"/><line class="cls-3" x1="1360.96" y1="-921.83" x2="-210.21" y2="649.34"/><line class="cls-3" x1="1372.16" y1="-955.03" x2="-199.01" y2="616.14"/><line class="cls-3" x1="1360.96" y1="-956.83" x2="-210.21" y2="614.34"/><line class="cls-3" x1="1360.96" y1="-976.23" x2="-210.21" y2="594.94"/><line class="cls-3" x1="1376.04" y1="-1003.67" x2="-195.13" y2="567.5"/><line class="cls-3" x1="1376.04" y1="-1012.51" x2="-195.13" y2="558.66"/><line class="cls-3" x1="1376.04" y1="-1026.93" x2="-195.13" y2="544.24"/><line class="cls-3" x1="1376.04" y1="-1044.64" x2="-195.13" y2="526.54"/><line class="cls-3" x1="1372.16" y1="-1048.52" x2="-199.01" y2="522.65"/><line class="cls-3" x1="1372.16" y1="-1061.99" x2="-199.01" y2="509.18"/><line class="cls-3" x1="1372.16" y1="-1077.23" x2="-199.01" y2="493.94"/><line class="cls-3" x1="1376.04" y1="-1089.51" x2="-195.13" y2="481.66"/><line class="cls-3" x1="1376.04" y1="-1105.55" x2="-195.13" y2="465.63"/><line class="cls-3" x1="1376.04" y1="-1121.76" x2="-195.13" y2="449.41"/><line class="cls-3" x1="1376.04" y1="-1139.47" x2="-195.13" y2="431.7"/><line class="cls-3" x1="1372.16" y1="-1143.35" x2="-199.01" y2="427.82"/><line class="cls-3" x1="1372.16" y1="-1156.83" x2="-199.01" y2="414.34"/><line class="cls-3" x1="1372.16" y1="-1172.06" x2="-199.01" y2="399.11"/><line class="cls-3" x1="1360.96" y1="-1183.26" x2="-210.21" y2="387.91"/><line class="cls-3" x1="1360.96" y1="-1193.26" x2="-210.21" y2="377.91"/><line class="cls-3" x1="1372.16" y1="-1226.46" x2="-199.01" y2="344.71"/><line class="cls-3" x1="1360.96" y1="-1228.26" x2="-210.21" y2="342.91"/><line class="cls-3" x1="1360.96" y1="-1247.66" x2="-210.21" y2="323.51"/><line class="cls-3" x1="1376.04" y1="-1275.1" x2="-195.13" y2="296.07"/><line class="cls-3" x1="1376.04" y1="-1283.94" x2="-195.13" y2="287.23"/><line class="cls-3" x1="1376.04" y1="-1298.36" x2="-195.13" y2="272.81"/><line class="cls-3" x1="1376.04" y1="-1316.07" x2="-195.13" y2="255.1"/><line class="cls-3" x1="1372.16" y1="-1319.95" x2="-199.01" y2="251.22"/><line class="cls-3" x1="1372.16" y1="-1333.42" x2="-199.01" y2="237.75"/><line class="cls-3" x1="1372.16" y1="-1348.66" x2="-199.01" y2="222.51"/><line class="cls-3" x1="1376.04" y1="-1360.94" x2="-195.13" y2="210.23"/><line class="cls-3" x1="1376.04" y1="-1376.98" x2="-195.13" y2="194.19"/><line class="cls-3" x1="1376.04" y1="-1393.2" x2="-195.13" y2="177.98"/><line class="cls-3" x1="1376.04" y1="-1410.9" x2="-195.13" y2="160.27"/><line class="cls-3" x1="1372.16" y1="-1414.79" x2="-199.01" y2="156.39"/><line class="cls-3" x1="1372.16" y1="-1428.26" x2="-199.01" y2="142.91"/><line class="cls-3" x1="1372.16" y1="-1443.5" x2="-199.01" y2="127.68"/><line class="cls-3" x1="1360.96" y1="-1454.7" x2="-210.21" y2="116.48"/><line class="cls-3" x1="1360.96" y1="-1464.7" x2="-210.21" y2="106.48"/><line class="cls-3" x1="1376.04" y1="847.86" x2="-195.13" y2="2419.03"/><line class="cls-3" x1="1376.04" y1="839.02" x2="-195.13" y2="2410.19"/><line class="cls-3" x1="1376.04" y1="824.6" x2="-195.13" y2="2395.77"/><line class="cls-3" x1="1376.04" y1="806.89" x2="-195.13" y2="2378.06"/><line class="cls-3" x1="1372.16" y1="803.01" x2="-199.01" y2="2374.18"/><line class="cls-3" x1="1372.16" y1="789.54" x2="-199.01" y2="2360.71"/><line class="cls-3" x1="1372.16" y1="774.3" x2="-199.01" y2="2345.47"/><line class="cls-3" x1="1376.04" y1="762.02" x2="-195.13" y2="2333.19"/><line class="cls-3" x1="1376.04" y1="745.98" x2="-195.13" y2="2317.15"/><line class="cls-3" x1="1376.04" y1="731.56" x2="-195.13" y2="2302.74"/><line class="cls-3" x1="1376.04" y1="713.86" x2="-195.13" y2="2285.03"/><line class="cls-3" x1="1372.16" y1="709.97" x2="-199.01" y2="2281.15"/><line class="cls-3" x1="1372.16" y1="696.5" x2="-199.01" y2="2267.67"/><line class="cls-3" x1="1372.16" y1="681.26" x2="-199.01" y2="2252.44"/><line class="cls-3" x1="1360.96" y1="679.46" x2="-210.21" y2="2250.64"/><line class="cls-3" x1="1376.04" y1="1057.61" x2="-195.13" y2="2628.78"/><line class="cls-3" x1="1376.04" y1="1048.77" x2="-195.13" y2="2619.94"/><line class="cls-3" x1="1376.04" y1="1034.35" x2="-195.13" y2="2605.53"/><line class="cls-3" x1="1376.04" y1="1016.65" x2="-195.13" y2="2587.82"/><line class="cls-3" x1="1372.16" y1="1012.76" x2="-199.01" y2="2583.94"/><line class="cls-3" x1="1372.16" y1="999.29" x2="-199.01" y2="2570.46"/><line class="cls-3" x1="1372.16" y1="984.05" x2="-199.01" y2="2555.23"/><line class="cls-3" x1="1376.04" y1="971.77" x2="-195.13" y2="2542.94"/><line class="cls-3" x1="1376.04" y1="955.74" x2="-195.13" y2="2526.91"/><line class="cls-3" x1="1376.04" y1="941.32" x2="-195.13" y2="2512.49"/><line class="cls-3" x1="1376.04" y1="923.61" x2="-195.13" y2="2494.78"/><line class="cls-3" x1="1372.16" y1="919.73" x2="-199.01" y2="2490.9"/><line class="cls-3" x1="1372.16" y1="906.25" x2="-199.01" y2="2477.43"/><line class="cls-3" x1="1372.16" y1="891.02" x2="-199.01" y2="2462.19"/><line class="cls-3" x1="1360.96" y1="889.22" x2="-210.21" y2="2460.39"/><line class="cls-3" x1="1376.04" y1="1267.36" x2="-195.13" y2="2838.53"/><line class="cls-3" x1="1376.04" y1="1258.53" x2="-195.13" y2="2829.7"/><line class="cls-3" x1="1376.04" y1="1244.11" x2="-195.13" y2="2815.28"/><line class="cls-3" x1="1376.04" y1="1226.4" x2="-195.13" y2="2797.57"/><line class="cls-3" x1="1372.16" y1="1222.52" x2="-199.01" y2="2793.69"/><line class="cls-3" x1="1372.16" y1="1209.04" x2="-199.01" y2="2780.22"/><line class="cls-3" x1="1372.16" y1="1193.81" x2="-199.01" y2="2764.98"/><line class="cls-3" x1="1376.04" y1="1181.53" x2="-195.13" y2="2752.7"/><line class="cls-3" x1="1376.04" y1="1165.49" x2="-195.13" y2="2736.66"/><line class="cls-3" x1="1376.04" y1="1151.07" x2="-195.13" y2="2722.24"/><line class="cls-3" x1="1376.04" y1="1133.36" x2="-195.13" y2="2704.53"/><line class="cls-3" x1="1372.16" y1="1129.48" x2="-199.01" y2="2700.65"/><line class="cls-3" x1="1372.16" y1="1116.01" x2="-199.01" y2="2687.18"/><line class="cls-3" x1="1372.16" y1="1100.77" x2="-199.01" y2="2671.94"/><line class="cls-3" x1="1360.96" y1="1098.97" x2="-210.21" y2="2670.14"/><line class="cls-3" x1="1360.96" y1="660.06" x2="-210.21" y2="2231.24"/><line class="cls-3" x1="1376.04" y1="632.62" x2="-195.13" y2="2203.79"/><line class="cls-3" x1="1376.04" y1="623.78" x2="-195.13" y2="2194.95"/><line class="cls-3" x1="1376.04" y1="609.36" x2="-195.13" y2="2180.54"/><line class="cls-3" x1="1376.04" y1="591.66" x2="-195.13" y2="2162.83"/><line class="cls-3" x1="1372.16" y1="569.77" x2="-199.01" y2="2140.95"/><line class="cls-3" x1="1372.16" y1="556.3" x2="-199.01" y2="2127.47"/><line class="cls-3" x1="1372.16" y1="541.06" x2="-199.01" y2="2112.24"/><line class="cls-3" x1="1376.04" y1="528.78" x2="-195.13" y2="2099.95"/><line class="cls-3" x1="1376.04" y1="512.75" x2="-195.13" y2="2083.92"/><line class="cls-3" x1="1376.04" y1="496.53" x2="-195.13" y2="2067.7"/><line class="cls-3" x1="1376.04" y1="478.82" x2="-195.13" y2="2049.99"/><line class="cls-3" x1="1372.16" y1="474.94" x2="-199.01" y2="2046.11"/><line class="cls-3" x1="1372.16" y1="461.46" x2="-199.01" y2="2032.64"/><line class="cls-3" x1="1372.16" y1="446.23" x2="-199.01" y2="2017.4"/><line class="cls-3" x1="1360.96" y1="435.03" x2="-210.21" y2="2006.2"/><line class="cls-3" x1="1360.96" y1="425.03" x2="-210.21" y2="1996.2"/><line class="cls-3" x1="1376.04" y1="393.22" x2="-195.13" y2="1964.39"/><line class="cls-3" x1="1376.04" y1="384.38" x2="-195.13" y2="1955.55"/><line class="cls-3" x1="1376.04" y1="369.96" x2="-195.13" y2="1941.14"/><line class="cls-3" x1="1376.04" y1="352.26" x2="-195.13" y2="1923.43"/><line class="cls-3" x1="1372.16" y1="348.37" x2="-199.01" y2="1919.55"/><line class="cls-3" x1="1372.16" y1="334.9" x2="-199.01" y2="1906.07"/><line class="cls-3" x1="1372.16" y1="312.46" x2="-199.01" y2="1883.64"/><line class="cls-3" x1="1376.04" y1="300.18" x2="-195.13" y2="1871.35"/><line class="cls-3" x1="1376.04" y1="284.15" x2="-195.13" y2="1855.32"/><line class="cls-3" x1="1376.04" y1="269.73" x2="-195.13" y2="1840.9"/><line class="cls-3" x1="1376.04" y1="252.02" x2="-195.13" y2="1823.19"/><line class="cls-3" x1="1372.16" y1="248.14" x2="-199.01" y2="1819.31"/><line class="cls-3" x1="1372.16" y1="234.66" x2="-199.01" y2="1805.84"/><line class="cls-3" x1="1372.16" y1="219.43" x2="-199.01" y2="1790.6"/><line class="cls-3" x1="1360.96" y1="217.63" x2="-210.21" y2="1788.8"/><line class="cls-3" x1="1360.96" y1="198.23" x2="-210.21" y2="1769.4"/><line class="cls-3" x1="1376.04" y1="170.78" x2="-195.13" y2="1741.95"/><line class="cls-3" x1="1376.04" y1="161.95" x2="-195.13" y2="1733.12"/><line class="cls-3" x1="1376.04" y1="147.53" x2="-195.13" y2="1718.7"/><line class="cls-3" x1="1376.04" y1="129.82" x2="-195.13" y2="1700.99"/><line class="cls-3" x1="1372.16" y1="125.94" x2="-199.01" y2="1697.11"/><line class="cls-3" x1="1372.16" y1="112.46" x2="-199.01" y2="1683.64"/><line class="cls-3" x1="1372.16" y1="97.23" x2="-199.01" y2="1668.4"/><line class="cls-3" x1="1376.04" y1="84.95" x2="-195.13" y2="1656.12"/><line class="cls-3" x1="1376.04" y1="68.91" x2="-195.13" y2="1640.08"/><line class="cls-3" x1="1376.04" y1="52.69" x2="-195.13" y2="1623.86"/><line class="cls-3" x1="1376.04" y1="34.98" x2="-195.13" y2="1606.15"/><line class="cls-3" x1="1372.16" y1="31.1" x2="-199.01" y2="1602.27"/><line class="cls-3" x1="1372.16" y1="17.63" x2="-199.01" y2="1588.8"/><line class="cls-3" x1="1372.16" y1="2.39" x2="-199.01" y2="1573.56"/><line class="cls-3" x1="1360.96" y1="-8.81" x2="-210.21" y2="1562.36"/><line class="cls-3" x1="1360.96" y1="-18.81" x2="-210.21" y2="1552.36"/></g></svg>