<svg xmlns="http://www.w3.org/2000/svg" viewBox="0 0 264.66 231.71"><title>LINKEDIN</title><g id="ART"><path d="M286.3,91.94c1.21,6.25,2.52,12.48,3.59,18.75,1.55,9.07,3.2,18.14,4.32,27.26,1.16,9.45,1.81,19,2.51,28.46.37,5,.26,10,.53,15,.38,6.85,1.14,13.69,1.34,20.54.28,9.28,2.27,18.4.44,27.92-1.13,5.86-.92,12.14-3.38,17.68-2.61,5.87-5.42,11.9-9.43,16.8-2,2.48-6.85,3.22-10.54,3.72-12.84,1.73-25.74,3.09-38.63,4.42-3.45.36-7-.28-10.43.21-11.71,1.68-23.59.66-35.31,3.26-7.11,1.58-14.81.93-22.22.65-7.73-.29-15.38-.81-23.14.18a226.7,226.7,0,0,1-24.3,1.61c-4.2.08-8.41-1.06-12.64-1.5-2.88-.3-5.8-.19-8.66-.54-9.71-1.18-19.53-1.91-29.08-3.91a42.07,42.07,0,0,1-20.83-11.26,25,25,0,0,1-8.18-19.24c0-4.62-1.41-9.23-1.89-13.87-.33-3.18,0-6.42-.2-9.63-.43-7.78-1-15.56-1.47-23.34q-1.11-17.66-2.21-35.31c-.46-7.28-1.31-14.56-1.35-21.85s1-14.56,1-21.85c.1-10.06-.62-20.14-.28-30.19.23-6.67,1-13.45,5.57-19.06s10.21-7.58,17.08-7.4a35.72,35.72,0,0,0,5.63-.51c4.95-.66,9.9-1.29,14.82-2.1,4.28-.7,8.5-1.84,12.8-2.41,9.45-1.27,18.91-2.85,28.41-3.31,14.78-.72,29.54-1.44,44.27-3,8.23-.89,16.59-1.71,24.81-1.23,11.44.67,22.79.34,34.21,0,8.12-.24,16.28.62,24.41,1.13,5,.32,10.27.14,15,1.59,4.92,1.51,9.43,4.52,13.92,7.21,3.15,1.89,4.28,4.83,5.34,8.65,1.89,6.81,2.2,13.88,4.32,20.6.58,1.82.47,3.85.68,5.78ZM134.46,254.24l-.77-.74L132,240.87c-4.11,4.29-4.31,4.32-8.88,1.76-.88,5.68-.22,11.49-5.14,16.38-5.6,5.57-12,.76-17.08,2.73L99.3,268c6.73.56,13.82,1.25,20.93,1.7,4.32.27,8.76.76,13,.09a138.79,138.79,0,0,1,30.27-1.1,183.21,183.21,0,0,0,22.4-.44c6.75-.43,13.45-1.56,20.19-2.17,4.83-.44,9.69-.37,14.52-.79,8.74-.76,17.46-1.71,26.19-2.58,10.79-1.08,21.58-2.15,32.36-3.29a4,4,0,0,0,2.53-1.19c6.43-8.43,9.44-18,9.61-29l-12.5,6.09a13.52,13.52,0,0,1,1.29,3.89c.14,1.9.25,4.42-.82,5.61s-3.62,1.58-5.55,1.67c-5,.24-10,.22-15,.14-7.85-.13-15.72-.11-23.53-.74-3.82-.31-5.61-4-3.29-5.66,2.93-2.14,2.45-4.79,2.92-7.6,1.46-8.77-.13-17.28-1.81-25.77-1.13-5.7-3.32-11.24-4-17-1.2-9.83-5.72-17-14.09-22.28-7-4.41-14.49-4.43-22-3.52-6,.72-10.37,4-11.53,10.56-.29,1.64-1.29,3.14-1.69,4.78-.85,3.48-2.22,7-2.12,10.5.21,7.36,1.55,14.69,1.82,22,.39,10.62,3.57,20.42,7.4,30.16a6.51,6.51,0,0,1-.71,5.53c-1.18,1.44-3.57,2-5.55,2.65a40.17,40.17,0,0,1-6,.82c1.8,1.79,3.19,2.54,3.41,3.53.36,1.67.53,3.85-.28,5.15s-3,1.72-4.48,2.71c-2.14,1.46-3.95,1.88-5.44-.82-1.37-2.48-.74-4.36,1.5-5.91.92-.63,1.76-1.38,2.63-2.08l-.26-.94H158.54c1.85,6.18,1.84,6.16-3.68,9.39-.8.47-1.31,1.45-2.12,1.85-2,1-4.19,2.71-6.07,2.44-3.25-.46-3.65-5-.71-7.6,2.27-2,4.91-3.65,7.63-5.63Zm142.09-60.88,1,.55c1.17-1.48,2.12-3.25,3.57-4.37,1.88-1.45,4-1,5.4,1,1.87,2.65.85,4.68-3.81,7.77-3,2-4.56,0-6-2.59l.8,17c2.19-2.07,4.08-4.06,6.2-5.76.77-.62,2.71-1.06,3.07-.66,1,1.16,2.51,3.53,2.06,4.13a32.94,32.94,0,0,1-6.91,7c-.89.66-3-.34-4.49-.58l1.31,11.46c2.63-2,4.42-4.23,6.62-4.75,1.87-.44,4.21,1.11,6.78,1.91-.27-5.77-.52-12.12-.86-18.47-.86-16.39-1.62-32.79-2.69-49.16-.52-8.05-1.38-16.11-2.55-24.09-1.14-7.74-3-15.37-4.29-23.1-1.42-8.77-2.47-17.6-3.75-26.39-.36-2.5-1-5-1.44-7.45-1.13-6.35-1.26-13.24-8.6-16.28-4.21-1.75-8.36-4.54-12.7-4.9-11.11-.91-22.31-.78-33.48-.94-8.76-.13-17.53-.18-26.29-.05-9.42.13-18.85.32-28.25.85-5.81.33-11.57,1.42-17.37,2-5.54.55-11.1,1-16.66,1.28-4.21.2-8.45,0-13,0,2.39,4.64,2.14,6.48-1.9,8.65-5.79,3.11-10.77,8.37-19,7a19.7,19.7,0,0,1,2.11,2.29c2.67,4.5,6.59,8.76,7.62,13.63a19.32,19.32,0,0,1-4.95,18.15c-4,4.23-8.24,7.22-14.06,7.25a56,56,0,0,1-12.13-.93c-5.92-1.29-11.75-3.2-16-8S55.15,96.7,55.65,89.54a62.89,62.89,0,0,0-4.74,4.17c-1.57,1.71-3.14,3.46-5.29,1.12-2.51-2.72-2.16-5.52.19-7.66,1.32-1.2,2-3.08,3.3-4.35.81-.8,2.46-1.72,3.22-1.4,1.64.7,2.95,2.18,4.4,3.34.32-.3.68-.51.84-.81C61.74,76,66.6,69.07,77.1,70c.11,0,.23-.11.35-.11,3.47-.1,7-.75,10.39-.13,4.13.77,8.06,2.59,12.12,4-.87-4.77-.59-5.17,4.43-6.63a9.71,9.71,0,0,0,2-1q5.37-3,10.72-6.06a101.28,101.28,0,0,0-17.35,1c-7.37,1.2-14.61,3.24-22,4.62-6.37,1.19-12.83,1.92-19.24,2.94-2.75.44-5.47,1.1-8.2,1.67-4,2.5-5.91,6.62-6.12,11.56-.34,8.19-.75,16.39-.91,24.58-.08,4.13.58,8.27.43,12.39-.28,7.89-1.28,15.76-1.27,23.64,0,8.24.89,16.48,1.39,24.72.31,5.09.5,10.2,1,15.27.51,5.52,1.45,11,1.89,16.54.38,4.89.32,9.81.47,14.72.21,6.75,4,13,2.62,20-.2,1,.58,2.16,1,3.4l1-.88c1.16-1.07,2.39-3.06,3.47-3,1.26.09,2.91,1.79,3.41,3.16a4.35,4.35,0,0,1-1.38,3.83c-1.94,1.49-4.34,2.38-7,3.75,1.26,2.74-.07,7.48,4.44,9.88.4-2.91,1.8-5.14,4.85-5.42.91-.08,2.73,1.22,2.81,2a5.67,5.67,0,0,1-4.29,6.4c4.52,5.19,10.53,6.52,17.08,8-2.91-3.47-1.18-5.58,1.72-7.54a15.94,15.94,0,0,1-12-9.84c-2.46-5.73-3.52-12.33-3.9-18.63-.63-10.66-3.21-21.1-2.59-31.93.42-7.27-.88-14.64-1.43-22.4-2.17,2.62-4.65,3.9-7.16,1.44a4.8,4.8,0,0,1-.62-4.38c1.56-3.31,4.34-3.13,7-1.38.3-6.41.81-12.62.83-18.84a56.84,56.84,0,0,1,6.17-24.94,4.23,4.23,0,0,1,2.29-2.22c3.27-.73,6.64-1,9.92-1.67,4.34-.9,9.43,2.49,13.15-2.36.51-.66,2-.72,3.1-.75a66.18,66.18,0,0,1,8.26.12,8.08,8.08,0,0,1,4.17,1.6c3.07,2.54,5.91,5.36,8.82,8.05.45-2.63,1.55-5,4.54-5.27.93-.08,2.93,1.46,2.85,2a22.12,22.12,0,0,1-2.21,7.52c-.31.57-3.2-.26-5.51-.51l3.58,14.44c1.28-3.08,2.49-5.4,5.81-3.94,2.34,1,2.29,3,1.53,5-1.14,3-3.21,3.25-6.19,1.55l1.94,14.2,7.85-2.22c0-.42.07-1.51,0-2.59-.71-9.44-1.36-18.89-2.24-28.31a15.94,15.94,0,0,0-1.88-5.94c-1.49-2.75-.44-6,2.54-6.5,8.42-1.37,16.82-3,25.3-3.85,4.93-.5,10.34-.78,14.09,3.71,2.25,2.68,4.17,5.63,5.87,8,5.46-2.92,11.12-5.9,16.74-9a48.61,48.61,0,0,1,25.59-6.16c5.78.24,11.51,1.57,17.28,2,8.48.71,14.92,5.17,21,10.52,7,6.13,10.9,14.2,14,22.66a245.68,245.68,0,0,1,7.84,25.06C274.92,178.8,275.47,186.14,276.54,193.36ZM175.7,239.62a8.27,8.27,0,0,0-.26-2c-3.36-9-4.11-18.38-5-27.77-.53-5.63-1.19-11.27-1.27-16.91a57.27,57.27,0,0,1,1.22-12.5c.88-4.21,2.56-8.26,3.87-12.39,1.39-4.4,3.79-8,7.92-10.28a26.77,26.77,0,0,1,12.88-3.13c12.3-.29,23.65,1.82,31.94,11.72,3.34,4,6.7,8.57,8.11,13.44a197.88,197.88,0,0,1,6.21,29.92c1.08,8.45.54,17.1.9,25.65,0,.91,1.23,2.48,2,2.53a95.15,95.15,0,0,0,10,0c4.47-.15,9-.29,13.4-.71a3.22,3.22,0,0,0,2.25-2.15c.17-6.71.34-13.43,0-20.13-.46-9.14-1.11-18.29-2.15-27.39A134.59,134.59,0,0,0,264,166.37,183.33,183.33,0,0,0,254.84,141c-1.91-4.24-5.45-7.92-8.81-11.29-6.09-6.09-13.94-9-22.36-9.26-6.48-.21-13.09-2.18-19.53.26s-13.13,4.72-19.42,7.67c-4.61,2.16-9.07,4.87-10.92,10.33-.33,1-2.45,1.9-3.76,1.91-2.26,0-5.58-4.17-6.14-6.49-2-8.37-3.16-11-11.35-10.31-5.57.49-11.13,1.16-16.71,1.44-3.12.16-4.59.95-4.39,4.47.74,13.71,1.65,27.33,4.25,40.9,1.92,10,2.21,20.39,2.8,30.63.63,10.94.67,21.92,1.17,32.87.17,3.78,1,7.54,1.52,11.75,3.35-.74,6-1.62,8.73-1.88C158.49,243.19,167.47,245,175.7,239.62ZM112.3,252.38c.42-1.24,1.43-2.9,1.46-4.58.16-9.16.2-18.33.06-27.5q-.19-12.3-.87-24.59c-.42-7.58-1.3-15.13-1.74-22.71-.63-10.88-1.43-21.71-5.47-32a18.82,18.82,0,0,1-1.41-4.46c-.67-5.54-3.3-7.66-9-6.91-1.33.17-2.62.76-3.94.81-5.49.22-11,0-16.47.54-3,.27-6.23,1.57-7.17,4.83-1.33,4.57-2.81,9.32-2.84,14-.08,11.5.57,23,1,34.51.4,9.87.43,19.8,1.61,29.59,1.23,10.17,3.57,20.21,5.64,30.27A5.62,5.62,0,0,0,76,247.52c8,3.92,16.81,4.27,25.51,4.83C104.77,252.56,108.08,252.38,112.3,252.38ZM83.91,108.13c3.06-.78,5.87-1.18,8.42-2.2,9.4-3.78,13.45-15.95,4.44-23.55C90.52,77.09,83.26,77.94,76.44,78c-7.33.09-10.5,6.52-12.63,12.71-1.63,4.74.53,10.6,4.93,12.52C73.63,105.38,78.93,106.57,83.91,108.13ZM120,170.79l1.58,34.57c2.14-4.08,5.23-5.47,9.83-2.89l-.94-12c-2.34,2-4.45,4.78-6.9,2-1-1.08-.75-5,.07-5.44,1.67-.88,4.13-.26,6.15-.26l-1.32-17.13ZM121,208.59l1.62,13.08,9.59-5.53-.81-9C128.09,209.43,125.2,211.5,121,208.59ZM93.81,268.13l.3-6.6-12.64-2.19-2.75,6.87Zm33.78-41.06c1.37,2.28,2.44,3.65,2.93,5.19.12.37-1.79,2.07-2.54,1.93-3.35-.62-4.56-2.5-2.2-5.75l-2.84.29v10.35c4.48-3.88,4.58-3.9,9-2V222.92Z" transform="translate(-35.14 -46.69)"/><path d="M134.46,254.24c.58,3.92-1,6.9-3.65,9.74-2.29,2.47-5.89,3.23-8.48,1.14-2.15-1.73-2.13-5.25.05-7.67,3-3.39,6.45-5.77,11.32-3.94Z" transform="translate(-35.14 -46.69)"/><path d="M246.25,65.4c1,.89,3.26,1.92,3.57,3.38s-1,3.83-2.34,4.69c-6.47,4.18-13.18,8-19.81,11.9q-14.3,8.46-28.61,16.9c-6,3.53-12.1,7-18.11,10.52-1,.6-1.71,1.85-2.77,2.29-1.27.53-3.06,1.11-4.08.59a6.65,6.65,0,0,1-3.29-3.79c-.25-1,1.08-3,2.23-3.72,9.13-5.41,18.5-10.41,27.57-15.92,8.83-5.36,17.27-11.38,26.13-16.7,5.33-3.2,9.35-8.68,16.1-9.47C243.69,66,244.51,65.76,246.25,65.4Z" transform="translate(-35.14 -46.69)"/><path d="M136.19,108.68c-1.54-1.51-3.09-2.47-3.75-3.85-.87-1.81.43-2.88,2.13-3.88,7.42-4.38,14.65-9.07,22.07-13.47,3.92-2.32,8.14-4.12,12.08-6.41,11.38-6.6,22.8-13.13,33.92-20.14,3-1.86,4.19-.66,5.73,1.09,1.72,2,1.13,3.72-.88,5.13-3.62,2.53-7.07,5.37-10.91,7.52-10,5.61-20.26,10.79-30.29,16.37-6.44,3.59-12.63,7.62-19,11.38C143.85,104.49,140.3,106.38,136.19,108.68Z" transform="translate(-35.14 -46.69)"/><path d="M123,103c-1.82-1.1-4-1.67-4.55-2.94-.87-2,.56-3.36,2.78-4.27,2.52-1,4.62-3,7-4.35,9.25-5,18.71-9.63,27.8-14.91,5.59-3.25,10.61-7.49,16-11.15a62.58,62.58,0,0,1,7.81-4.59c2.52-1.23,4.46-.08,5.69,2.28,1.33,2.54-.3,3.61-2.22,4.84-8.53,5.47-16.79,11.41-25.52,16.53S139.65,94,130.54,98.84C128.07,100.14,125.64,101.53,123,103Z" transform="translate(-35.14 -46.69)"/><path d="M222.87,69.09C213.37,78,201,81.79,190.56,88.69s-20.86,13.9-31.39,20.92a23.87,23.87,0,0,1-3-2.86c-1.64-2.31-1.09-4,1.38-5.58,7.52-4.87,14.82-10.08,22.35-14.93,5.22-3.37,10.71-6.31,16-9.55C202.28,72.8,208.45,68.54,215,65c1.4-.75,4.2.94,6.27,1.75C221.9,67,222.2,68.06,222.87,69.09Z" transform="translate(-35.14 -46.69)"/><path d="M168.35,64.59c-.34.44-.9,1.78-1.9,2.34-9.3,5.22-18.37,11-28.13,15.14a116,116,0,0,0-14.68,7.78c-2.88,1.74-5.62,1.85-8.1-.76a3.73,3.73,0,0,1,1-5.59c3.75-1.8,7.49-3.61,11.21-5.46,11.91-5.93,23.79-11.9,35.72-17.79C166,59,168.22,60.63,168.35,64.59Z" transform="translate(-35.14 -46.69)"/><path d="M260.69,78.17c-1,1.42-1.55,2.77-2.55,3.63-2.7,2.31-5.52,4.52-8.43,6.56-1.75,1.23-3.84,2-5.66,3.15-5.16,3.27-10.21,6.72-15.41,9.93-2.91,1.79-6.14,3.07-9,4.87-2.32,1.43-3.3.12-4.33-1.51-1.26-2-.4-3.36,1.34-4.53,8.12-5.42,16.25-10.84,24.33-16.33,4.39-3,8.62-6.2,13.06-9.11a4,4,0,0,1,3.51-.09C258.76,75.47,259.58,76.93,260.69,78.17Z" transform="translate(-35.14 -46.69)"/><path d="M263.33,86.57c.93,1,2.39,1.87,2.76,3.09s.22,3.57-.61,4.16c-3.35,2.42-5.6,6-9.85,7.6-4,1.48-7.34,4.58-11,6.9a15.85,15.85,0,0,1-4.73,2.47c-1.24.27-3.74-.36-3.9-1-.36-1.49-.2-4,.78-4.76,7.74-5.9,15.71-11.49,23.63-17.14A19.49,19.49,0,0,1,263.33,86.57Z" transform="translate(-35.14 -46.69)"/><path d="M142.93,65.24c-.83,1-1.35,2.35-2.28,2.76-8.53,3.8-17.13,7.43-25.69,11.15-2.58,1.12-4.19-.27-4.61-2.38-.19-1,1.29-2.81,2.44-3.4Q123.29,68,134,63.13c2.4-1.1,5.08-2.18,7.44.32C141.91,63.93,142.3,64.47,142.93,65.24Z" transform="translate(-35.14 -46.69)"/><path d="M117.2,103.95c1.59,1.48,3.66,2.65,4.53,4.42,1,2.1-.46,3.73-2.6,4.82s-4,2.84-6.14,3.94c-2.48,1.25-4.85,1-6.48-1.68-1.39-2.26-1.19-3.9,1.39-5.28,1.54-.82,2.61-2.49,4.07-3.52A46.61,46.61,0,0,1,117.2,103.95Z" transform="translate(-35.14 -46.69)"/><path d="M254,118.37a3.77,3.77,0,0,1-3.34-5.5c2.37-4.9,6.78-7.46,11.65-9.23a3.13,3.13,0,0,1,2.72,1.22c.69,1.15,1.47,3.44,1,3.91-3.62,3.36-7.56,6.39-11.41,9.51C254.4,118.39,254.11,118.34,254,118.37Z" transform="translate(-35.14 -46.69)"/><path d="M49.79,121.88a12.67,12.67,0,0,1,2.79-2.59,47.38,47.38,0,0,1,9.14-4.16c1.3-.38,3.92.58,4.47,1.67s-.21,3.83-1.28,4.6A58.76,58.76,0,0,1,54.85,127C52.73,128,49.72,125.35,49.79,121.88Z" transform="translate(-35.14 -46.69)"/><path d="M46.61,148.8c-.88-1.77-2.07-3.28-2.34-4.94-.38-2.4,7.06-8.29,9.26-7.31A5.07,5.07,0,0,1,56.19,140C56.52,144,50.89,149,46.61,148.8Z" transform="translate(-35.14 -46.69)"/><path d="M257,122.65c1.09-3.18,4.11-4.12,6.81-5.32,1.86-.83,3.63-.7,5,1.27,1.57,2.28,1,5-1.49,6.18A39.9,39.9,0,0,1,262,127C259.84,127.65,256.95,125.1,257,122.65Z" transform="translate(-35.14 -46.69)"/><path d="M277.41,129.32c.13,2.77-2.32,7.5-4.31,7.54a6,6,0,0,1-4.39-1.73,5.14,5.14,0,0,1-.38-4.6,16.44,16.44,0,0,1,4.78-5.33C275.32,123.62,277.22,125.55,277.41,129.32Z" transform="translate(-35.14 -46.69)"/><path d="M280.56,182.62c-1.17-1.16-2.64-2.16-3.37-3.55-.39-.75.27-2.29.83-3.26.95-1.65,1.91-3.55,3.4-4.52,1-.68,3,0,4.53.09-.33,2,3.72,3.35.83,5.57C284.75,178.51,285.09,182.67,280.56,182.62Z" transform="translate(-35.14 -46.69)"/><path d="M278.55,163.72c-1.56-1-3.13-1.38-3.54-2.32a4.79,4.79,0,0,1,.25-3.93,17.2,17.2,0,0,1,4.26-4.24c2.4-1.77,4.5-.35,5.84,1.53s1.12,4-1.46,5.32A52.34,52.34,0,0,0,278.55,163.72Z" transform="translate(-35.14 -46.69)"/><path d="M51.76,116.29c-2-2-4-3.28-4.59-5-.3-.91,1.93-2.68,3.08-4,.2-.23.75-.12,1-.32,2.13-1.63,4.41-2.36,6.44-.16.82.89,1.58,3.19,1.12,3.68C56.95,112.49,54.59,114,51.76,116.29Z" transform="translate(-35.14 -46.69)"/><path d="M270,146.14c.06-4.09,3.55-8.41,5.83-8.2,2.87.27,3.58,2.59,3.87,4.93s-4.25,6.55-6.48,5.92C271.73,148.38,270.62,146.69,270,146.14Z" transform="translate(-35.14 -46.69)"/><path d="M54.84,160.35c-1.34,1.14-3.1,3.58-5.32,4.12-1.08.26-3-3-4.58-4.69,2.19-1.9,4.13-4.3,6.65-5.53C53.26,153.43,55,156.21,54.84,160.35Z" transform="translate(-35.14 -46.69)"/><path d="M57.52,192.24l-7.11,5.13c-.92-1.44-2.37-2.8-2.62-4.35-.35-2.18,3.05-5.56,4.83-4.91C54.18,188.67,55.34,190.32,57.52,192.24Z" transform="translate(-35.14 -46.69)"/><path d="M58.31,220.39c-.11,4-2.52,6.65-4.85,6.56-2.84-.1-3.45-2.48-3.17-4.33.33-2.16,1.35-4.89,4.45-4.33C56.21,218.55,57.48,219.88,58.31,220.39Z" transform="translate(-35.14 -46.69)"/><path d="M49,205.87l4.62-4.61c1.16,1.44,3.16,2.82,3.27,4.34.16,2.18-.41,5.16-3.72,5.07-2.3-.06-3.85-1.39-3.35-4.11Z" transform="translate(-35.14 -46.69)"/><path d="M227.24,219.55c2.72-.29,3.49,1.66,3.63,3.61.12,1.53-.06,3.87-1,4.57-8.72,6.27-17.52,12.45-26.58,18.22-2.45,1.56-5.8,1.91-8.8,2.28-1,.12-2.4-1.31-3.09-2.38-.26-.4.81-2,1.61-2.67,7.08-5.57,14.17-11.11,21.39-16.5,3.3-2.46,6.86-4.59,10.37-6.75A6.79,6.79,0,0,1,227.24,219.55Z" transform="translate(-35.14 -46.69)"/><path d="M194.33,231.66c-1.55-1.67-3.36-2.91-4-4.61-.34-.89,1-3,2.16-3.8,5.28-3.74,10.78-7.18,16.13-10.82,4-2.72,7.91-5.56,11.84-8.37,2.13-1.52,4.3-2.09,6.17.16s1.35,4.6-.93,6.23c-7.78,5.56-15.65,11-23.5,16.47-1.48,1-3,1.93-4.58,2.86C196.81,230.28,196,230.73,194.33,231.66Z" transform="translate(-35.14 -46.69)"/><path d="M224.23,192.5c-.9,1.39-1.28,2.51-2.06,3.09C213.84,201.78,205.53,208,197,214a5.41,5.41,0,0,1-7.93-1.37c-.62-1,.23-4.24.35-4.24,4.52.12,6.38-4,9.44-6,6.21-4.06,11.82-9,17.83-13.41a4.43,4.43,0,0,1,3.93-.25C222.05,189.44,223,191.08,224.23,192.5Z" transform="translate(-35.14 -46.69)"/><path d="M185,195.62c4.42-3.47,8.86-7,13.32-10.45,4.19-3.27,8.25-6.76,12.71-9.62,1.07-.69,4,.22,5.2,1.33,1.7,1.54,2.63,4.21.16,6-6.91,5-13.85,10-21,14.65C189.55,201.29,188.74,200.94,185,195.62Z" transform="translate(-35.14 -46.69)"/><path d="M186.25,187.83a39.9,39.9,0,0,1-4-5.79c-.27-.57,1.08-2.27,2-3,4.77-3.69,9.67-7.22,14.51-10.82,2.13-1.59,4.6-1,6.43,1.83,1.42,2.18.51,3.93-1.37,5.4-4.58,3.58-9.11,7.22-13.73,10.75C189.3,186.82,188.17,187,186.25,187.83Z" transform="translate(-35.14 -46.69)"/><path d="M209.74,255.46a30.16,30.16,0,0,1-4.41-4.12c-.44-.59.06-2.68.79-3.24,4.33-3.37,8.83-6.51,13.31-9.69,3.3-2.34,6.47-1.79,7.35,1.48.34,1.26,0,3.4-.86,4.16-4.15,3.62-8.58,6.93-13,10.28C212.34,254.8,211.41,254.89,209.74,255.46Z" transform="translate(-35.14 -46.69)"/><path d="M235.89,251.54c.06,3-5.93,8.87-8.13,7.64-1.26-.7-2.73-3.2-2.34-4.2a16.36,16.36,0,0,1,4.42-5.67,4.1,4.1,0,0,1,3.66-.63C234.64,249.21,235.3,250.77,235.89,251.54Z" transform="translate(-35.14 -46.69)"/><path d="M190.83,251.32c2.84-.53,2.82,2.14,3.08,3.75.37,2.36-3.72,6.9-5.77,6.25A7.71,7.71,0,0,1,184,257C183.33,255.29,188.28,251.33,190.83,251.32Z" transform="translate(-35.14 -46.69)"/><path d="M257.92,253.6c-2.9,2-4.89,4-7.28,4.79-.94.32-3.41-1.67-4-3.11-.77-1.84,4.25-7.48,5.9-6.75C254.35,249.34,255.63,251.35,257.92,253.6Z" transform="translate(-35.14 -46.69)"/><path d="M261,253.32a43.26,43.26,0,0,1,4.69-5.1c1-.78,2.93-1.37,3.86-.9a5.18,5.18,0,0,1,2.38,3.66c.08,1-1.38,2.21-2.27,3.22-.37.42-1.08.51-1.56.86C264.28,257.88,264.24,257.87,261,253.32Z" transform="translate(-35.14 -46.69)"/></g></svg>