<svg xmlns="http://www.w3.org/2000/svg" viewBox="0 0 733.77 479.61"><title>RESERVATION</title><g id="ART"><path d="M50.32,26c11.39-.71,22.8-1.31,34.18-2.17,10.3-.78,20.56-2.05,30.86-2.67,5.17-.31,10.39.48,15.6.54,8.57.09,17.14-.09,25.71,0,20.17.19,40.35.79,60.52.59,15-.15,30-1.65,45-1.92s29.7.34,44.56.44c7.31.05,14.63-.33,21.95-.2,5.93.11,11.86.71,17.78,1,13.77.78,27.58,1.22,41.32,2.37,12.65,1.06,25.22,3.11,37.86,4.31q16.87,1.61,33.82,2.29c17.94.73,35.89,1,53.84,1.64,9.91.33,19.81,1.08,29.72,1.22,6,.08,12-.86,18.07-1,5.58-.11,11.18.27,16.77.42,15.5.4,31,1,46.51,1.07,6.38,0,12.77-1.24,19.16-1.9,6.63-.69,13.27-1.28,19.88-2.09,3-.37,6-1.17,9-1.77a21.51,21.51,0,0,1,3.18-.6c6.23-.28,12.46-.37,18.68-.82,1.44-.1,2.72-1.57,4.2-2,2.34-.69,5-1.85,7.13-1.33,2.66.64,3.76,3.1,3.89,6.36.23,5.76,1.62,11.45,2.14,17.21.53,5.93.82,11.9.81,17.86,0,6.37-.82,12.75-.69,19.11.17,8,.93,16.08,1.46,24.12.47,7.27.8,14.56,1.5,21.81.86,8.83,2,17.62,3.11,26.43.9,7.43,1.9,14.85,2.76,22.29,1.55,13.4,3,26.82,4.56,40.21q1.74,14.63,3.83,29.22c1.15,8,2.7,16,3.81,24,.92,6.57,1.46,13.19,2.17,19.79,1.3,12.09,1,24.31,4.22,36.24,1.62,6,1.61,12.45,2.56,18.67,1.65,10.77,3.67,21.49,5.13,32.28.91,6.71,1,13.54,1.64,20.29.88,8.94,2,17.86,3,26.8.79,7.22,1.26,14.49,2.36,21.66.83,5.4,1.66,11.07,4,15.83a21.27,21.27,0,0,1,2.57,6.88c.26,2-.22,3.4-2.72,3.41-2.34,0-4.68.41-7,.53-11.37.55-22.73,1.27-34.1,1.5-8.22.17-16.45-.6-24.67-.49-9.28.13-18.55.82-27.83,1.19-3.78.15-7.6-.14-11.36.2-7.53.67-15,1.56-22.54,2.48-6.24.76-12.45,1.7-18.68,2.54-11.47,1.56-22.93,2.85-34.58,2.54-19.48-.52-39-.85-58.47-.66-12.35.12-24.68,1.58-37,2-8.17.25-16.38-.63-24.56-.48-16,.29-32.19,0-48.1,1.67-22.94,2.47-45.89,3.3-68.91,3.83-15.2.35-30.39,1.27-45.58,1.89-13.82.56-27.65,1.18-41.48,1.52-15.24.38-30.48.5-45.72.71-19.6.26-39.22.18-58.81.84-15.77.53-31.63,1.1-47.23,3.24-14.32,2-28.22.48-42.27-1.16a27.12,27.12,0,0,0-5.36-.48c-5.42.47-8.63-3.06-8.51-8.56.1-4.91-.69-9.84-1.12-14.76-.81-9.23-1.82-18.45-2.4-27.7-.64-10.26-.87-20.55-1.34-30.83-.14-3.09-.49-6.16-.74-9.25,0-.37,0-.94-.17-1.08-4.3-2.91-2.55-7.38-2.76-11.22-.46-8.09-.89-16.21-.72-24.31.16-7.8,1.15-15.57,1.65-23.37.29-4.48.42-9,.48-13.48.29-19.06.48-38.11.8-57.17.1-6.07.61-12.14.64-18.21,0-3.44-.67-6.87-.83-10.32-.5-10.66-.9-21.32-1.33-32-.51-12.5-.72-25-1.6-37.48-.71-10-2.28-20-3.35-30-.17-1.54.45-3.15.42-4.73-.2-11.78-.28-23.56-.77-35.33C31.15,93,30.1,78.43,29.41,63.88c-.22-4.61.39-9.26.06-13.85a92,92,0,0,0-2.14-13.78c-1-4.61-1.09-4.93,3.5-6.35A98.5,98.5,0,0,1,40.33,27c3.26-.66,6.63-.75,10-1.09Zm651.36,7.28c-5.72.22-10.06.19-14.35.62-2.67.27-5.67-.17-7.66,2.69-.59.84-2.36,1.09-3.62,1.19-9,.72-18.13.57-27,2.16-12.95,2.32-25.91,2-38.88,1.88-12.07-.15-24.13-1.1-36.2-1.29-8.81-.14-17.63.68-26.44.53-11.83-.19-23.65-1-35.48-1.35-3.26-.11-6.55.5-9.81.37-14.29-.55-28.57-1.24-42.85-1.9-11.24-.52-22.52-.63-33.71-1.71-16.14-1.56-32.19-4.19-48.34-5.69-13.82-1.28-27.72-1.81-41.6-2.31-14-.5-28.1-.7-42.15-.75-11.21,0-22.43.34-33.65.59-10.23.23-20.46.54-30.7.82-.75,0-1.5.06-2.25.1-7.9.45-15.79,1.08-23.7,1.27-5.17.12-10.34-.56-15.52-.6-14.51-.11-29,0-43.52-.13-7.61-.06-15.22-.57-22.82-.57-6.47,0-13,.32-19.42.68-7.77.43-15.52,1.08-23.29,1.58C67,32.23,55.29,32.93,43.56,33.7a19,19,0,0,0-5.81.91c-1.58.64-3.39,1.2-2.46,4.31,1.29,4.31,1.52,9,1.69,13.57.42,11.87.43,23.75.87,35.61.24,6.48,1.11,12.93,1.54,19.41.48,7.33,1,14.66,1.11,22,.12,7-.77,14.11-.28,21.1.73,10.26,2.62,20.44,3.43,30.7.9,11.38,1.15,22.8,1.65,34.21.52,11.91,1.4,23.81,1.42,35.72,0,23.48-.38,47-.69,70.45-.12,8.65-.47,17.3-.73,25.94,0,1.12-.11,2.24-.18,3.36-.46,7.31-.87,14.62-1.42,21.93-.42,5.63,1.54,10.91,2.16,16.33,1.16,10.26,1.49,20.64,1.62,31,.18,14.58.61,29.1,3,43.52,1.48,8.84,2.44,17.78,3.69,27.16,10.81.88,21,2.35,31.24,2.36,10.51,0,21-1.43,31.52-2.22,6.13-.46,12.26-.84,18.38-1.37,4.5-.39,9-1.18,13.48-1.38,9.15-.41,18.31-.64,27.46-.78q29.85-.47,59.71-.77c10.66-.11,21.32.14,32-.25,8.05-.29,16.06-1.58,24.11-2,9.83-.51,19.68-.47,29.52-.85,7.92-.31,15.83-1,23.75-1.32,11-.42,22.07-.38,33.08-1,12.27-.69,24.49-2.18,36.75-2.79,15.82-.78,31.67-1.1,47.5-1.48,7.45-.18,14.91.09,22.36-.1,17-.43,34-1.21,50.93-1.47,19.75-.31,39.51,0,59.26-.43,7.49-.17,15-1.6,22.43-2.65,7.88-1.11,15.7-3,23.61-3.59,11.74-1,23.54-1.29,35.32-1.61q33.78-.9,67.56-1.42c3-.05,3.64-1.23,3.28-3.93-.55-4.07-.82-8.17-1.26-12.25-1-8.9-2-17.79-2.92-26.69-1.05-9.82-2-19.65-3.14-29.46q-2-17.23-4.42-34.42c-1.28-9.16-2.91-18.27-4.28-27.41-1.15-7.68-2.29-15.37-3.16-23.09-.73-6.4-.9-12.86-1.61-19.26-.82-7.44-1.94-14.84-2.94-22.26-.76-5.6-1.41-11.23-2.36-16.8-.78-4.58-2.19-9.06-2.83-13.65-1.23-8.79-2.15-17.63-3.13-26.46-1.27-11.45-2.47-22.9-3.69-34.35-.68-6.39-.95-12.85-2.13-19.15a203.37,203.37,0,0,1-3.89-34.32c-.05-3.32,0-6.65-.23-10-.61-9-1.64-18-1.93-27-.23-7.21.46-14.44.63-21.67a86,86,0,0,0-.25-9.9C703.25,46.68,702.38,39.66,701.68,33.29Z" transform="translate(-26.74 -20.3)"/><path d="M169.16,400.92c.86-7.33,1.63-13.58,2.31-19.84.23-2.16.29-4.34,3.07-4.78,2.94-.47,4.82,1.25,5.87,3.56,2.94,6.43,5.53,13,8.46,19.46.84,1.85,2.65,3.25,3.55,5.08a14,14,0,0,1,1.23,5.36c0,.29-2.46,1.25-3.5.94-1.79-.53-4.08-1.41-4.9-2.86-2.4-4.23-4.18-8.82-6.21-13.26l-1.11.14c-.22,2.06-.39,4.13-.68,6.18-.35,2.43-1,4.83-1.19,7.27-.19,2,.2,4.24-2.5,4.7-3,.5-5-1-6.6-3.49-4-6.07-8.14-12-12.23-18l-1.11.2a20.13,20.13,0,0,0-.86,3.86c-.11,4.18.14,8.38-.15,12.54-.12,1.66-.88,3.88-2.11,4.69a4.85,4.85,0,0,1-4.72-.58c-1.31-1.46-2.73-4.32-2.12-5.73,2.47-5.73,1.73-11.72,2.25-17.58.24-2.68-.42-5.43-.31-8.14,0-1,1-2.49,1.79-2.65,1.33-.28,3.4-.21,4.18.63,3.11,3.32,5.89,7,8.7,10.55S165.74,396.4,169.16,400.92Z" transform="translate(-26.74 -20.3)"/><path d="M452.56,390.61c3.07,1.43,6.23,2.41,8.77,4.25a17.21,17.21,0,0,1,5.17,6.33c1.24,2.61-.36,4.66-2.94,6s-3.8,0-5.18-1.88c-3.79-5.21-9.17-7.2-15.44-7.23-1,0-1.91-.18-3.46-.34.75,1.74,1.41,3.22,2,4.72a5.72,5.72,0,0,1-2.53,7.27c-2.25,1.16-4.83.12-5.16-2.38-1.05-8.09-2-16.19-2.79-24.31a106.08,106.08,0,0,1-.21-11.94c0-.7,1.12-2,1.52-2,4.39.77,9.18.91,13,2.87C453.61,376.18,455.07,380.82,452.56,390.61Zm-14.67-1.28a40,40,0,0,0,5.66-2.69c1.14-.79,2.88-2.63,2.62-3.18a10.61,10.61,0,0,0-3.8-4.21c-1-.65-2.76-.33-4.15-.23-.28,0-.72,1-.7,1.52C437.56,383.44,437.74,386.32,437.88,389.33Z" transform="translate(-26.74 -20.3)"/><path d="M94.48,408.5c2.81-.93,5.13-1.57,7.35-2.47,3.9-1.58,8.31.37,8.82,4,.47,3.36-1,5.12-4.4,5.27q-8.22.34-16.45.73a8.86,8.86,0,0,0-2.22.28c-4.52,1.42-6,.8-8-3.33-1.18-2.47.49-4.79,3.43-7.16,5.34-4.3,10.23-9.27,12.06-16.14.46-1.72-.48-5-1.79-5.73a14.19,14.19,0,0,0-8-1.21c-1.59.19-3.15,2.09-4.39,3.51-1.73,2-3.4,3.85-6.13,1.92-2.45-1.74-3.09-4-1.19-6.67,4.86-6.79,10.92-9.71,18.08-7.8,6.4,1.71,14.06,10.13,11.15,18.75C100.94,397.78,97.58,402.59,94.48,408.5Z" transform="translate(-26.74 -20.3)"/><path d="M525.87,309.46l11.53-8.31c.66-.47,1.3-1.2,2-1.31,2.43-.37,5.58,2.39,5.93,6,.14,1.45-1.53,3.27-2.73,4.61-.83.92-2.26,1.3-4.51,2.51,7.5.25,12.73,2.83,16.75,7.68A16.51,16.51,0,0,1,557,324c1.09,2.28,1.54,5.06-1,6.19s-5.42.22-7.2-2.41c-4.61-6.79-8-8.05-16.37-6.22a15.6,15.6,0,0,1-3.78-.16c.72,1.51,1.28,2.81,2,4.05,1.22,2.24,1.08,4.43-.81,6-.83.71-2.84,1.19-3.54.69-1.76-1.25-4.05-2.93-4.42-4.78-1.64-8.27-2.65-16.67-4-25-.21-1.3-1.14-2.48-1.36-3.79-.37-2.23-.22-4.35,2.85-4.53,2.64-.16,3.73,1,4.05,3.7C523.77,301.32,524.83,304.78,525.87,309.46Z" transform="translate(-26.74 -20.3)"/><path d="M113.42,47.33c4.67,0,7,1.15,8.61,4.17,1,1.76,3,2.95,4.63,4.31,5.38,4.5,10.76,9,16.19,13.41,1.71,1.4,3.63,2.54,5.38,3.88,3.05,2.34,3.66,5.42,1.25,7.71-2.67,2.54-4.85.75-6.92-1.26-5.42-5.27-10.78-10.61-16.41-15.64-1.51-1.34-3.94-1.65-5.94-2.42-.45-.17-1.13-.18-1.33-.49-2.82-4.45-5.63-3.3-8.29.06-6.26,7.9-12.41,15.88-18.69,23.75-1,1.19-2.58,2.94-3.57,2.75a5.88,5.88,0,0,1-3.77-3.27c-.58-1.57-.58-4.14.36-5.34C89.72,72.85,94.84,67,100,61.2c3.11-3.52,6.46-6.83,9.73-10.2C111.15,49.52,112.65,48.09,113.42,47.33Z" transform="translate(-26.74 -20.3)"/><path d="M303.71,398.26c3.3,2.52,7.27,3.25,11.36,3.4,2,.07,3.94-.62,5.9-.58,1.26,0,3.1.41,3.61,1.27a6.23,6.23,0,0,1,.51,4.53c-.78,2.54-5.6,5.21-8.21,4.56A128.09,128.09,0,0,1,302,407c-2-.76-3.65-2.75-5-4.52a20.77,20.77,0,0,1-3.46-6.35c-.8-2.6-2.59-5.79,1.73-7.46a4.82,4.82,0,0,0,2.09-2.1c3.09-5.4,7.74-7.15,13.8-6.73,5.9.41,12,5.49,12.82,11.32.53,3.94-2.31,6.24-6.42,5.92-4.53-.36-9.11-.08-13.67-.08Z" transform="translate(-26.74 -20.3)"/><path d="M301.4,326.17c.93.63,1.87,1.81,2.8,1.81,4.1,0,7.88,2.59,12.33.78,2.92-1.19,3.87,2.22,4.9,4.28s.25,3.64-2.06,4.15a13.28,13.28,0,0,1-4.71.61c-4.84-.76-9.77-1.41-14.41-2.91-5.33-1.72-8.94-10.51-7.06-15.74,3.14-8.73,8.12-12.69,17.16-12.4,4.78.15,8.23,3.49,10.74,7.53a14.75,14.75,0,0,1,1.69,3.26c.49,1.57,1.49,4,.84,4.69a9.11,9.11,0,0,1-5.39,2.19c-5.49.48-11,.55-16.54.79Z" transform="translate(-26.74 -20.3)"/><path d="M362.51,308.15c2,.56,3.29.67,4.31,1.26,3,1.74,6,3.6,8.91,5.54.88.59,2,1.52,2.14,2.4.63,5.7,4.89,7.59,9.35,9.27a5.88,5.88,0,0,1,2.41,9.39c-1.48,1.74-3.09,2-4.74.72-3.18-2.46-6.14-5.21-9.36-7.61a3.22,3.22,0,0,0-3.06,0c-6.54,5.69-13.61,4.82-20.85,1.9-2.28-.92-5-6.76-4.2-9.78.9-3.62,1.63-7.56,5.92-9.18C356.61,310.8,359.77,309.32,362.51,308.15Zm5.64,12.92c-3.91-5.41-8.65-3.13-11.84.29-1.48,1.58-.91,2.61,1,3C361.58,325.32,365.38,324.84,368.16,321.06Z" transform="translate(-26.74 -20.3)"/><path d="M383,397.45c-2.89,2-5.51,3.65-7.86,5.59-3.24,2.67-6.5,3.29-10.21,1.12a11,11,0,0,1-5.86-10.4c.45-9.6,8.2-14.41,16.11-13.53,5.3.59,10.73,2.08,12.48,9.22.9,3.69,4.8,6.65,7.37,9.93,1.32,1.69,3.16,3.18,3.86,5.1a5.36,5.36,0,0,1-1,4.74,5.79,5.79,0,0,1-4.86.91c-4.65-1.45-6.53-5.74-8.68-9.62C383.82,399.69,383.53,398.79,383,397.45Zm-5.83-6.23c-2-1.57-3.75-3.55-4.4-3.25a19.78,19.78,0,0,0-5.92,4.46,3.68,3.68,0,0,0,0,3.56c.44.62,2.52.77,3.38.28A74.67,74.67,0,0,0,377.14,391.22Z" transform="translate(-26.74 -20.3)"/><path d="M560.18,394.18c2.63,3.54,8.55,5,12.26,3.69,4.5-1.58,7.18-.52,7.73,3.05.5,3.26-1.54,6.14-4.88,6a106.66,106.66,0,0,1-14.77-1.64c-3.57-.67-7.05-6.34-7.38-10.18-.59-7,1.49-12.72,7.41-16.7,5.44-3.66,16.22-1.23,19.27,4,1.5,2.58,1.72,5.41-.1,7.12a18.88,18.88,0,0,1-8.35,4.52C568,394.77,564.41,394.18,560.18,394.18Z" transform="translate(-26.74 -20.3)"/><path d="M260.51,398.79c1,2.55,1.84,4.62,2.65,6.69s0,3.84-1.69,4.11a8.58,8.58,0,0,1-5.71-1.27c-1.06-.73-1.21-2.92-1.58-4.5-.64-2.75-1.05-5.56-1.7-8.31-1.61-6.81-3.43-13.58-4.83-20.44-.23-1.14,1.16-3.7,1.91-3.74,1.57-.08,4.21.68,4.63,1.78,1.21,3.13,1.54,6.6,2.21,9.94.16.81.28,1.63.56,3.34,2.67-1.74,4.86-3.17,7.05-4.59s4.35-3.33,7.42-1.73a5.6,5.6,0,0,1,3.16,6.06c-.21,1.18-2.73,2.08-4.33,2.84a28.69,28.69,0,0,1-4.38,1.29l.07,1.39c3.94,1.63,7.83,3.42,11.85,4.83,3.7,1.3,6.11,4.14,5.44,7.67a4,4,0,0,1-2.79,2.36,8.78,8.78,0,0,1-5.08-.72c-4.26-2.31-8.27-5.07-12.48-7.46C262.27,398,261.06,398.67,260.51,398.79Z" transform="translate(-26.74 -20.3)"/><path d="M675,391.64c-3.64,2-6.8,4.33-10.35,5.42a9.15,9.15,0,0,1-11-5.06c-1.74-3.76-.9-7.89,1.39-11.28,4.1-6.06,14.44-9.41,20.92-6.45,1.67.76,2.36,3.89,3.29,6,1.3,3,2.06,6.21,3.74,8.91.67,1.07,3.41,1.74,4.8,1.3,2.72-.85,4.91.08,5.64,2a11.15,11.15,0,0,1-.17,7.08c-.27.78-3.42.92-5.21.75A16.19,16.19,0,0,1,675,391.64Zm-4.62-9.05c-6.28-.93-9,.77-10.18,6.26C665.39,389.2,668.76,387.21,670.42,382.59Z" transform="translate(-26.74 -20.3)"/><path d="M80.59,309.43c-1.73,1.49-3.41,3-5.2,4.45-2.14,1.67-4.52,2.64-6.41-.16a6,6,0,0,1,1.66-8.79c1.76-1.09,3.63-2,5.33-3.2,6.06-4.2,6.19-4.37,11.33.83a8.38,8.38,0,0,1,1.94,5.91c-.49,6.14-.36,12,2.34,17.77.94,2,1.67,2.2,3.72,2.16a6,6,0,0,1,4.48,2.68c.9,1.65,1.3,4.32.54,5.87-.58,1.18-3.77,2.28-5,1.71-6-2.73-11.71-.27-17.56.16a5.64,5.64,0,0,1-4.54-2.3c-.69-1.35-.21-3.71.56-5.22.39-.76,2.56-.84,3.92-.83,2.95,0,4.85.12,4.24-4.21-.77-5.4-.19-11-.19-16.51Z" transform="translate(-26.74 -20.3)"/><path d="M417,295.07c8.3.71,14,5,18.67,10.8,2.46,3.06,2,7.07-1.29,9.17a39.52,39.52,0,0,1-10.21,4.76c-2.76.8-2.64,1.69-1.77,3.87a22.86,22.86,0,0,1,1.51,6.46c.22,2.6-1.6,3.5-3.9,3.23s-4.52-1-5-3.9c-1-5.79-2.07-11.58-3.23-17.34a6.42,6.42,0,0,0-1.47-2.54c-2.94-3.6-3.23-8.42.08-11.62C412,296.38,414.73,296,417,295.07Zm11.59,13.09a82.1,82.1,0,0,0-8.62-3.88c-.9-.29-3.27,1.05-3.22,1.25.42,1.81.79,4,2,5.14,1,.86,3.23.69,4.78.34S426.26,309.53,428.57,308.16Z" transform="translate(-26.74 -20.3)"/><path d="M443.44,320.16c.25-5,4.42-7.86,9.13-10,3.39-1.51,6.77-.33,9.3,2.17a22.22,22.22,0,0,1,4,6c2.54,5.14,5.11,6.51,10.77,6.17a6.31,6.31,0,0,1,4.86,2,7,7,0,0,1,.84,5.62c-1.15,3-4.5,2.86-6.82,2.1-4.1-1.35-7.89-3.62-11.89-5.32a3.32,3.32,0,0,0-2.8.44c-3.69,2.89-7.54,2.95-11.7,1.22S443.54,325.4,443.44,320.16Z" transform="translate(-26.74 -20.3)"/><path d="M487.34,395.66c2.78,3.4,8.89,5.26,12.2,3.91,2.43-1,4.37-1.3,5.4,1.6.92,2.61-1.22,7.52-3.36,7.19-5.78-.88-12-1.31-17.05-3.94-6.94-3.65-6.42-17,.79-20.7a56.53,56.53,0,0,1,10.57-4.18c3.49-1,6.45,0,8.35,3.64s2.57,8.89.49,10.77a7.31,7.31,0,0,1-4.25,1.63C496.33,395.79,492.18,395.66,487.34,395.66Z" transform="translate(-26.74 -20.3)"/><path d="M206.85,397.93c-.37-3.64,5-10.32,8.81-11.91.45-.19.92-.35,1.38-.51,7.51-2.63,7.83-2.27,10.2,5.73a65.47,65.47,0,0,0,5.24,12c.6,1.12,2.67,1.45,4.07,2.15,1.6.79,3.74,1.19,4.64,2.47s1.23,4.31.48,4.91c-1.37,1.09-4.19,1.87-5.57,1.16-3.64-1.89-6.8-4.7-10.23-7a5,5,0,0,0-2.9-.75,12.34,12.34,0,0,0-3.13,1C212.72,409.74,207,405.67,206.85,397.93Z" transform="translate(-26.74 -20.3)"/><path d="M105.63,337.29c2.24-6.09-.34-12.68-1.88-19.13-1.18-4.93-.77-10.64-5-14.6-1.79-1.67-3.6-3.33-5.33-5.06a7.2,7.2,0,0,1-1.56-2.22c-.78-1.87-2.18-4.3.41-5.39,1.49-.63,4,0,5.57.9,8,4.88,10.38,13.33,12.75,21.58,2.1,7.29,3.76,14.72,5.46,22.12.4,1.73.88,4,.1,5.32-1.21,2-3.3,4.55-5.31,4.84C107.7,346.11,105.45,342.2,105.63,337.29Z" transform="translate(-26.74 -20.3)"/><path d="M533.56,402.55c-3.42-4.56-7.55-6.12-11.65-7.77-7.15-2.86-7.95-9.31-1.9-14.22,3.06-2.49,6.23-3.22,9.94-1.65,2.46,1,3.38,2.81,2.85,5.31-.49,2.32-2.26,2.67-4.3,2.56a27,27,0,0,0-3.24.25c4.35,2.72,8.17,5.2,12.08,7.52,3.52,2.08,5.81,5.09,5.11,9.1s-3.9,6.6-7.75,7.57a26.44,26.44,0,0,1-8.33.3c-3-.23-5.64-4-4.59-6.51s3.37-2.7,6-2.05C529.36,403.35,531.17,402.76,533.56,402.55Z" transform="translate(-26.74 -20.3)"/><path d="M119.68,426.55c-2.91,0-6.66-5.16-5-7.58,2.8-4.05,1-8.18,1.09-12.18.12-4.84-.81-9.71-1.33-14.57-.77-7.08-2.92-13.59-7.81-19-.66-.73-1.63-1.62-1.62-2.41a35.27,35.27,0,0,1,.92-5.57c1.54.49,3.69.51,4.52,1.56,6.33,8,10.64,17,11.55,27.42.67,7.72,2,15.39,3.19,23.06C125.79,421.19,122.72,426.59,119.68,426.55Z" transform="translate(-26.74 -20.3)"/><path d="M170.33,312.57c7.7-5.47,12.13-4.66,17.66,2.88,2,2.74,4.36,5.33,5.87,8.33a10.67,10.67,0,0,1,.48,6.38c-.15.78-2.92,2-3.72,1.53a14.22,14.22,0,0,1-4.79-4.47c-1.65-2.44-2.55-5.38-4.22-7.8-.59-.85-2.94-1.5-3.68-1-1.23.8-2,2.54-2.62,4-.44,1-.08,2.41-.68,3.16a9.75,9.75,0,0,1-4,3.27c-2.21.75-3.79-.65-4.3-2.92-.76-3.33-1.5-6.67-2.1-10a102.62,102.62,0,0,1-1.66-11.53c-.11-1.77.38-4.28,1.58-5.26,1.39-1.14,4.68,2.11,5,4.8S169.93,309.41,170.33,312.57Z" transform="translate(-26.74 -20.3)"/><path d="M142,324.57c2.2-.31,4.45-1.06,6.58-.81,1.9.23,4.25,1.14,5.28,2.57.69,1,0,3.83-1.1,4.93s-3.33,1.42-5.12,1.68c-1.56.23-3.26-.41-4.8-.13-10.29,1.93-16.14-5.42-13.72-14.71,1.29-4.93,4.14-9.61,7-13.92,1.49-2.24,4.37-3.81,6.94-5s4.45,1.12,5.71,3.05-.53,5.23-3,6.34c-4.16,1.88-7.41,4.44-8.81,9.2S136.39,325.15,142,324.57Z" transform="translate(-26.74 -20.3)"/><path d="M704.92,380.93c.36,4.64,3.41,6.49,6.53,8.13,4.21,2.22,5.7,6.69,2.65,9.06a5,5,0,0,1-4.1.65,55.22,55.22,0,0,1-6.85-3.5c-4.5-2.32-4.47-7.07-5.6-11-.74-2.58-1.28-4.24-4.34-4.41a6.81,6.81,0,0,1-4.15-2.07,5.43,5.43,0,0,1-1.08-3.91c.06-.56,1.9-1,3-1.35a3.89,3.89,0,0,1,1.49,0c3.4.24,6,.12,4.71-4.75-.52-2,0-5.13,3.69-5,2.62.09,4.18,2.62,3.69,6-.09.59-.26,1.17-.45,2,4.07-.25,6.32,2.22,6.65,5.52S708.12,380.68,704.92,380.93Z" transform="translate(-26.74 -20.3)"/><path d="M596.13,376.3c4.41-2.58,9.82-4.64,16-3a4,4,0,0,1,2.27,1.11c1.14,1.75,2,3.68,3,5.54-2.1.66-4.2,1.84-6.31,1.85-3.24,0-6.71-1.66-9.24,1.63a9.77,9.77,0,0,0-.68,11.92,10.77,10.77,0,0,1,1.26,3.08c.55,2.34,1,4.87-1.72,6.18-1.91.91-5.83-1.25-6.52-3.57-1.5-5-2.82-10.12-4.17-15.19-.57-2.13-1.44-4.29-1.42-6.43s1-4,1.59-6.05Z" transform="translate(-26.74 -20.3)"/><path d="M257.43,214.88c-2.66,5.22-4.88,9.52-7,13.85-1,2-1.33,4.51-2.81,5.85-1.19,1.08-3.67.74-5.57,1-.33-2.19-1.6-4.79-.84-6.5,3.07-6.91,6.75-13.54,10.22-20.27,1.19-2.32,7.21-3.24,9.06-1.43,4.21,4.12,8.5,8.15,12.61,12.37,1.93,2,5,4,2.49,7.35-1.53,2.07-5,1.24-8.06-1.79S261.5,219.11,257.43,214.88Z" transform="translate(-26.74 -20.3)"/><path d="M510.32,313.73c0,3.54-2,5.05-5.13,4.41-2.21-.46-6.12-.91-6.58,0-1,2-.51,4.92-.35,7.44A13.25,13.25,0,0,0,499.5,329c1,2.77-.13,5.22-2.61,5.57-1.84.26-5.22-1.09-5.78-2.54a198.5,198.5,0,0,1-6.21-20.18,7,7,0,0,1,.85-4.92c.42-.7,3.14-1,3.73-.46,3.64,3.62,7.92,2.37,11.91,1.66C507.05,307.12,510.34,308.91,510.32,313.73Z" transform="translate(-26.74 -20.3)"/><path d="M214,309.34c7.52.77,10.81,3.15,12.9,9.95,1.66,5.4-2.82,11.53-9.18,12.54s-9.52-.24-12.32-5.07c-2.41-4.16-2.29-11.29,1.11-14.57C208.25,310.49,211.43,310.25,214,309.34Zm-4.28,11.84c2.16,1.6,3.42,3.19,4.25,3,1.52-.35,2.78-1.77,4.16-2.75-1.31-1-2.5-2.46-4-2.85C213.26,318.35,211.94,319.79,209.69,321.18Z" transform="translate(-26.74 -20.3)"/><path d="M243.08,331.15c-9.1,0-10.62-3.12-10.67-10.77,0-5.1,4-10.71,7.52-10.76,9.76-.15,15.21,3.56,14.92,10.43C254.62,325.67,250.54,332.57,243.08,331.15Zm2.84-11.57c-5.19-1.22-6.13-.62-5.5,3.41C242.36,322.1,245.57,323.67,245.92,319.58Z" transform="translate(-26.74 -20.3)"/><path d="M340.62,216.9c-1.67,3.53-3.49,7.53-5.43,11.47-1.19,2.42-3.58,4-5.74,2.56-1.34-.87-2.28-4.21-1.69-5.81,1.6-4.31,4.11-8.29,6.26-12.4.17-.33.39-.64.53-1,.6-1.43.85-3.73,1.84-4.12a11.3,11.3,0,0,1,6.57-.47,6.25,6.25,0,0,1,3.68,3.69c1.7,5.51,6.26,8.13,10.48,11,2.4,1.65,3.9,3.54,2.89,6.24-.87,2.33-4.55,2.27-7.31-.13C348.55,224.38,344.6,220.57,340.62,216.9Z" transform="translate(-26.74 -20.3)"/><path d="M177.93,216.8c-2.16,4-4,7.36-5.71,10.72-1.37,2.64-4.6,4.24-6.32,2.66-1.88-1.73-2.76-4.2-1.16-6.69,3-4.66,6.11-9.26,9.25-13.83,1.89-2.75,4.54-2.66,7.21-.56,4.77,3.76,9.67,7.39,14.76,10.69,2.44,1.58,3.87,3.75,2.84,5.95a4.42,4.42,0,0,1-6.7,1.72c-2.46-1.59-4.7-3.52-7-5.3C183,220.56,180.81,219,177.93,216.8Z" transform="translate(-26.74 -20.3)"/><path d="M420.22,227.56c-1.67-4.63-1-7.44,1.31-10.53s3.79-7,5.3-10.73,2.14-4.2,5.2-1.88c4.34,3.3,8.47,6.89,12.65,10.4,2,1.66,4.39,3.13,5.64,5.25,1,1.63,1.24,4.61.36,6.17-1.22,2.17-4.52,1.27-6.49-1-3-3.36-6.15-6.55-9.23-9.83-1.43-1.52-2.59-1.61-3.68.41-1.63,3-3,6.28-5.2,8.9C424.88,226.22,422.38,226.59,420.22,227.56Z" transform="translate(-26.74 -20.3)"/><path d="M91.59,218.36c-2.12,2.81-3.9,5.09-5.58,7.42-.85,1.18-1.48,2.52-2.32,3.71-1.47,2.07-3.52,3.21-5.87,1.87-2.08-1.19-2.28-5.47-.66-7.44,2.81-3.39,5.68-6.74,8.46-10.15,3.44-4.22,7.23-4.41,11.4-1,4,3.3,8.48,6,12.39,9.42,1.31,1.14,2.55,4.08,2,5.32-1.17,2.47-3.93,2.8-6.4,1.18-1.44-.95-2.72-2.14-4.09-3.2C98,223.27,95,221,91.59,218.36Z" transform="translate(-26.74 -20.3)"/><path d="M639.41,389.57c-.15-2.4-.3-4.8-.44-7.21a20.23,20.23,0,0,1-.1-3.73c.35-2.59,1.9-4.1,4.57-3.86,2.37.21,3.91,1.66,3.63,4.14-.61,5.36-1.42,10.7-2.19,16a26.94,26.94,0,0,1-.87,4c-.49,1.63-.36,4.11-2.89,3.84-1.75-.18-4.05-.84-5-2.11a76.89,76.89,0,0,1-6.27-10.74,57.68,57.68,0,0,1-4.17-10.05c-.38-1.34.41-3.89,1.49-4.58,2.17-1.38,3.6.48,4.44,2.47a9.82,9.82,0,0,1,1.08,3.45c0,4.05,2.35,6.52,5.23,8.69Z" transform="translate(-26.74 -20.3)"/><path d="M274.57,326.06a21.69,21.69,0,0,0-4-1.68c-7.48-1.57-10.75-6.52-8.14-12.56,1.4-3.25,8.69-5.78,11.09-3.54a6.84,6.84,0,0,1,2.07,5c-.11,1-2.56,1.8-4,2.59a5.28,5.28,0,0,0-2,1,14.51,14.51,0,0,1,2,.76c3,1.61,6.26,2.83,8.7,5,2.6,2.32,1.64,8.37-1,10.78-4,3.59-6.65,3.78-10,.73-2.76-2.5-2.89-6.34,0-7.59,1.32-.58,3.17.05,4.78.14Z" transform="translate(-26.74 -20.3)"/><path d="M151.41,109.35l-4.87-2.14c-5.71-2.5-11.48-4.85-17.09-7.54-4.09-2-9-3.19-10.36-8.46a6.12,6.12,0,0,1,.66-4.33c.35-.56,2.91-.6,3.59.05,8,7.66,19,9.09,28.48,13.5,2.77,1.28,4.15,5.26,2.31,7.72C153.69,108.74,152.61,108.85,151.41,109.35Z" transform="translate(-26.74 -20.3)"/><path d="M87.93,114.22a35.21,35.21,0,0,1,2.2-4c5-6.69,10.3-13.22,15.1-20.07,1.37-2,2.37-3.09,4.57-2.06,2.38,1.11,3.64,4.59,2.3,6.53-3.86,5.62-7.86,11.13-11.78,16.7-1,1.4-2.24,2.76-2.74,4.34-.84,2.65-3.1,3.92-5,3.3S89.48,115.89,87.93,114.22Z" transform="translate(-26.74 -20.3)"/><path d="M351.87,192.69c0-4,1.59-5.05,5.26-4.36,5.33,1,10.76,1.52,16.09,2.55a62.94,62.94,0,0,1,10.21,2.94,3.83,3.83,0,0,1,2,3.07,4.42,4.42,0,0,1-2.46,2.78,14.72,14.72,0,0,1-12.54.09c-4.34-1.82-9.3-2.33-14-2.94C353.33,196.43,352.42,194.71,351.87,192.69Z" transform="translate(-26.74 -20.3)"/><path d="M259.33,189.63c-.12,4.68-3.23,5.33-5.62,6.22-7,2.61-14,5.08-21.16,7.3-1.1.34-3-.56-4-1.5-2.78-2.72-1.52-6.23,2.18-7.28,5.55-1.58,11.06-3.35,16.52-5.2,1.35-.46,2.4-1.81,3.75-2.3s3.22-1,4.49-.52C257,186.9,258.08,188.49,259.33,189.63Z" transform="translate(-26.74 -20.3)"/><path d="M294.83,204.12c-3.45-1.26-6-2.32-8.7-3.13-4.92-1.5-10-2.67-14.8-4.38a7.31,7.31,0,0,1-3.8-3.69c-.46-1.06.47-2.88,1.12-4.19a2.46,2.46,0,0,1,2.17-.93q12.74,3.56,25.4,7.38c2.42.73,4.69,2.44,3.52,5.07C299,202,296.45,202.92,294.83,204.12Z" transform="translate(-26.74 -20.3)"/><path d="M272.52,98.76c-1-3.9.69-6.22,3-9.21,4.75-6,8.42-12.93,12.33-19.59,1.24-2.11,2.52-4.14,5-2.89a4,4,0,0,1,1.78,6c-2.67,4.52-5.44,9-8.15,13.48-2.13,3.53-4.12,7.14-6.35,10.6C278.23,100.18,275.41,99.93,272.52,98.76Z" transform="translate(-26.74 -20.3)"/><path d="M207.92,129.38c1.42,2.81,3.43,4.86,3.17,6.58-1.33,9-.45,17.94.38,26.92.24,2.6-.65,5.47-1.63,8-1.2,3.08-3.25,2-4.21-.16a16.9,16.9,0,0,1-.92-6c-.35-7.46-.62-14.92-.86-22.38a38.94,38.94,0,0,1,.15-8.27C204.27,132.68,206,131.57,207.92,129.38Z" transform="translate(-26.74 -20.3)"/><path d="M446.87,185.12a18.88,18.88,0,0,1,2.6.9,41.11,41.11,0,0,0,20.3,4.81c1.68,0,3.89,1.5,4.87,3,.68,1,0,3.32-.68,4.76a3.61,3.61,0,0,1-3,1.62c-7.87-1.78-15.72-3.68-23.5-5.84-2.87-.8-4.2-4.56-2.82-7.09A9.52,9.52,0,0,1,446.87,185.12Z" transform="translate(-26.74 -20.3)"/><path d="M128.79,208.11c-2.59-1-4.67-1.42-6.16-2.57-4.64-3.58-10.21-4-15.59-5.08-2.57-.5-4.87-1.2-5.55-4-.29-1.18-.3-2.88.36-3.7a4.18,4.18,0,0,1,3.53-1.21c7.62,1.89,15.19,4,22.74,6.1a5.32,5.32,0,0,1,4.11,6.14C132,205.41,130,206.72,128.79,208.11Z" transform="translate(-26.74 -20.3)"/><path d="M100.56,143.61c-2-1.83-3.92-2.75-4.32-4.12a7,7,0,0,1,1-5c4.11-6.58,8.58-12.93,12.69-19.5,1.3-2.07,2.71-3.49,4.92-2.2s3.21,3.7,1.62,6.28c-3.27,5.34-6.63,10.61-9.9,15.95-.55.9-.62,2.12-1.24,3C104,139.79,102.4,141.46,100.56,143.61Z" transform="translate(-26.74 -20.3)"/><path d="M406.06,197.93c-.08-3.27,1.83-4.07,4-5.2,5.43-2.81,10.62-6.09,16-9,1.55-.82,3.77-1.6,5.21-1.08s2.74,2.61,3,4.19c.35,2.28-1.19,3.8-3.47,4.93-6.27,3.12-12.33,6.67-18.54,9.92-.95.5-2.69.87-3.27.37C407.75,201,407,199.36,406.06,197.93Z" transform="translate(-26.74 -20.3)"/><path d="M280.84,123.06c1.33-4.28,2.31-8.17,3.74-11.89,1.93-5,4.52-9.82,6.2-14.92.85-2.6,2.52-3.26,4-2.14s3,3.89,2.59,5.34c-1.66,5.4-4.21,10.52-6.22,15.82-.64,1.68-.59,3.62-.91,5.43-.39,2.22-.8,4.56-3.7,4.66a15.16,15.16,0,0,1-4.64-.66C281.34,124.57,281.1,123.51,280.84,123.06Z" transform="translate(-26.74 -20.3)"/><path d="M87.65,192.64c-.24,4.09-3.47,3.86-5.34,4.68-5.68,2.48-11.46,4.75-17.27,6.91-1.36.5-3.32.78-4.43.15s-2.45-2.65-2.26-3.84a5.77,5.77,0,0,1,3.11-3.59c6-2.66,12.6-4,17.7-8.7,1-.92,3.75-1.06,5-.34C85.68,188.84,86.51,191,87.65,192.64Z" transform="translate(-26.74 -20.3)"/><path d="M182.28,118.38c-4.54.39-4.69-2.22-5.63-4.34s-.26-2.93,1.56-4.3c2.24-1.69,3.77-4.36,5.43-6.73a55.76,55.76,0,0,0,5.07-8.1c.94-2,1.67-4.51,4.12-3.19,1.84,1,3.14,3.41,4.06,5.47.37.84-.74,2.54-1.5,3.63q-4.73,6.82-9.68,13.48C184.47,116,183,117.5,182.28,118.38Z" transform="translate(-26.74 -20.3)"/><path d="M124.23,117.5c.26-.31.86-1.7,1.69-1.86a7.26,7.26,0,0,1,4.4.49c5.11,2.6,10,5.65,15.14,8.14,2.62,1.26,5.14,2,5.9,5.4.48,2.19.78,4.19-1.5,4.83-1.74.49-4.87.48-5.57-.54-3.56-5.19-9.38-6.21-14.41-8.61C125.95,123.47,124.15,121.55,124.23,117.5Z" transform="translate(-26.74 -20.3)"/><path d="M214.36,197.49a4.46,4.46,0,0,1-5.65,4.32c-6.49-1.37-13-2.75-19.33-4.69-2.27-.69-4.65-2.44-3.66-6,.74-2.7,2.36-3.53,4.45-2.45,6.17,3.22,12.78,3.93,19.54,4.25C212.53,193,214.48,194.27,214.36,197.49Z" transform="translate(-26.74 -20.3)"/><path d="M126.48,173.43c-3.16,0-4.39-1.86-5-4.71-1.66-7.74-3.56-15.42-5.16-23.17-.24-1.19.28-3.36,1.08-3.74a5.33,5.33,0,0,1,4.26.46c3.84,2.22,2,6.55,3.21,9.8,1.71,4.54,2.78,9.34,4.65,13.81C131.31,170.15,130.28,173.42,126.48,173.43Z" transform="translate(-26.74 -20.3)"/><path d="M311.95,199.26c1.27-1.64,1.95-3.31,3.16-3.94,5.2-2.73,10.7-4.93,15.82-7.79,2.81-1.57,4.87-.23,6.69,1,.87.6.88,3,.65,4.54-.38,2.54-2.46,3-4.75,3.74-4.81,1.61-9.31,4.13-14,6.12-1.22.52-3,1.06-3.95.53C314.17,202.68,313.31,200.94,311.95,199.26Z" transform="translate(-26.74 -20.3)"/><path d="M287.84,141.82a10.11,10.11,0,0,1,.35-2.68c3.67-6.67,7.34-13.34,11.14-19.93a5.67,5.67,0,0,1,2.75-2.27c1-.37,2.7-.47,3.28.12a4.11,4.11,0,0,1,1,3.53c-1,2.47-2.69,4.63-3.83,7.05-2,4.19-3.71,8.5-5.62,12.73-.72,1.59-1.36,3.45-2.62,4.47-1,.83-3.33,1.25-4.32.64C288.77,144.71,288.32,142.7,287.84,141.82Z" transform="translate(-26.74 -20.3)"/><path d="M182.31,140.25c.65-1.56.83-2.79,1.53-3.5,5-5.08,8-11.29,10.31-17.89.81-2.29,2.56-2.12,4.27-1.35,1.94.88,3.92,2.09,2.84,4.67s-2.57,5.18-3.95,7.73c-2.11,3.92-4.47,7.72-6.36,11.75-1.06,2.26-2.73,4.16-4.78,3.41C184.49,144.45,183.53,141.88,182.31,140.25Z" transform="translate(-26.74 -20.3)"/><path d="M152.06,208c-5-6.11-4.63-7.35,2.65-11.16,3.59-1.88,7-4.09,10.44-6.26,3.27-2.06,5.74-1.89,7.34.67s.33,5.73-2.69,7.4c-5,2.78-10,5.6-15.08,8.36A18.48,18.48,0,0,1,152.06,208Z" transform="translate(-26.74 -20.3)"/><path d="M307.2,61.53a17.66,17.66,0,0,1,3.18,1.86c5.39,5.39,10.78,10.79,16,16.31a9,9,0,0,1,2.38,4.42,3.73,3.73,0,0,1-1.93,3.12,5.16,5.16,0,0,1-4.28-.76q-8.46-8-16.46-16.47a6.13,6.13,0,0,1-1.45-4.38C304.82,64.27,306.21,63,307.2,61.53Z" transform="translate(-26.74 -20.3)"/><path d="M229,106.77c-1.41,1.88-2.08,3.69-3.06,3.87a6,6,0,0,1-4.13-1.39c-4.63-3.58-9-7.53-13.67-11-3.54-2.64-5-5.75-3.13-8.2,1.52-2,4.33-1.89,6.16-.22,4.3,3.91,8.87,7.53,13.17,11.43A53.72,53.72,0,0,1,229,106.77Z" transform="translate(-26.74 -20.3)"/><path d="M312.79,160.64c-1.44-6.39-3-12.77-4.24-19.19-.27-1.38.09-3.88.87-4.23,1.33-.58,3.81-.44,4.74.48,1.11,1.09,1.24,3.3,1.56,5.07,1.19,6.45,2.11,13,3.48,19.37.53,2.49.22,4.16-1.77,5.73-1.73,1.38-3.12,2.24-4-.66-.64-2.08-1.26-4.16-1.89-6.24Z" transform="translate(-26.74 -20.3)"/><path d="M316.36,113.86c4.67,5,9.21,10,13.85,14.91,1,1,2.54,1.52,3.39,2.61,1,1.33,2.36,3.1,2.22,4.54s-1.65,3.75-3,4.11-3.52-1.11-4.37-2.41c-3.63-5.57-7.57-10.75-13-14.69C311.45,120,311.59,117.22,316.36,113.86Z" transform="translate(-26.74 -20.3)"/><path d="M331.34,116.84c-2-2.16-3.8-4.26-5.78-6.16-4.24-4.07-8.45-8.19-12.93-12-2.29-1.94-2.47-4-1.11-6.07,1.66-2.55,3.52-.79,5,.49,5.7,5.05,11.5,10,16.9,15.38C336.24,111.31,333.88,113.9,331.34,116.84Z" transform="translate(-26.74 -20.3)"/><path d="M231.08,132.69c-1,1.46-1.57,2.91-2.58,3.42-.73.36-2.46-.21-3.11-.93-5.31-5.88-10.54-11.82-15.62-17.9-1.49-1.78-2-4,.65-5.57s4.27.22,5.13,2.08c2.72,5.89,7.87,9.43,12.32,13.69C229.24,128.8,229.95,130.81,231.08,132.69Z" transform="translate(-26.74 -20.3)"/></g></svg>