<svg xmlns="http://www.w3.org/2000/svg" viewBox="0 0 746.18 442.13"><title>TROPPLE</title><g id="ART"><path d="M765.59,434.34c-.46-2.69-1.75-5.25-2-7.94a56.15,56.15,0,0,1,0-10.37c.86-10.94-1.83-21.52-3-32.24-1.41-12.55-3.74-25-5-37.56-1.32-13.5-1.88-27.08-2.68-40.64-.78-13.18-1.42-26.38-2.2-39.56-.3-5-1-10.08-1.15-15.12-.24-7.66-.18-15.33-.19-23,0-.66.55-1.3.68-2a20.72,20.72,0,0,0,.67-4.57c-.13-3.63-.63-7.24-.76-10.87-.28-8.12-.18-16.27-.71-24.37a165.66,165.66,0,0,0-2.56-22.42c-2-9.67-4.52-19.18-4.59-29.16-.05-7.88-.35-15.75-.65-23.62-.17-4.47-.43-9-.87-13.41-.81-8.19-1.78-16.37-2.68-24.55-.69-6.25-1.33-12.5-2.09-18.74-.91-7.41-2-14.79-2.85-22.2-.24-2-.06-4.11-.18-6.17-.15-2.52-3.79-5.06-6.41-5-3.73.05-7.5-.63-11.21-.37-4.87.35-9.68,1.41-14.54,2-2.54.29-5.16,0-6.64,2.81A2.25,2.25,0,0,1,692,26c-5.66-.53-11.3-1.29-17-1.72-4.48-.34-9-.15-13.47-.47-3.22-.23-6.4-1-9.61-1.4a39.34,39.34,0,0,0-6.19-.61c-2.83.06-5.66.74-8.48.71-5.59-.06-11.18-.72-16.76-.59-8.12.19-16.22,1-24.34,1.25-5.12.13-10.26-.55-15.39-.59-3.69,0-7.38.55-11.07.61-7,.12-14.1,0-21.15.09-12.15.17-24.3.28-36.43.71a132.4,132.4,0,0,0-18.65,1.78c-9.08,1.63-18,4.06-27.34,3.91-7.81-.13-15.64-.27-23.45.07-4.52.2-9,1.78-13.51,1.94-8.76.33-17.55.18-26.33.08q-24.27-.27-48.54-.71c-7.64-.14-15.27-.46-22.9-.7-4.2-.13-8.4-.29-12.6-.37-6.19-.12-12.39-.46-18.56-.23-10.63.4-21.24,1.21-31.86,1.75-5.17.26-10.36.1-15.52.51-11.89.94-23.75,2.22-35.63,3.14-6.88.53-13.8.61-20.7.94-9.29.44-18.59.89-27.88,1.41q-11.15.62-22.29,1.44c-12.46.9-24.91,1.88-37.37,2.82-1.71.13-3.42.29-5.13.36-8.46.34-16.95.42-25.39,1-6.73.49-13.42,1.59-20.13,2.42l-.14-.88c-5.22.88-10.43,1.78-15.66,2.65-6.09,1-12.17,2.07-18.27,2.94-3.21.46-4.22,1.67-3.81,5.06a15.38,15.38,0,0,1-.27,2.77c-.28,4.21-1,8.45-.72,12.62.85,12.19,2.18,24.35,3.17,36.54.49,6.05.54,12.14,1,18.2.77,10.44,2.27,20.87,2.41,31.32.17,12.39-.69,24.79-1.27,37.19s-1.71,24.67-1.91,37c-.16,9.66.79,19.34,1.17,29,.54,14.2.85,28.41,1.57,42.6.39,7.75,1.37,15.48,2.15,23.21,1.37,13.55,3.09,27.07,4.11,40.65,1.11,14.82,1.59,29.68,2.34,44.53.25,4.91.68,9.81.66,14.72,0,7-.17,13.91-.65,20.85-.21,3,1.77,8.23,4.5,8.76a170.27,170.27,0,0,0,17.89,2.87c8,.69,16.15.76,24.23,1.07,5.36.21,10.73.53,16.09.51s10.44-.51,15.67-.6c6.79-.11,13.58-.05,20.37,0,2.29,0,4.58.29,6.86.14,6.32-.4,12.62-1.36,18.93-1.36,7.15,0,14.3.84,21.46,1.18,1.72.08,3.48-.64,5.19-.54,10.45.59,20.89,1.36,31.34,2,12.57.75,25.14,1.78,37.73,2,12.36.24,24.73-.28,37.09-.63,3.48-.1,6.95-1.14,10.42-1.14,10.5,0,21,.55,31.51.42,8.66-.11,17.3-1,26-1.32,10.23-.38,20.47-.54,30.71-.73,3.75-.07,7.5.16,11.25.05,6.71-.18,13.41-.67,20.12-.73,6.08-.06,12.17.61,18.24.37,8.66-.34,17.29-1.46,26-1.8,12.05-.47,24.12-.6,36.19-.75,9.31-.11,18.62,0,27.92,0a73.73,73.73,0,0,0,11.35-.49,213.6,213.6,0,0,1,35.58-3.19c16.29.07,32.61-1.54,48.87-1,10.27.33,20.17-1.6,30.25-2.23,6.26-.39,12.4-2.07,18.84-1.72,5.25.28,10.59-.36,15.85-.89,6.85-.69,13.64-1.88,20.5-2.48,4.39-.38,8.9.32,13.26-.19,9.22-1.08,18.52-1.77,27.45-4.81,2.26-.77,5.13.48,7.71.4a10.07,10.07,0,0,0,5.17-1.39C765.54,437.64,765.8,435.59,765.59,434.34ZM372.28,452.73,285,454.29c-1.66-30.7-5-60.61-12.1-90.88,3.55.36,6.38.86,9.21.9,8.36.11,16.75.39,25.09-.07,6.73-.37,13.4-1.79,20.12-2.58a44.57,44.57,0,0,1,7.81-.12c6,.37,12.08,1.17,18.13,1.28,4.1.07,8.22-.77,12.34-1.16,3.59-.34,4.86,1,4.42,4.66-.67,5.46-1.92,10.92-1.95,16.38,0,5.89,1.12,11.79,1.67,17.69.49,5.27,1.35,10.56,1.21,15.82A231.4,231.4,0,0,0,372.24,443C372.49,445.77,372.28,448.64,372.28,452.73Zm241.48-8.32q-8.37.4-16.74.6c-2.16.06-4.33-.19-6.49-.15-10.67.21-21.35.28-32,.79-4.87.23-9.69,1.44-14.55,2.08a111.52,111.52,0,0,1-12.81,1.33c-12.46.18-24.93-.21-37.39.13-14.58.4-29.14,1.46-43.72,2-8,.3-15.93.06-23.89.15-14.11.17-28.22.36-42.33.66-3.25.07-4.68,0-4.52-4.38.29-7.9-.91-15.85-1.36-23.78-.15-2.6.32-5.25.13-7.84-.46-6-1.37-12-1.69-18-.38-7.09-.46-14.21-.41-21.32,0-5.67.86-11.36.65-17-.24-6.4-3.65-8.23-10-7.37-11.32,1.52-22.66,2.46-34.14.93-4.28-.57-8.88.42-13.22,1.28A89.34,89.34,0,0,1,293,355.94c-4.73-.45-9.55,0-14.32-.16a23.07,23.07,0,0,1-5.84-1c-3.68-1.11-5.37.19-5.26,4,.34,12.32,1.53,24.44,5.64,36.22,1.36,3.9,1.29,8.34,1.67,12.55.89,10.06,1.68,20.14,2.46,30.21.21,2.75.11,5.54.4,8.28s.86,5.26,1.47,8.79c-11.36,0-23,.73-34.58-.19-13.18-1.05-26.31-1.91-39.53-2-11.34-.11-22.67-1.27-34-1.76-9.36-.4-18.76-1.38-28,1.14a4.63,4.63,0,0,1-1.07,0c-4.87.12-4.67.09-5.39-4.5-1.19-7.63-2.82-15.19-4-22.82-.81-5.39-1.2-10.85-1.65-16.3q-1.15-13.92-2.13-27.85c-.54-7.84-.95-15.68-1.45-24.06,2.72,0,6,.09,9.3,0,3.63-.13,7.27-.33,10.88-.72,8.24-.88,16.45-2,24.69-2.83s16.56-1.62,24.86-2c6.55-.33,13.14.11,19.71-.11,4.3-.14,8.58-.92,12.88-1.25,2.52-.2,5.07.08,7.59-.14,10.29-.88,20.58-1.8,30.85-2.83,5.75-.58,11.46-1.62,17.22-2,3.25-.23,6.56.4,9.84.64,3,.22,5.91.63,8.87.65,11.16.08,22.32.22,33.47,0,12.31-.26,24.62-.84,36.92-1.4q12.15-.55,24.29-1.43c12.25-.91,24.49-2,36.74-2.93,7.89-.57,15.82-.7,23.7-1.37,7.52-.65,15-1.9,22.51-2.6,4.12-.38,8.31.06,12.44-.24q12.08-.86,24.14-2.14c11.18-1.19,22.28-2.68,33.64-1.56,7.2.71,14.57-.37,21.85-.26,6.43.09,12.85.95,19.29,1s13-.33,19.55-.51c1.42,0,2.84,0,4.49,0l10.77,111.17C623.24,443.83,618.5,444.19,613.76,444.41Zm143.32-14.76c-4.77,1.12-9.3,2.44-13.92,3.22-6.65,1.12-13.36,2-20.07,2.69-9.64,1-19.32,1.7-29,2.71-5.5.58-11,2.35-16.44,2.15-13.08-.48-25.88,1.69-38.78,3a19.59,19.59,0,0,1-2.33-.11c-1.85-11.89-3.87-23.77-5.52-35.7-1.7-12.25-3.25-24.53-4.51-36.84-.87-8.49-1.16-17.05-1.67-25.58-.31-5.18-.47-10.37-.87-15.55a13.52,13.52,0,0,0-1.36-5.75c-.48-.81-2.7-.9-4.09-.77-1.79.17-3.51,1.25-5.28,1.31q-14.85.54-29.71.73c-2.63,0-5.26-.6-7.89-.62-3.31,0-6.62.45-9.92.4-4.33-.06-8.66-.53-13-.6-7.54-.12-15.09-.22-22.62,0-13.14.31-25.88,4.28-39.22,3.71-9.16-.39-18.41,1.23-27.62,2-2.92.24-5.83.73-8.75.86-7.43.32-14.89.3-22.31.79-11,.74-22,1.83-33,2.73-6.49.53-13,1.08-19.49,1.47-9.32.56-18.65,1.25-28,1.42-16.88.31-33.78.36-50.66.32-5.43,0-10.87-1.06-16.28-.89-5.23.17-10.41,1.48-15.65,2-7.26.69-14.56,1.05-21.83,1.62-9.34.73-18.67,1.72-28,2.22-5.76.31-11.56-.29-17.33-.1-6.65.22-13.29.76-19.91,1.34s-13.27,1.29-19.89,2.1c-6,.73-11.88,2-17.86,2.46-6.66.49-13.37.22-20.06.43-1.86.06-4.43,0-5.41,1.09-1.9,2.15-.06,4.35,1.12,6.61a18.2,18.2,0,0,1,1.63,7.29c.61,11.22.76,22.48,1.57,33.68s2.22,22.46,3.36,33.68c.66,6.53,1.28,13.06,1.91,19.5-13.18,3.08-73.69.58-85.53-3.5-.11-9.94.08-20.06-.41-30.15C42,405.72,40.83,394.51,40,383.28c-.23-3.12.08-6.29-.2-9.41-1.3-14.72-2.72-29.43-4.11-44.14-.51-5.39-1.09-10.78-1.57-16.17-.72-8-1.6-15.92-2-23.9-.37-7.24-.06-14.51-.3-21.76-.36-10.87-1.16-21.72-1.33-32.59-.12-7.45.54-14.91.81-22.36.25-7.21.32-14.43.7-21.63.55-10.49,1.93-21,1.78-31.44-.15-10.26-1.8-20.49-2.72-30.74-.49-5.39-.75-10.81-1.25-16.2q-1.06-11.61-2.32-23.2C26.57,81,25.19,72.3,26.2,63.46c.2-1.73,4.09-6.51,5.85-6.79,3.57-.56,7.17-.89,10.73-1.47S50,53.58,53.67,53.14c8.61-1,17.24-2.15,25.89-2.69,7.47-.47,15-.11,22.48-.29,3.87-.09,7.72-.55,11.58-.88,1.16-.1,2.31-.37,3.47-.46,12.12-1,24.24-1.94,36.37-2.79,6.32-.44,12.66-.56,19-1,12.41-.79,24.82-1.72,37.24-2.5,6.25-.39,12.52-.55,18.77-.89q19-1,37.95-2.15c7.33-.43,14.65-1,22-1.38s14.87-.8,22.3-.66c10,.18,20,1,30,1.3,7.53.22,15.07-.11,22.6.09,8.18.22,16.35,1,24.54,1.15,13.16.23,26.37.86,39.47-.06,10.87-.76,21.67-3.4,32.61-2.43,9.72.86,19.16-.9,28.71-1.61,2-.15,4-1.12,6.07-1.5,4.12-.75,8.26-1.83,12.4-1.91,12.85-.25,25.71,0,38.57-.15,4.42-.06,8.82-.91,13.24-1.25,1.92-.15,3.87.09,5.8.09,4.66,0,9.32-.12,14-.05,6.44.09,12.87.53,19.3.41,5.81-.11,11.61-1,17.43-1.16,5-.16,10,.17,14.93.3,2.83.08,5.67.06,8.48.35,2.64.27,5.24,1,7.88,1.28a35.72,35.72,0,0,0,5.64-.21c1.51-.09,3.18-.74,4.5-.3,3.78,1.26,7.52.71,11.35.78,6.87.13,13.72,1.41,20.59,2,2.74.24,5.52-.06,8.29,0,1.68,0,3.4.42,5,.12a6.27,6.27,0,0,0,3.71-2c2.3-3.17,5.88-2,8.79-2.93,1.63-.53,3.64.17,5.34-.25,4.17-1,5.91-.13,6.49,4,1,7.31,2.2,14.61,3,21.95,1.13,10.89,1.82,21.82,2.94,32.71.67,6.53,2.24,13,2.6,19.51.49,8.71-.21,17.49.38,26.18a159.53,159.53,0,0,0,3.3,21.3c2.94,14.23,4.89,28.53,4.37,43.11-.19,5.33.78,10.85-.28,16-1.55,7.51-.49,14.88-.26,22.25.38,12.07,1.73,24.11,2.51,36.17.44,6.85.45,13.73.87,20.59.56,9.31,1.42,18.61,2,27.92.41,6.85.32,13.74.87,20.58.63,7.72,1.71,15.41,2.63,23.11,1,8.27,2.23,16.52,3,24.82,1.14,12.62,1.94,25.27,2.88,37.91C757.14,428.38,757.08,429.21,757.08,429.65Z" transform="translate(-19.47 -20.42)"/><path d="M441.22,310.37c-16.62.66-33.24,1.41-49.86,1.93-7.84.24-15.72-.31-23.55.13-9.12.51-18.2,1.65-27.29,2.61q-13.23,1.4-26.43,3c-7.35.91-14.66,2.09-22,3-4.54.56-9.11.89-13.67,1.24-7.85.6-15.69,1.45-23.55,1.62-6.89.14-13.8-.62-20.7-.77-4.36-.09-8.72.19-13.09.33-.58,0-1.16.22-1.74.24-7.68.25-15.36.61-23,.67-4.35,0-8.7-.6-13.05-.59a26.16,26.16,0,0,0-6.83,1.16,5.36,5.36,0,0,1-6.9-4.14c-.68-3.44-.9-7-1.41-10.45q-2.39-16.31-4.86-32.6c-1.43-9.38-2.93-18.76-4.43-28.13-.65-4.07-1.47-8.12-2-12.21-.21-1.59.28-3.26.25-4.89,0-2.43.28-5.05-.52-7.23-1.76-4.78.21-8.55,5.45-9.07,5.81-.57,11.63-1.19,17.45-1.4,9.3-.34,18.62-.15,27.91-.57,12.71-.58,25.41-1.47,38.1-2.34,9-.62,18.09-.9,27-2.25,14.31-2.17,28.67-.41,42.95-1.42,11.42-.81,22.76-2.69,34.14-4,3.15-.37,6.31-.66,9.48-.8,6.8-.31,13.61-.79,20.4-.64,6,.13,11.89,1.08,17.85,1.55,2.43.19,4.88.11,7.31.08,3.36-.05,6.71-.2,10.07-.29,9.93-.24,19.91.07,29.77-.86,11.23-1.06,22.27,0,33.41.76,10.75.78,21.57.7,32.35,1,2.69.08,5.38.26,8.06.52,2.42.23,4.62,4.4,3.26,7-2.38,4.59-.87,9.09-.16,13.54.88,5.54,2.26,11,3.57,16.47,2.4,10,5,19.94,7.31,30a148.68,148.68,0,0,1,2.53,15.62c.59,5.09.9,10.22,1.06,15.33.12,3.67-1.49,4.63-5.12,4a32.37,32.37,0,0,0-6.74-.18c-8.22.42-16.44,1-24.66,1.41-2.3.12-4.63-.16-6.92,0-4,.32-7.9.8-11.84,1.31a132.73,132.73,0,0,1-30.44.21c-2.94-.3-5.93,0-8.9,0Zm86-13.06c-.08-1.37-.11-3.1-.3-4.82-.59-5.35-.95-10.75-1.92-16-1.76-9.54-4-19-5.85-28.52-1.79-9.3-3.31-18.66-5-28-.6-3.32-2.76-5-6-5.16-2.89-.12-5.8,0-8.69-.06-4.51-.15-9-.21-13.52-.65-8.37-.83-16.71-2.6-25.08-2.72-12.14-.17-24.29.84-36.43,1.23-5.1.16-10.21,0-15.31,0-4,0-7.94.46-11.89.24-6-.34-12-1.34-18.06-1.59a110.48,110.48,0,0,0-13,.65q-13.15,1-26.28,2.17c-10.26.9-20.5,2.13-30.77,2.73-13,.76-26,.73-39,1.58-11.79.78-23.51,2.58-35.3,3.37-10,.68-20.13.5-30.2.83-12.14.4-24.29.66-36.39,1.55-5.3.39-5.46.7-4.75,6.51.55,4.5,1.14,9,1.38,13.52.19,3.56-.71,7.27-.06,10.7,1.56,8.26,4,16.34,5.59,24.59,2,10.68,3.48,21.46,5.12,32.2.41,2.66,1,4.75,4.48,4.24a46.26,46.26,0,0,1,6.4,0c8.87,0,17.74.06,26.6-.19,5.27-.14,10.52-1.14,15.79-1.19,7.34-.07,14.68.37,22,.65,1.61.06,3.24.66,4.83.55,4.79-.31,9.56-.85,14.34-1.28,8.17-.74,16.36-1.36,24.51-2.23,3-.32,6-1.2,8.93-1.82a31,31,0,0,0-5.91-.88c-4.31-.45-8.61-1.26-12.93-1.37-5.85-.16-12.62-6.27-13.17-12-.76-7.92-1.85-15.81-2.73-23.72-.55-4.9-1.15-9.8-1.41-14.72a104.87,104.87,0,0,1,0-13.32,119.57,119.57,0,0,1,2.06-14.53c.19-.94,2-2,3.23-2.22,3.68-.65,7.45-.77,11.15-1.34,6.16-.94,12.28-2.15,18.44-3.09,6.58-1,13.2-1.8,19.79-2.74,3-.43,9.4,3.11,9.86,5.85,1.1,6.58,2.15,13.18,2.86,19.82.93,8.71,1.29,17.48,2.33,26.18.74,6.16,2.29,12.21,3.32,18.34a31.22,31.22,0,0,1,.62,8c-.34,3.56-4.35,6.05-8.93,6.5q-9.48.93-18.92,2.28c-1.41.2-2.72,1.18-4.07,1.79a22,22,0,0,0,6.77,0c8.45-1.1,16.87-2.46,25.34-3.34,7.44-.77,14.93-1.11,22.41-1.48,10.54-.52,21.09-.93,31.64-1.32,9.21-.34,18.43-.64,27.65-.84,13-.28,26-.41,39-.68,5.09-.11,10.19-.31,15.27-.67s10.22-1.14,15.34-1.36c3.49-.15,7,.75,10.5.45C511,299.43,519,298.29,527.26,297.32ZM297.8,234.49l-.36-1.07a24.41,24.41,0,0,0-3.49,0c-4.13.6-8.23,1.62-12.37,1.9-6.67.45-6.88,1.59-6.82,7,0,3.88.55,7.75.62,11.63.06,2.91-.61,5.86-.33,8.73,1,10,2.3,20,3.37,30.07.49,4.58,2.61,6.54,7.24,6.78,2.77.15,5.51,1.09,8.28,1.2a113.55,113.55,0,0,0,15.33-.09c5.19-.51,10.29-1.88,15.44-2.84a52.45,52.45,0,0,0,6.06-1.08,3,3,0,0,0,1.72-2.32c-.15-2.92-.67-5.82-1.06-8.73-1-7.66-2.4-15.3-3-23-.67-8.87-.59-17.79-.94-26.68-.24-6-2.72-8-8.72-7-4.13.68-8.2,1.73-12.32,2.55-2.63.52-5.28.91-7.92,1.36l.14.9c1.72,0,3.45-.07,5.17,0,4.88.25,9.78.35,14.63.9s5.55,4.58,6.15,8.27c1.36,8.33,2.51,16.71,3.61,25.08.65,4.94-1.14,8-5.83,9.7a61.34,61.34,0,0,1-9,2.26,56.35,56.35,0,0,1-25.59-.58,6.69,6.69,0,0,1-4-2.91,30,30,0,0,1-3.21-9.21c-1-7.41-1.32-14.87-4.13-22-1.54-3.9-.18-5.2,4-5a3.17,3.17,0,0,0,1.88-.68c3.6-2.8,7.51-4.59,12.22-4.31A10.5,10.5,0,0,0,297.8,234.49Zm-13,12.08c1.21,7.77,2.2,15.33,3.73,22.77.3,1.46,2.71,3.55,4.13,3.54a181.35,181.35,0,0,0,21.93-1.33c2.22-.29,6.16-.64,5.74-4.83-.61-6.16-1.15-12.35-2.22-18.45-.34-1.94-2-4.84-3.48-5.17a37.85,37.85,0,0,0-13.2-.93C295.93,242.95,290.55,245,284.85,246.57Z" transform="translate(-19.47 -20.42)"/><path d="M51.93,246l-2.46-11.2c3.39-1.34,5.94.05,6.71,3.23,1.7,7,2.86,14.13,6.77,20.47,1.1,1.79.65,4.18-2,5.61-2.91,1.57-3.43-.8-4.12-2.2-1.32-2.69-2.17-5.61-3.33-8.77L47,254.33c.51,1.3,1,2.28,1.28,3.31s1.05,2.54.64,3.32a10,10,0,0,1-3.46,3.46c-.28.18-2-1.31-2.53-2.31a19.53,19.53,0,0,1-1.22-4.37c-1.3-5.22-2.74-10.41-3.79-15.69-.34-1.7.28-3.64.73-5.4.07-.26,2.16-.49,2.43-.11a28.69,28.69,0,0,1,2.83,5.2c.67,1.54.7,4.26,1.65,4.58C47.37,246.93,49.61,246.17,51.93,246Z" transform="translate(-19.47 -20.42)"/><path d="M117,261.18,114.15,249l-11.29,3.57c-.15-4.06-.25-7.32-.4-10.57a18,18,0,0,0-.37-3.82c-.74-2.76-.63-5.14,2.34-6.84,6.36,1.36,4,6.66,4.5,10.75,3.18-.06,4.57-1.13,3.23-4.49-1-2.39-.88-4.77,2.24-5.6,1.95-.52,4.1,2,4.5,4.8.62,4.27,1.35,8.52,2.11,12.77.18,1,.86,1.93,1,2.93.36,2.11,1.23,4.52.55,6.29C122.13,259.95,119.36,260.23,117,261.18Z" transform="translate(-19.47 -20.42)"/><path d="M71.64,264.19c-3-8.61-5.62-15.89-8-23.25-1.26-3.87-.17-5.77,3.64-7.51,5.41-2.47,9.27-1.06,11.76,4.32.2.43.41.85.62,1.27,2.72,5.4,1.85,7.82-3.93,9.84-2.56.9-3.12,1.89-1.66,4.31,1.11,1.85,2.44,4.13,2.2,6C76.06,260.78,73.71,262.08,71.64,264.19Z" transform="translate(-19.47 -20.42)"/><path d="M130.61,239.9c-1.17-.07-2.74.3-3.43-.31-1.13-1-2.43-2.76-2.27-4,.14-1.06,2.12-2.28,3.5-2.71a47.07,47.07,0,0,1,7.84-1.49c2.72-.36,5.06,3.12,4.67,7-.41,4.09-1,8.16-1.45,12.24a6.15,6.15,0,0,0,.25,3.14,4.12,4.12,0,0,1-1.34,5.62c-1.08.75-3.53,1.24-4.11.64a8.15,8.15,0,0,1-2.33-5.13,81.68,81.68,0,0,1,1.26-11.77C133.71,239.84,133.83,239.84,130.61,239.9Z" transform="translate(-19.47 -20.42)"/><path d="M87.19,241.15A47.07,47.07,0,0,1,91.56,247c.13.24-1.91,2.23-3.17,2.55-1.89.49-4.61-2.5-4.27-4.72C84.28,243.81,85.6,243,87.19,241.15Z" transform="translate(-19.47 -20.42)"/><path d="M89.18,250.37c1.61,1.11,3.65,1.88,4.55,3.34.66,1.08.18,3.24-.47,4.59-.29.6-2.82,1-3.35.44C87.82,256.7,87.11,254.1,89.18,250.37Z" transform="translate(-19.47 -20.42)"/><path d="M409.55,350.25c7-.52,14.05-1.33,21.09-1.47s14.27.79,21.38.49c7.92-.33,15.8-1.57,23.7-2.31,4.92-.46,9.95-1.47,14.76-.9s8.08,4.38,9.41,11.39c2.37,12.46,2.92,25,2.92,37.68,0,5.25.57,10.51.57,15.76,0,9.27-.18,18.54-.4,27.8a28.61,28.61,0,0,1-1,5.16c-.66,3.06-3.3,4.26-5.39,2a10.58,10.58,0,0,1-2.84-6.49c0-5.65,1-11.29,1.16-16.94.34-9.95.8-19.92.46-29.85-.36-10.53-1.53-21-2.51-31.54-.16-1.74-.79-4.45-1.92-4.89a19.16,19.16,0,0,0-8.16-1c-6.49.46-12.93,1.64-19.42,2-7,.34-14,.51-21,1.28-4,.43-8.08-1.09-12.13-1.12-6.52-.05-13,.34-19.56.67-3.79.19-5,1.94-4,5.74,2.45,9.78,2,19.83,2.87,29.76.73,8.52,1.8,17,2.65,25.53.35,3.52.41,7.07.79,10.59.55,5.11,1.26,10.21,1.93,15.31.32,2.4-1.68,5.54-3.74,5.78a4.64,4.64,0,0,1-5.18-4.48c-.58-8.44-.93-16.89-1.51-25.33-.59-8.61-1.49-17.21-2-25.82-.3-5.2-.2-10.44-.08-15.65.18-7.82-.46-15.44-4-22.59-1.07-2.15,2-6.22,4.86-6.65a22.25,22.25,0,0,1,3.14,0h3.2Z" transform="translate(-19.47 -20.42)"/><path d="M154.37,360.57c4.34,0,8.3.2,12.23-.06s8-1.14,12-1.48c9.58-.8,19-3.77,28.72-2.41,8.21,1.15,16.22.49,24.35-.66,5.75-.81,11.64-.73,17.47-.79,2.58,0,4.43,3.36,4.28,6.78-.25,5.59-.63,11.19-.53,16.78.29,16,1,32.07,1.11,48.1.06,6.7-.77,13.42-1.25,20.13-.18,2.54-.54,5.19-4,4.91-2.56-.21-4.72-4.15-4.32-6.73,1.13-7.27,2.43-14.54,3-21.86s.44-14.5.28-21.74c-.13-5.63-.84-11.24-1.18-16.87s-.71-11.17-.73-16.75c0-3.41-1.75-4.47-4.62-4.25-5.29.4-10.55,1.27-15.84,1.5-5.94.25-11.9-.19-17.85,0-6.68.23-13.34.81-20,1.31-5.61.42-11.22,1-16.83,1.4-2.67.18-5.36,0-8.72,0,.39,6.6.52,12.95,1.21,19.23.77,7,2,13.86,3.12,20.78s2.37,13.89,3.28,20.88A144.69,144.69,0,0,1,170.78,445c0,1.58-1.51,4.46-2.47,4.52-2.41.15-3.71-1.43-4-4.45-1-10.83-2.72-21.59-3.73-32.41-1.32-14-5.38-27.61-4.72-41.83C156,367.76,155,364.62,154.37,360.57Z" transform="translate(-19.47 -20.42)"/><path d="M236.61,381.55c.79,6.75,1.64,13.49,2.34,20.25.15,1.47-.42,3-.36,4.5.18,4.62.36,9.25.81,13.84.36,3.61-1.42,6.22-4.88,6-3-.16-6.06-.8-9.1-1.1a22.47,22.47,0,0,0-3.43.23c-6.15.36-12.31.65-18.45,1.09-2.6.19-5.18.88-7.78,1-5.78.23-11.57.12-17.34.37-4.86.21-7.12-3.56-6.29-8.42a22.38,22.38,0,0,0,.09-6.36q-2-16.69-4.26-33.35c-.24-1.79-1.52-3.65-1.19-5.26.27-1.36,2.12-3.36,3.35-3.42,12.26-.56,24.53-.77,36.79-1.1,5.22-.14,10.44-.46,15.66-.46a54.06,54.06,0,0,1,8.84.83,7.06,7.06,0,0,1,5.7,7c0,1.42,0,2.85,0,4.27Zm-62.82-2.19a13.59,13.59,0,0,0,0,2.5c1.42,6.4,3,12.77,4.27,19.21a52.63,52.63,0,0,1,1.33,12.23c-.29,6.11.22,7,6.44,6.63.47,0,.95,0,1.42,0,6.85-.26,13.75-.1,20.53-.91,7.55-.9,15-2.69,22.69-2.12a2.94,2.94,0,0,0,2.25-1.81,45.16,45.16,0,0,0,0-8.47c-.82-8.16-1.84-16.29-2.79-24.44-.36-3.12-2.58-5.12-5.52-5-1.34.06-2.67.16-4,.2-13.49.4-27,.77-40.46,1.21C178,378.68,175.91,379.1,173.79,379.36Z" transform="translate(-19.47 -20.42)"/><path d="M362,375.34c.56,3.63,1.34,7.25,1.64,10.9.76,9.14,1.29,18.31,1.93,27.46.11,1.6.31,3.19.49,4.78.45,4.09-1.92,6.43-6,5.66-4.45-.84-8.84-2.67-13.27-2.72-6.47-.08-12.95,1.11-19.43,1.63-3.2.26-6.42.28-9.63.34-5.36.1-10.81-.42-16.07.34-9.51,1.37-11-.9-13.36-7.62-1.59-4.53.13-8.82-.61-13.17-1.41-8.3-2.94-16.58-4-24.91-.36-2.73.32-5.63.81-8.41.11-.63,1.33-1.37,2.13-1.52a63.46,63.46,0,0,1,7.4-.85c9.19-.54,18.39-1.26,27.59-1.4,8.3-.13,16.61.53,24.92.58,2.71,0,5.41-.94,8.14-1.21,1.72-.17,3.64-.89,4.44,2,.75,2.72,2.42,5.19,3.69,7.77Zm-53.8,24c-1.8-4.16-4-7.57-4.68-11.27s-.06-8.08,3.89-10.06c3.3-1.65,7.11-2.27,10.7-3.35-9.23-.2-18.44-.51-27.12,3,1.51,11.45,3,22.58,4.46,33.71.51,3.74,2.1,4.79,5.89,4.37,3-.33,6.08-.62,9.13-.68,5.22-.11,10.55.62,15.64-.19,9.93-1.57,19.73-3.24,29.71-.61,1.85.49,3.35-.24,3.13-2.6a40.53,40.53,0,0,1-.56-5.21c.36-9.9-1.38-19.52-3.87-29a3.44,3.44,0,0,0-2.17-2.2c-4.37-.52-8.77-.86-13.17-1s-8.58,0-13.65,0c3.19,1.5,5.79,2.28,7.86,3.79,4.51,3.28,6.34,7.86,5.66,13.52-.29,2.41-1,5.25,2.9,6,2.78.54,3.88,2.74,3.26,5.37-.69,2.94-3.12,3.07-5.65,2.88a25.9,25.9,0,0,0-6.17,0c-2.77.48-5,0-6.4-2.49s-.65-4.83,1.23-7a16.59,16.59,0,0,0,2.88-4.77c1.81-4.67-.73-8.5-5.65-8.43a80.12,80.12,0,0,0-9.85,1c-2.33.32-4.63,1.42-4.24,4.11a6.62,6.62,0,0,0,3,4.52c2.84,1.32,4.2,3.43,5.33,6.05,1.71,4-.62,7.91-5,8.56-2.62.39-5.17,1.47-7.78,1.63a7,7,0,0,1-4.93-1.6c-.94-1-1.19-3.3-.74-4.7.35-1.08,2.19-1.85,3.51-2.4A15.4,15.4,0,0,1,308.21,399.3Z" transform="translate(-19.47 -20.42)"/><path d="M507.76,171c-.37-3.16-.84-6.33-1.48-9.44-1.81-8.81-3.58-17.64-5.64-26.4-2.59-11-5.38-22.09-4.09-33.46.93-8.21-3.06-15-4.71-22.47-.12-.53-1.1-.81-1.48-1.35-1.74-2.47-3.28.34-5,.18a54.67,54.67,0,0,0-8.68-.07c-6,.4-11.91,1.33-17.87,1.41-7.57.11-15.15-.44-22.72-.61-5.27-.12-10.56.15-15.82-.13-15.47-.81-30.94-1.87-46.41-2.68-2.9-.15-5.83.61-8.75.62-11.72.08-23.45,0-35.18,0-7.39,0-14.78.14-22.17.38-7.59.24-15.17.73-22.75,1q-20.32.77-40.64,1.43C228.6,80,212.82,80.55,197,80.85c-11.86.22-23.72,0-35.36,0-6.89,1.19-13.45,2.23-20,3.5-1.52.3-3.88,1.11-4.13,2.11-.56,2.25-.77,5,2.27,6.34a2.62,2.62,0,0,1,1.06,1.85c.34,2.56.42,5.16.78,7.71,1.36,9.62,2.58,19.26,4.26,28.82,1.07,6.08,3.13,12,4.27,18.07,1.64,8.82,3,17.7,4.16,26.59.38,2.85,1.78,5.63.29,8.79-1,2,2.24,6.39,4.2,6.38,5,0,10-.09,14.94-.29q19.66-.76,39.32-1.65c9-.41,18-.92,27-1.39s17.91-1.07,26.87-1.42c9.29-.37,18.59-.46,27.88-.76,3.64-.12,7.27-.54,10.91-.74,7-.39,14-.76,21-1,5.85-.24,11.73-.07,17.55-.57,7-.6,13.91-1.78,20.87-2.57,5.35-.61,10.73-1,16.09-1.5,9.91-.93,19.8-2.33,29.73-2.65,8-.26,16,1,23.94,1.19,5.17.13,10.35-.53,15.52-.6,8-.11,16.08.06,24.11-.06,6.48-.1,13-.41,19.45-.7,3.29-.15,6.59-.31,9.84-.77C506.28,175.18,508.09,173.78,507.76,171Zm-8.7-3.77c-4.89,0-9.63-.14-14.35,0-4,.15-8,.92-12,1-5.65.08-11.31-.37-17-.34-3.68,0-7.37.74-11,.7-6.79-.07-13.57-.63-20.36-.69-6.24-.06-12.48.22-18.72.47-4.74.19-9.49.41-14.22.87-6.45.63-12.89,1.49-19.32,2.27-7.37.89-14.72,2.09-22.11,2.63-10.27.75-20.57,1-30.86,1.5-15.32.71-30.64,1.37-45.95,2.16-11.71.61-23.41,1.36-35.11,2.12-9.48.62-18.94,1.44-28.43,2-7.81.44-15.64.51-23.45.89-5.12.24-10.24.76-15.36,1.09a18.91,18.91,0,0,1-5.29,0,3.93,3.93,0,0,1-2.46-2.42c-1.12-4.65-2.12-9.34-2.82-14.07A269.76,269.76,0,0,0,152.45,130c-3.06-10.29-5.4-20.78-5.88-31.58a17.08,17.08,0,0,1,0-2.49c.66-6.42.67-6.15,6.45-6.65,6.5-.56,13-1.09,19.55-1.22,5.72-.12,11.46.67,17.17.46,9.86-.37,19.7-1.4,29.56-1.79,5.42-.21,10.88.61,16.31.48,8.59-.21,17.16-.91,25.74-1.26,5.36-.22,10.74-.13,16.1-.26s10.56-.36,15.84-.55c6.38-.23,12.75-.48,19.13-.7,7.37-.25,14.75-.68,22.13-.66,9,0,18,.55,27,.61,5.38,0,10.78-.84,16.14-.57,13.74.69,27.45,2.12,41.19,2.65,15.81.61,31.64.66,47.47.78,5.65,0,11.3-.5,17-.6,1.18,0,3.19.41,3.44,1.13,1.45,4,3.59,8.23,3.44,12.29a118.5,118.5,0,0,0,2.85,32c2.52,10.65,4.19,21.5,6.19,32.27A14.16,14.16,0,0,1,499.05,167.2Z" transform="translate(-19.47 -20.42)"/><path d="M735.57,280.36c-.6-7.85-1.89-15.73-8.09-21.12a28.59,28.59,0,0,0-12-5.64,65.8,65.8,0,0,0-16.82-1.54c-5.05.17-10,2.14-15.09,2.52-10.35.79-20.74,1-31.11,1.56-4.42.25-8.82.88-13.23,1.36a48.77,48.77,0,0,1-5.88.69c-4.35-.06-8.89-1.3-13-.39a111.5,111.5,0,0,1-24.39,2.62c-2.65,0-6-.41-7.83.94-4.35,3.14-8.9,7.14-8.87,12.92.05,11.22,1.87,22.26,7.32,32.31a5.3,5.3,0,0,0,3.76,2.09,54.73,54.73,0,0,0,10.46,0,89.48,89.48,0,0,1,17.89-.11c8.28.74,16.67.11,25,.22,4,.06,8,.88,12,.65,9-.52,18.05-1.59,27.09-2.19,2.73-.18,5.58,1,8.27.66,7.46-.9,14.93-1.91,22.25-3.55,5.23-1.17,10.22-3.4,16.17-5.46,1.74,1.37,4.52,1,5.57-2a21.67,21.67,0,0,0,1.12-6.86C736.16,286.86,735.82,283.61,735.57,280.36Zm-7.73,10.43c-7.39,2.49-15.18,5.31-23.1,7.7a32.6,32.6,0,0,1-9,.94c-8.43.07-16.8-2.18-25.28,1.25-3.88,1.57-8.72,1-13.12,1-6.87,0-13.74-.53-20.62-.61-3.4,0-6.8.59-10.19.58-4,0-8-.47-12-.62-2.87-.11-5.76.07-8.63,0-4.46-.16-9.05.08-13.32-1-1.74-.42-3.51-3.59-4-5.78a120.26,120.26,0,0,1-2.38-16.63c-.33-4.2,5-9.09,9.22-9.43,7.74-.61,15.47-1.41,23.2-2.14,2.33-.22,4.65-.56,7-.66,5.88-.26,11.74.19,17.67-.58,7-.9,14.14-.55,21.21-.89,7.91-.38,15.83-.82,23.73-1.45,6.75-.54,13.48-2,20.21-1.89,4.55,0,9.39.6,13.39,3.93s5.63,7.58,6,12.39C728.1,281.32,727.84,285.8,727.84,290.79Z" transform="translate(-19.47 -20.42)"/><path d="M490.8,395c-.42-6.39-2.13-12.69-2.93-19.07-.68-5.37-1.56-10.54-6.34-13.9a9,9,0,0,0-4.71-1.74c-5.5-.05-11,.3-16.51.43-4.71.11-9.42,0-14.12.25-3.35.18-6.68.8-10,1.21-6.07.73-12.14,1.37-18.19,2.26a3.1,3.1,0,0,0-2,2.23c0,4.52,0,9,.4,13.55.64,8.19,2.08,16.36,2.13,24.55.05,9.67,5.53,11.61,13.34,11.51q7.13-.09,14.27-.1c4.27,0,8.55.27,12.8,0,7.82-.49,15.63-1.28,24.48-2,3,0,5.93-1,6.27-3.43C490.41,405.56,491.14,400.23,490.8,395Zm-47.13,12.8c-4.22,0-8.46-.07-12.66.23-3.47.25-4.22-.48-4.52-3.72-.46-5.07-1.55-10.08-2.18-15.14-.68-5.43-1.13-10.89-1.78-17.25l12.3-1.48c-2.48,2.52-1.57,5-.15,7a131.49,131.49,0,0,0,9.56,12c1.86,2,3.06,3.95,3.07,6.8,0,3.82.48,7.63.76,11.6C446.82,407.82,445.24,407.81,443.67,407.83Zm5.12-25c-5.58-2.6-6.61-8-9.63-12.36l12.74-1.65Zm31.07,22.95c-8.1.9-16.21,1.78-23.94,2.63-.23-4-.41-6.88-.57-9.79-.22-4.15-.65-8.17,1.24-12.28a32.83,32.83,0,0,0,2.57-10.76c.18-2.1-1.15-4.34-1.92-6.89,6.11,0,12.54-.12,19,.06,2.55.07,3.35,2.29,3.7,4.46q2.16,13.56,4.22,27.15C484.62,403.62,483.25,405.35,479.85,405.73Z" transform="translate(-19.47 -20.42)"/><path d="M415.9,244c3.65,3.16,3.73,3.61.54,8-1.16,1.59-2.39,3.13-3.39,4.43l7.17,8.59c1.38,1.65,1.28,3.27-.42,4.54-3.61,2.69-7.25,5.37-11,7.86-2.37,1.57-4.7.27-6.3-1.31-2.74-2.7-5.06-5.84-7.53-8.77-3.45,3.13-5.77,5.38-8.25,7.44-2.78,2.31-7.05.43-7.95-3.11-1.47-5.84-3-11.66-4.94-17.37s-4.38-11.24-6.31-16.95c-.42-1.24,0-3.67.83-4.23,1.72-1.1,4.16-2,6.06-1.68,3.55.65,6.93,2.25,10.38,3.49,6,2.15,11.93,4.48,18,6.41,2.93.94,6.1,1.16,10.07,1.86-5.79-4.51-3.91-10.76-5.39-16-.8-2.86-2-4.08-5-4-5.2.21-10.42-.15-15.61.15-8.84.52-17.67,1.32-26.49,2.13a27.6,27.6,0,0,0-6.43,1.51c-.53.19-1,1.56-.91,2.36.12,2,.94,4,.76,5.91-1,10.53,2.89,20.36,4.15,30.56.85,6.88,1.32,13.81,1.66,20.74A9.18,9.18,0,0,0,371,295c1.9-.47,4-.28,5.94-.51,4.29-.49,8.56-1.21,12.86-1.53q11.38-.86,22.8-1.3c2.06-.08,4.11-1.9,3.74-4-.43-2.41-1.41-4.84-1.28-7.21.1-1.73,1.62-3.39,2.51-5.08,1.54,1,4.11,1.77,4.44,3.08a84.59,84.59,0,0,1,1.87,13.31,3.71,3.71,0,0,1-1.55,2.93c-3.66,2-6.54,5.57-11.69,4.48a56.18,56.18,0,0,0-13.06-.68c-2.27.06-4.48,1.37-6.77,1.67-5,.65-10.08,1.2-15.15,1.44-4.88.24-9.78.08-14.68,0-5.47-.06-8.91-3.32-9.19-8.9-.35-7.13-.3-14.3-.84-21.41-.37-4.76-1.57-9.46-2.22-14.21-1-7-1.73-14-2.61-20.95a39.4,39.4,0,0,0-1.08-6.92c-1.56-4.95-.37-7.44,4.46-8.81,1.87-.53,3.62-1.5,5.49-2.06,8.8-2.64,17.88-2,26.89-2.19,3.56-.08,7.1-.67,10.66-.78,4-.12,7.93-.08,11.88.14,5.47.3,8.06,2.55,9,7.72.89,4.72,1.69,9.45,2.36,14.21A53.46,53.46,0,0,1,415.9,244Zm-30.79,21.19c1-1.33,1.78-2.18,2.42-3.11,2.92-4.25,5.52-4.39,9.3-.62a64,64,0,0,0,5.55,4.91c3.69,2.91,4.88,2.78,9.24-1.31a76.78,76.78,0,0,0-7.09-4.71c-2.33-1.21-3-2.68-2.78-5.29.27-3.09,2.41-4,4.8-5.21-9.8-1.91-18.52-7.16-29.56-8.27C381.28,249.54,380.08,258.06,385.11,265.22Z" transform="translate(-19.47 -20.42)"/><path d="M175,228.68l4.12,3.86c3.64-4.66,8.68-2.5,13.19-2.66,4.12-.14,8.26.4,12.4.55,4.88.18,9.78.47,14.65.32A52.93,52.93,0,0,0,231,229.43c8.72-2.27,11.56,1.38,13.9,7.89,2.15,6,3.14,12.44,4.22,18.76,1.37,8,2.36,16.12,3.44,24.2.62,4.65,1.06,9.33,1.61,14a13,13,0,0,0,.59,2.69c2.37,6.83-.77,8.62-6.39,9.59-7.45,1.28-15,2.07-22.53,2.82-5.11.51-10.31.23-15.38.92a60.07,60.07,0,0,1-18.21,0c-5.45-.9-10.76-6.14-11.48-11.57-1.24-9.39-2.81-18.74-4-28.13-1-7.4-1.56-14.85-2.34-22.27-.13-1.28-.35-2.54-.49-3.82-.43-4-1-8-1.13-12C172.8,231.26,174.2,230,175,228.68Zm5.19,9.28a22,22,0,0,0,0,3.26c1.38,10.69,2.61,21.4,4.29,32,1.37,8.66,3.32,17.23,5,25.85.57,2.93,2.57,4.05,5.32,4,4-.1,8.08-.27,12.11-.56,6.26-.45,12.53-.87,18.76-1.61s12.64-1.72,18.89-3c1-.2,2.44-2.32,2.39-3.49-.22-4.8-.81-9.59-1.49-14.35-1.27-8.9-2.65-17.79-4.07-26.67-.61-3.8-1.25-7.61-2.19-11.34-.72-2.86-4.53-5.83-6.67-5.15-7,2.24-14.17,1.68-21.36,1.39-5.28-.21-10.59.5-15.89.57-2.8,0-5.6-.44-8.4-.64C184.7,238.14,182.52,238.07,180.16,238Z" transform="translate(-19.47 -20.42)"/><path d="M367.26,232.57c-5.62,3.59-2.82,8.44-2.47,12.69.42,5.12,1.83,10.14,2.58,15.24.27,1.84.83,2.35,2.71,2.85s3.4,2.33,4.83,3.82c.31.32-.2,2.06-.8,2.5-3,2.25-9.65,2.12-11.93-.73-1.51-1.9-2.07-4.76-2.45-7.29-.73-4.8-.9-9.69-1.54-14.51-.49-3.74-1.37-7.43-2-11.15-.89-5.29,3.13-9.46,7.42-7.54C365,229.05,365.79,230.84,367.26,232.57Z" transform="translate(-19.47 -20.42)"/><path d="M289.26,266.25c1.47-4,3-8.08,4.38-12.14.3-.87.1-1.95.51-2.73.94-1.76,1.81-4.26,3.31-4.81,1.13-.42,3.87,1.34,4.72,2.8,2.12,3.67,5.25,5.65,8.81,7.6,2.09,1.14,3.62,3.54,5,5.65.38.59-.5,2.81-1.29,3.17a120.18,120.18,0,0,1-11.94,4.53C296.39,272.37,293.34,271.36,289.26,266.25Zm11.28-8.54-1.47,5.45,5.82-2.13Z" transform="translate(-19.47 -20.42)"/><path d="M645.27,287.8c0,3.85-2,6.15-5.64,6-2.44-.13-5.48,2.37-7.29-1.1a59.33,59.33,0,0,1-3-7.39c-.82-2.28-1.52-4.61-2.12-7-.68-2.65,0-4,3.21-3.87C639.55,274.69,645.31,279.68,645.27,287.8Z" transform="translate(-19.47 -20.42)"/><path d="M616.54,282.06c.12-2.42.09-4,.33-5.62.13-.84.59-2.18,1.11-2.29a6.05,6.05,0,0,1,3.29.53,2.47,2.47,0,0,1,1.15,1.69c.77,4.57,1.78,9.13,2,13.73.11,2.42-2.18,3.14-4.64,2.88a7,7,0,0,0-3.41.89c-1.95.92-3.92,1.52-5.17-.7a25,25,0,0,1-1.76-5.32c-.68-2.34-1.64-4.67-1.83-7a5.38,5.38,0,0,1,1.83-4c.59-.47,2.64.3,3.62,1C614.27,278.75,615.07,280.23,616.54,282.06Z" transform="translate(-19.47 -20.42)"/><path d="M718.14,279.52c.11-1.32.17-2.64.34-3.95a18.22,18.22,0,0,1,.81-4.9c.84-1.94,2.74-2.2,3.65-.28a16.82,16.82,0,0,1,1.33,6.47,38.62,38.62,0,0,1-.7,6.63c-.56,4.11-3.25,5.7-7,4-1.94-.9-3.39-1.54-4.25,1.26-.21.68-2,1.6-2.43,1.34-1.08-.65-2.51-1.89-2.53-2.92a122.94,122.94,0,0,1,.55-13.29c.09-1,1.22-1.86,1.87-2.79,1,.8,2.36,1.41,3.08,2.43,1.4,2,2.46,4.21,3.66,6.33Z" transform="translate(-19.47 -20.42)"/><path d="M684.51,278.66c-.07-5.55,1.4-7,5.9-6.88,7.11.16,7.26.47,8.36,7.75.24,1.56,1.78,3.21,3.14,4.27,2.33,1.82,1.37,3.82.46,5.52-.27.5-2.56.1-3.86-.18-2.52-.53-4.76-2.93-7.69-.5-.48.4-3.5-1-4.05-2.21A43.92,43.92,0,0,1,684.51,278.66Z" transform="translate(-19.47 -20.42)"/><path d="M593.22,279.07c0-3.75,2-5.2,4.72-4.32,1,.31,2.08.25,3,.64a5.13,5.13,0,0,1,2.59,1.75,20.13,20.13,0,0,1,2.55,6.54,30.54,30.54,0,0,1-.21,10c-.27,1.28-2.87,2.66-4.56,2.89-2.71.36-4.55-1.76-5.2-4.17C594.87,287.76,594.06,283,593.22,279.07Z" transform="translate(-19.47 -20.42)"/><path d="M656.88,281.88c-1.37-.22-3.14,0-3.71-.7a9.44,9.44,0,0,1-2-4.93c-.05-.71,1.72-1.94,2.86-2.28a38.12,38.12,0,0,1,7.53-1.41c1.1-.09,3,.44,3.25,1.12a5.86,5.86,0,0,1-.39,4.27c-1.85,3.21-2,6.77,0,9.78.38.58,1.06,1.28,1,1.8a47.17,47.17,0,0,1-1.48,4.92c-1.37-.72-3.52-1.11-4-2.2A92.85,92.85,0,0,1,656.88,281.88Z" transform="translate(-19.47 -20.42)"/><path d="M674.48,283.17a26.8,26.8,0,0,0,.42-3.24c0-.79-.64-1.75-.36-2.35a22.9,22.9,0,0,1,2.38-3.51c1,.83,2.53,1.45,3,2.53a37.36,37.36,0,0,1,2.11,7c.55,2.36-2.08,5.8-4.78,6.51-4.91,1.29-7.28.17-9.14-4.71a21.11,21.11,0,0,1-1.28-6.45,3.35,3.35,0,0,1,1.82-2.65c.74-.21,2.24.71,2.75,1.54a31.94,31.94,0,0,1,2.14,5.1Z" transform="translate(-19.47 -20.42)"/><path d="M190.69,389.79a58.4,58.4,0,0,0,1.9,5.7c1.84,4,4.09,7.79,5.65,11.87.87,2.27-1,3.62-3.22,4a48.71,48.71,0,0,1-6.25.69c-2.45.06-5.05,0-6.19-2.81-.44-1.07-.94-2.88-.44-3.4a8.72,8.72,0,0,1,4.12-2c1.06-.26,2.29.17,4.15.36-2.26-3.71-4.12-6.61-5.83-9.59-1.9-3.29-2.51-6.9.13-9.88,2-2.31,4.91-2.76,8.28-2,4.54,1,9.33.88,13.95,1.62,6.2,1,9.49,5.24,10.59,11.1.41,2.2-.21,4.6-.36,6.8,1.48.62,3.49.83,4,1.8.84,1.66,1.53,4.25.78,5.62s-3.32,1.65-5.18,2.1c-1.39.34-2.92.06-4.35.26a5.82,5.82,0,0,1-6.09-2.42c-1.69-2.29-.78-4,.55-6a19.8,19.8,0,0,0,2.85-5.09c1.32-4.34-.51-7.15-5-7.7C200.55,390.27,196.35,390.17,190.69,389.79Z" transform="translate(-19.47 -20.42)"/><path d="M191.56,243.26c1.63-.66,3.26-1.87,4.9-1.88,8-.07,16,.19,24.05.3,3.24,0,6.65-.56,9.67.27a9,9,0,0,1,5.23,4.83c1.71,4.41,2.51,9.18,3.63,13.81.91,3.74,2,7.46,2.56,11.25a57.42,57.42,0,0,1,.39,8.69,2.32,2.32,0,0,1-1,1.79c-3.64,1.76-7.21,4.31-11.06,4.84a160.54,160.54,0,0,1-25,1.58c-4.37-.08-8.93-1.7-13-3.55a9,9,0,0,1-4.56-6.06c-1.14-10.28-1.72-20.63-2.27-31C185,244.2,188.05,242.53,191.56,243.26Zm43.52,30.84c-.62-2.75-1.13-5.25-1.75-7.73-1.09-4.35-2.17-8.7-3.44-13-.29-1-1.22-2.31-2-2.47a40.62,40.62,0,0,0-8.58-.82c-6.74.17-13.49,1-20.22.86-5-.11-6.41.69-6,5.67.42,5.81.8,11.62,1.45,17.4.28,2.47.87,5.11,4.1,5.58,11.85,1.71,23.49,1.82,34.27-4.57A18.56,18.56,0,0,1,235.09,274.1Z" transform="translate(-19.47 -20.42)"/><path d="M207.21,260.26a71.25,71.25,0,0,1,6.38-5.72c.92-.65,2.55-.3,3.86-.41,0,1.59.47,3.33,0,4.74-.6,1.74-2,3.2-3.47,5.45,2.91.53,5.24.34,6.63,1.38a8,8,0,0,1,2.78,5.13c.18,1.73-1.27,3.11-3.6,2.39-1.43-.44-3.13-.21-4.42-.85-3.08-1.54-5.53-2.33-8.69.5-2.19,2-5.07-.21-5.19-3.43,0-1.18.25-2.38.1-3.54a7.54,7.54,0,0,0-1-3.15c-.93-1.42-2.66-2.49-3.13-4-.42-1.33,0-4.05.8-4.41a13,13,0,0,1,6.52-.7c.54.06.71,2.66,1.18,4A19.92,19.92,0,0,0,207.21,260.26Z" transform="translate(-19.47 -20.42)"/></g></svg>