<svg xmlns="http://www.w3.org/2000/svg" viewBox="0 0 763.53 518.11"><title>VENDING</title><g id="ART"><path d="M745.52,40.5c-1.07,10.27-2.39,18.77-2.72,27.3s.35,17.36.52,26c.09,4.24-.07,8.49.07,12.74.32,9.64.77,19.28,1.14,28.93q.64,16.86,1.22,33.73c.41,12.29.66,24.58,1.18,36.86.84,19.65,1.57,39.31,2.93,58.93.66,9.57,2.75,19,4,28.58,1.15,9,2,18,3,27.05q1.41,13.1,2.78,26.2c.73,7,1.41,13.91,2.19,20.85.69,6.16,1.51,12.31,2.24,18.47.46,3.93,1,7.85,1.25,11.8.79,14.53,1.16,29.08,2.28,43.58.64,8.19,2.45,16.3,3.71,24.44.18,1.15.3,2.31.41,3.47.77,8.11,1.87,16.21,2.15,24.34.11,3.3,3.36,7.35-.77,10.06-2.89,1.89-6.26,3.81-9.58,4.15-11,1.14-22.06,1.38-33.07,2.31-14.75,1.25-29.49,2.67-44.19,4.34-7.85.89-15.6,2.62-23.43,3.71-13.58,1.89-27.17,3.8-40.8,5.22-4.19.43-8.54-.86-12.83-1.11-4-.24-8.09-.13-12.14-.21-8.81-.18-17.62-.62-26.43-.53-9.48.1-19,.65-28.44,1.07-12.08.53-24.15,1.36-36.23,1.61-12.6.26-25.21.05-37.81-.07-12-.11-23.91-.47-35.86-.54-14.93-.08-29.86,0-44.8.06-26.95.16-53.89.42-80.84.6-10.09.07-20.18-.14-30.26.08-8.76.19-17.52.93-26.28,1.19-3.83.11-7.7-.7-11.52-.49-13.73.75-27.44,1.85-41.16,2.61-4.36.24-8.76-.33-13.13-.32-8.39,0-16.78.48-25.15.23-9.22-.28-18.43-1.13-27.65-1.77-2.92-.2-5.82-.68-8.74-.75-12-.31-24.08-.64-36.12-.7-7.51,0-15,.77-22.53.46s-14.83-1.63-22.25-2.38c-2.19-.22-4.6-.54-6.61.12-3.81,1.24-6.86-1.25-6.48-5.85a21.74,21.74,0,0,0-2.31-12.12,15.05,15.05,0,0,1-1.23-6c-.53-11.82-1-23.65-1.34-35.47-.12-3.6,0-7.21,0-10.82,0-4.18-.06-8.35-.09-12.53,0-5.11.12-10.24-.18-15.34-.47-8.08-1.35-16.13-1.87-24.21-.25-3.95.47-8-.16-11.87-3.1-19-1.7-38.07-2.05-57.12-.12-6.55-.67-13.1-.63-19.65q.09-16.72.69-33.43c.56-15,1.65-30,2-45,.24-10.69-.58-21.4-.56-32.1,0-13.47.68-26.94.58-40.4-.08-11-.46-22.13-1.44-33.13-1.21-13.63-3.26-27.19-4.8-40.8-1.49-13.15-3.59-26.26-2.94-39.59.12-2.41-.77-4.85-.72-7.27,0-1.49.54-3.71,1.57-4.3,4.42-2.49,8.84-5.4,14.38-4.52a3.79,3.79,0,0,0,2.4-.25C36.53,26.81,44,29.24,51,28.08S65.64,28,73,27.68c15.79-.59,31.56-1.66,47.35-2q28.65-.7,57.32-.52c7.94,0,15.86,1.43,23.8,1.6,10.25.22,20.5-.16,30.76-.29,3.89,0,7.78,0,11.66-.14,11.22-.38,22.45-.87,33.67-1.25,11.44-.39,22.89-.8,34.34-1,7.83-.14,15.67.36,23.48,0q24-1.06,48-2.77c12.94-.93,25.84-2.43,38.77-3.43q13-1,26-1.29c11.19-.24,22.39,0,33.58-.18,15.23-.18,30.46-.49,45.69-.72,8.48-.13,17-.13,25.44-.31q22.84-.49,45.68-1.14c13-.39,25.91-.81,38.86-1.43,10.18-.48,20.33-1.72,30.51-1.83,13.69-.15,27.44-1.73,41.09.94,1.53.3,3.22-.15,4.83-.34,4-.48,8-.81,11.87-1.56,5.85-1.12,14.22,3.63,15.59,9.48C743,26.93,744.3,34.47,745.52,40.5ZM34.38,487.23c-.4.51-1.45,1.25-1.4,1.91a90.88,90.88,0,0,0,1.3,10.31c.88,4.52,2,9,3.16,13.44a2.85,2.85,0,0,0,1.85,1.77q11.42,1.53,22.87,2.78a56.46,56.46,0,0,0,7.59.32c10-.26,20-.88,30-.85a186.82,186.82,0,0,1,23.88,1.39,337.1,337.1,0,0,0,39.64,2.59c9.7.14,19.41-.43,29.11-.61,2.79-.05,5.61.45,8.38.22,11.38-.92,22.72-2.46,34.11-3,15.08-.65,30.18-.67,45.28-.71,11.42,0,22.84.47,34.26.51,8.24,0,16.47-.42,24.71-.48q21.68-.15,43.36-.07c9,0,18.08.56,27.12.46,15.35-.17,30.69-.95,46-.93,13.46,0,26.93,1.13,40.39,1.1,12.19,0,24.39-.94,36.58-1.45,1.59-.07,3.19.06,4.77,0,5.83-.38,11.65-.94,17.48-1.21,8.52-.39,17.06-.89,25.58-.77,9.54.13,19.08,1.25,28.62,1.3,9.2.05,18.41,1,27.63-.61,9.63-1.72,19.36-2.82,29.05-4.2,5.19-.74,10.38-1.58,15.58-2.22,8.8-1.08,17.63-1.95,26.43-3.05,8.2-1,16.16-3,24.64-2.92,10.23.07,20.48-2,30.68-3.44.9-.13,2.09-2.38,2.13-3.68.11-3.47-.36-7-.56-10.43-.53-8.92-.81-17.85-1.6-26.74-1.17-13.23-2.83-26.41-4-39.63-.66-7.42-.6-14.9-1.2-22.33-.89-11-2-22-3.14-33s-2.4-22.26-3.48-33.4c-.63-6.48-.68-13-1.56-19.46-1.35-10-3.64-19.82-4.71-29.8-1.4-13.15-2.14-26.38-2.91-39.59-.66-11.26-1-22.54-1.45-33.81-.5-12.77-.94-25.54-1.42-38.31-.46-11.95-1-23.9-1.39-35.85-.54-16.42-1.2-32.84-1.34-49.27-.08-8.44.81-16.9,1.32-25.34.63-10.32,1.46-20.62,0-31-.75-5.42-4.22-9-8.47-8.39a65.5,65.5,0,0,1-10.51,1c-10-.18-20-.78-30-1-4.94-.11-9.91.12-14.84.44-2.29.15-4.77,1.71-6.76,1.16-5.91-1.65-11.72-.88-17.64-.63-21.49.9-43,1.53-64.47,2.24-1.77.06-3.54,0-5.31.05-13.25.27-26.5.66-39.76.8-12.77.14-25.55-.21-38.32.1-14.54.35-29.06,1.3-43.59,1.75-5.45.17-10.93-.67-16.37-.45-10.13.41-20.24,1.18-30.35,2-8.4.64-16.77,1.5-25.16,2.26-10,.9-20,2.16-30,2.6-10.46.46-21,0-31.44.22-7.68.17-15.35.93-23,1.25-8.09.34-16.2.52-24.3.71q-19.17.45-38.35.82c-3.77.07-7.54,0-11.32,0-11.14,0-22.28.12-33.41-.24-10.53-.34-21-1.5-31.55-1.83-7.15-.23-14.32.37-21.48.55-6.91.17-13.82.29-20.73.41-8.43.15-16.87.07-25.29.47-9.81.46-19.59,1.45-29.4,2-5,.27-10-.29-15,.12-8,.67-16,1.59-23.92,3-1.7.29-5-1.13-5.53,2.82-.27,2.08-2.64,4-2.55,6,.48,10,1.15,20.06,2.34,30,1.17,9.78,3.31,19.45,4.5,29.23,1.09,8.95,1.69,18,2.14,27q1,19.61,1.42,39.26c.12,5.37-.58,10.76-.61,16.14q-.14,23.2,0,46.4c0,6.19.79,12.39.56,18.56-.38,10.07-1.7,20.12-1.92,30.19-.34,15.52-.22,31.05-.07,46.58.2,19.46-.94,38.95,2,58.35,1.13,7.44,1.16,15.07,1.47,22.62.57,13.57.95,27.14,1.46,40.71q.59,15.42,1.36,30.84A26.72,26.72,0,0,0,34.38,487.23Z" transform="translate(-11.6 -9.82)"/><path d="M292.84,407.83c-2.1-2.66-4.35-4.91-5.86-7.59-1.66-2.92,1.62-7.7,4.83-7,1.47.34,2.49,2.67,4.13,4.59L302.73,375c-2.54-1.06-5-1.76-7.17-3-8.13-4.92-8.95-10.81-5-18.7,2.24-4.44,6-8.25,9.53-11.86,1.41-1.43,4.11-1.91,6.3-2.17s3.24-.58,3.26-3c0-2.1.35-4.29,3.43-4.2s3.76,2.19,3.49,4.54c-.62,5.49-1.54,10.94-2.31,16.41-.74,5.27-1.48,10.53-2.14,15.81a2.72,2.72,0,0,0,.52,1.87c2.12,2.57,4.35,5,6.5,7.58,4.23,5,4.66,11,3.41,16.87a13.76,13.76,0,0,1-4.81,7.35,34.77,34.77,0,0,1-11,5.82c-5,1.5-6.11,2.17-7.18,7.51a7.15,7.15,0,0,1-2.4,4.32c-1.2.8-4,1.11-4.69.35a8.32,8.32,0,0,1-2.09-5.71C290.65,412.18,292.1,409.77,292.84,407.83ZM308.05,348c-2.07.32-3.27.18-4.06.68A18.48,18.48,0,0,0,296.26,359c-.69,2.17-.73,4.72,2.66,5.38a65.74,65.74,0,0,1,6.6,2.05Zm2.31,31.1c-3.07,6.73-5.26,12.93-5.61,20.15,5.29-1.23,9.6-3,10.94-8.07C317,386.3,313.84,382.88,310.37,379.07Z" transform="translate(-11.6 -9.82)"/><path d="M276.52,202.88c.48-3,1-5.31,1.22-7.67.53-4.73.95-9.47,1.42-14.21.19-1.86-.16-3-2.45-3.37-9-1.39-13.78-11.51-7.2-19.72,3-3.78,6.28-7.17,10.94-8.36,3.68-.94,5.21-3.1,6.32-6.35.46-1.35,2-2.32,3.07-3.46,1,1.67,2.75,3.33,2.77,5,0,2.3.53,3.62,2.39,4.92a6.77,6.77,0,0,1,2.46,3.6c.86,3.36-.15,4.64-3.63,4.63-2.34,0-3.6.53-3.4,3.13a6.68,6.68,0,0,1-.64,2.34c-1.75,5.44-.17,9,5.21,11.57,4.13,2,6.17,6.27,7.44,10.71,1.52,5.34,2.5,10.78.73,16.15a10.42,10.42,0,0,1-4.28,5.48,33.71,33.71,0,0,1-10.64,3.9c-4.29.71-6.3,3.11-6.79,6.89-.34,2.68-1.22,4.47-4,4.32s-5-3.58-4.6-6.42a9.56,9.56,0,0,1,.71-2.33c.94-2.16.08-3.59-1.45-5.21a18.62,18.62,0,0,1-3.43-5.67c-.32-.78.34-2.7,1-3a5.64,5.64,0,0,1,3.78.3C274.42,200.51,275.14,201.59,276.52,202.88Zm8.36.36c6.24-.5,11-3.3,11.23-6.3.68-8.62.44-12.93-9.33-17.16Zm-1.48-44.86-.73-.59a71.75,71.75,0,0,0-6.91,6.17c-.85,1-1.33,3.73-.77,4.18a8.48,8.48,0,0,0,5.1,1.56c.64,0,1.55-2,1.85-3.25C282.6,163.79,282.94,161.06,283.4,158.37Z" transform="translate(-11.6 -9.82)"/><path d="M277.39,92.72c1-5.1,1.81-10,2.92-14.83.52-2.24,0-2.87-2.26-3.59-8.45-2.67-13.37-6.57-7.88-16.74,3.43-6.35,8.94-9.15,15.82-9.26,2.92,0,4.11-1.37,4.95-3.71.94-2.62,1.57-6,5.55-4.49,2.94,1.1,3.15,5.22,1.55,8.72-2.61,5.72-4.79,11.64-7,17.53a2.75,2.75,0,0,0,1.2,2.36c9.71,4.55,15.12,22.24,3.84,32-1.62,1.4-4.48,1.62-6.83,1.87-6,.64-8.48,2.88-9.42,9-.53,3.46-2.88,5.21-6.11,4.55-2.67-.55-4-3.25-3-6.47.51-1.6,1.7-3,2.05-4.63a18.75,18.75,0,0,0,.12-5.34c-.09-1.24-.74-2.44-.83-3.68C271.83,91.85,273.4,90.84,277.39,92.72ZM285,94.14c9.41-.35,12-8.56,7.36-15.78-.59-.91-2.07-1.34-3.23-1.72-.32-.1-1.3.73-1.4,1.25C286.78,83.18,285.94,88.51,285,94.14Zm1.24-37.56a11.71,11.71,0,0,0-9.79,7.07,2.32,2.32,0,0,0,.46,2.13,4.4,4.4,0,0,0,6.92-1.9C284.67,61.65,285.34,59.36,286.25,56.57Z" transform="translate(-11.6 -9.82)"/><path d="M120.93,374.5c7.7,3.25,12.63,8.3,13,16.33.11,2.56-1.39,5.72-3.17,7.7-4.64,5.18-11,7.14-17.8,7.69a7.16,7.16,0,0,0-1.93.25c-4.5,1.7-7.16.42-7.21-4.36-.1-11.3-4.69-21.66-6.21-32.64-.76-5.49-1.82-10.95-2.21-16.46-.09-1.25,1.74-3.2,3.15-3.85,2.15-1,4.76-.91,7-1.67,7.46-2.45,17.8,2.63,21.12,11.23,1.41,3.66-.56,7.26-2.59,10.48C123.06,370.86,122.09,372.55,120.93,374.5Zm-12.85,5.9a46.84,46.84,0,0,0,.75,5c.46,1.89,1.38,3.67,1.85,5.56,1.76,7,4.3,8.26,10.53,4.77,2.67-1.5,5.16-3.55,5.06-7-.09-3.07-2.3-4.84-4.91-5.73a55.2,55.2,0,0,0-7.5-1.51Zm-2-6.54c1.32-.14,1.81,0,2-.24,3.43-3.78,7-7.48,10.08-11.5.54-.7-.32-3.18-1.24-4.16-1.13-1.21-3-1.86-4.58-2.48-2.46-.95-7.13,1.44-7.15,4C105.14,364.27,105.76,369,106.1,373.86Z" transform="translate(-11.6 -9.82)"/><path d="M428.84,362.12c7.21,5.61,11.06,14.08,5.87,20.94-6.94,9.17-14.2,12.61-22.73,7.71S399.8,377,407.23,364.06a16.61,16.61,0,0,1-6.66-12,11.34,11.34,0,0,1,12.84-12.82,11.6,11.6,0,0,0,2.63,0c9.67-.6,20,7.13,15.86,18.26C431.28,359.18,429.89,360.58,428.84,362.12Zm-10.3,5.9a9.06,9.06,0,0,0-2.34.71c-2.93,1.61-6,7.83-5.36,11a5.4,5.4,0,0,0,1.66,2.93,8.14,8.14,0,0,0,11.25-.35,25.18,25.18,0,0,0,4.32-5,5.11,5.11,0,0,0,.38-3.75C427.28,369.67,424.58,368.17,418.54,368Zm-3.82-9.59c2.88-1.29,6.1-2.13,8.54-4,2.88-2.2,2-5.54-1.67-6-3.85-.52-7.84-.09-11.76.07-.42,0-.91,1-1.17,1.55C406.61,354.78,408.83,357.71,414.73,358.43Z" transform="translate(-11.6 -9.82)"/><path d="M120,299.59c-1.16-1.91-2.49-3.78-3.46-5.81s-1.45-4.09-2.24-6.12c-1.85-4.69-10.71-6.24-14.29-2.45a4.68,4.68,0,0,0-1,2.53c-.6,5-1.29,9.91-1.59,14.88-.19,3.25-1.4,5.08-4.64,5.25-3,.16-3.83-2.27-3.84-4.43a111.24,111.24,0,0,1,.82-12.83c1-9.29,2.23-18.55,3.33-27.83.52-4.37.91-8.76,1.46-13.13.25-2,3.28-3.85,4.73-2.77,3.55,2.63,7.3,4.86,9.21,9.46,3.94,9.51,8.53,18.74,12.87,28.08,1.11,2.39,2.26,4.76,3.4,7.13C126.53,295.28,125.91,296.42,120,299.59Zm-17.79-39.34-1,.15c-.13,2.3-.24,4.61-.4,6.91-.56,8.24-.57,8.24,7.52,7.18Z" transform="translate(-11.6 -9.82)"/><path d="M86.4,186c-1,4.67-2,9.3-2.86,13.95a15,15,0,0,0-.37,4.15c.22,2.37-.4,4.45-2.62,5.16a4.42,4.42,0,0,1-4-1.18c-1.07-1.6-2.21-4.09-1.68-5.67,3.74-11.31,4.18-23.08,5.46-34.75.66-6,1.29-12,2.28-18,.16-1,2.1-2.12,3.33-2.28,2.32-.3,5.19-.83,6.32,2.2,1.8,4.84,3.22,9.83,5,14.66,1.74,4.61,3.83,9.1,5.67,13.67.56,1.38.7,2.92,1.23,4.3,1.77,4.63,3.71,9.2,5.43,13.85.59,1.59,1.33,3.51.93,5s-2,3.71-3.33,3.94a4.39,4.39,0,0,1-5-3.42c-1.39-4.86-2.7-9.77-4.38-14.53-1.34-3.79-4.73-2.06-7.33-2A18.84,18.84,0,0,0,86.4,186Zm2.77-23.54-.85-.09c-.54,4.06-1.16,8.12-1.53,12.19-.07.75.91,2.3,1.34,2.27a28.71,28.71,0,0,0,5.5-1.07,2.2,2.2,0,0,0,0-1.32C92.16,170.47,90.66,166.48,89.18,162.48Z" transform="translate(-11.6 -9.82)"/><path d="M68.87,408.35c3.76-.4,7.64-.62,11.46-1.25,4.54-.75,8.16,1.76,6.89,5.37A6.28,6.28,0,0,1,83.11,416c-3.36.56-6.87.25-10.32.26-1.77,0-3.54-.09-5.3-.06-6.85.12-8.55-2.38-7.87-9.2.53-5.28-.16-10.69-.42-16q-.47-9.66-1.16-19.3c-.32-4.42-.82-8.83-1.29-13.24-.36-3.33-.75-6.67-1.2-10-.76-5.55,3.2-9.82,9.07-10.71,2.19-.33,4.33-1,6.53-1.16,1.7-.14,3.74-.3,5.07.49s2.52,3,2.15,4c-.54,1.52-2.37,2.8-3.94,3.65-1.13.61-2.84.06-4.1.54-8.26,3.1-7.42,3.64-6.37,10.56,1.2,7.89,2.06,15.84,2.78,23.79C67.58,388.78,68.12,398,68.87,408.35Z" transform="translate(-11.6 -9.82)"/><path d="M343,71.77c2.8,3.18,5.63,5.89,7.85,9,3.15,4.43,2.86,9.61,1.73,14.61a7.55,7.55,0,0,1-3.14,3.89c-4.86,3.32-10.42,3.84-16.13,3.38-2.25-.18-4.52-.28-6.74-.65-3.08-.5-3.87-2.8-3.55-5.48s2.48-2.37,4.32-2.32a50.72,50.72,0,0,1,7,.49c4.89.84,9-.62,10.29-3.92s-1.31-8.1-4.88-10.65-7.51-1.29-11.09-.56-4.09-.61-4.29-3.47-.2-5.89,3.08-7.22c2.41-1,5-1.43,7.49-2.31,2.17-.77,4.37-1.8,4.22-4.65-.13-2.55-1.78-3.78-4-5-4.67-2.49-8.95-3.55-13.43.33-1.93,1.67-4,.68-4.89-1.29a5.29,5.29,0,0,1,.42-4.38c3.8-5.62,9.32-5.46,15.05-3.85,8.15,2.29,13.6,7.43,15.94,15.65,1,3.5-1.5,5.37-3.72,7.29A13.84,13.84,0,0,1,343,71.77Z" transform="translate(-11.6 -9.82)"/><path d="M157.21,398.79c-.63-6.92-1.37-13.84-1.87-20.77-.49-6.75-.73-13.52-1.13-21.33-1.15,1.61-1.86,2.51-2.47,3.48-1.11,1.75-2.15,3.55-3.26,5.31-1.4,2.23-3.38,3.64-5.68,1.66-2.85-2.46-3.81-5-1.95-7.56,3-4.15,6.23-8.12,8.91-12.44,1.62-2.61,3.51-3.63,6.34-3.08a6.69,6.69,0,0,1,5.58,5.11,16.74,16.74,0,0,1,.63,3.34c.52,9.59.85,19.19,1.52,28.77.41,5.88,1.33,11.73,2,17.63a17.22,17.22,0,0,1,3.81,1.06,50.14,50.14,0,0,1,4.72,3.29c-1.34,1.72-2.46,3.74-4.12,5.06-1,.81-2.88.67-4.37.76-4.67.27-9.34.47-14,.66-3.2.13-4.78-1.44-5.43-4.63s1.51-3.59,3.36-4.35c2-.83,4.14-1.34,6.22-2Z" transform="translate(-11.6 -9.82)"/><path d="M527.09,265.76c0-6.69.87-12.86,6-17.73,1.74-1.63,2.93-4,6-2,1,.66,3.08-.47,4.34,0,3.31,1.31,6.81,2.6,9.56,4.76,6.18,4.86,11.24,10.83,10.48,19.36-.8,9-6.26,19.49-14.7,21.8s-18.51-3.88-19.86-12.46C528.27,275,527.72,270.36,527.09,265.76Zm17,18.51c1.43-.4,3.07-.47,4.25-1.25,5.14-3.37,6.65-8.77,7.15-14.41a9.47,9.47,0,0,0-1.6-6.36,26.38,26.38,0,0,0-7.56-6c-6.26-3.42-11.05-1.35-11.54,5.33A64.17,64.17,0,0,0,536,277.32C536.9,282.48,538.88,283.69,544.1,284.26Z" transform="translate(-11.6 -9.82)"/><path d="M480.54,239.74c8.22,1.38,15.38,4.8,19.8,12.13,3.2,5.32,6.6,10.93,5.88,17.53-.62,5.61.47,11.86-4.71,16.19-.51.43-.86,1.16-1.43,1.39-4.58,1.77-9.2,1.72-14.08,1.07-8.27-1.11-8.36-7.39-9.37-13.28-1.67-9.76-3.28-19.52-4.94-29.29a3.86,3.86,0,0,1,2.9-4.6A42.16,42.16,0,0,1,480.54,239.74Zm18.32,30.06c-.43-2.73-.57-5-1.14-7.07-2-7.42-6.72-12.27-14-14.57-2.24-.71-3.75-.12-3.55,2.57.15,2.08.35,4.17.71,6.23,1.14,6.59,2.27,13.18,3.6,19.74.42,2.09,1.45,3.83,4.26,3.72,3.23-.13,6.61,0,8.2-3.39C498,274.67,498.31,271.95,498.87,269.8Z" transform="translate(-11.6 -9.82)"/><path d="M135.24,197a55.14,55.14,0,0,0,6.95-.68c2.69-.6,4.06.45,4.59,2.89.85,3.89-.39,6.63-3.33,6.64a124.72,124.72,0,0,1-16.1-.74c-4.09-.51-5.43-5.18-2.82-8.32,5.55-6.68,8.07-14.71,10.25-22.9,1.31-4.93,1-9.46-2-13.95-3-4.66-10.85-5.42-13.77-.82-1.15,1.81-1.6,4.07-2.76,5.86-.76,1.18-2.44,2.81-3.35,2.61-1.35-.3-3.38-2-3.4-3.16a22.64,22.64,0,0,1,6.31-16.37c1.61-1.66,5.8-1.44,8.7-1.1,9.49,1.1,16.35,9.42,18.16,18.27,1.55,7.58-1.5,14.14-3.33,21C138.38,189.87,136.7,193.29,135.24,197Z" transform="translate(-11.6 -9.82)"/><path d="M200.92,389c1.44,5.09,2.72,10.23,4.4,15.24.92,2.74.19,7.15-2.39,8.63a112.6,112.6,0,0,1-10.76,5.42c-2.65,1.17-4.11-1-4.55-2.94-.33-1.44.67-3.29,1.37-4.83.28-.61,1.32-.93,2.07-1.24,4.78-2,5.37-2.95,4.45-8.11-2.72-15.22-4.34-30.66-9.44-45.39a22.41,22.41,0,0,1-.76-6.22c-.2-4.39-3.48-5-6.73-5.56-1.71-.32-3.46-.43-5.18-.68-2-.3-4.67-3.61-4.34-5.42.44-2.39,3.38-3.69,6.25-2.92,3.58,1,7.17,2,10.81,2.62,3.32.59,5,2.74,5.66,5.61,1.46,6.12,2.57,12.32,3.91,18.47,1.83,8.43,3.75,16.84,5.63,25.26.14.62.24,1.24.36,1.86Z" transform="translate(-11.6 -9.82)"/><path d="M420,79.79c.66,9-8,18.28-17,18.63-5.3.21-11.81-4.78-14.15-10.73A41,41,0,0,1,389,56.44,5.18,5.18,0,0,1,392.39,54c7.42-1.55,14.31-.34,19.94,5.07A15.12,15.12,0,0,1,416,64.43c1.86,4.94,3.33,10,4.95,15.06Zm-7-2.2a16.15,16.15,0,0,0-9.74-14.71c-4.13-1.7-8.55.05-9.54,4.31A26.76,26.76,0,0,0,396.38,87a6.82,6.82,0,0,0,5.15,2.87C408.88,89.63,412,83.41,412.92,77.59Z" transform="translate(-11.6 -9.82)"/><path d="M399.22,263.17c-.65-5.38,2.23-11.48,5.55-17.34,1.88-3.31,5.32-4.78,9-5.42a3.36,3.36,0,0,1,1.86.58c3.19,1.69,6.34,3.46,9.53,5.15,5.95,3.15,8.23,8.19,8.42,14.59.21,7.12-2.69,13.13-5.22,19.28-2.91,7.07-14.14,11.74-20.41,8.76a7.24,7.24,0,0,1-3.39-3.19C401.06,277.55,399.51,275.21,399.22,263.17Zm6.13,1.46c1,4.79,1.58,9.06,2.82,13.13s4.95,5.27,8.38,3.19a20.74,20.74,0,0,0,4.93-4.33,24.5,24.5,0,0,0,5.44-14.74c.19-3.35-.33-7-4.42-8.59a37.32,37.32,0,0,1-4.61-2.38c-3.76-2.07-7.12-1.34-8.8,2.51S406.49,261.12,405.35,264.63Z" transform="translate(-11.6 -9.82)"/><path d="M70.74,311.76c-4.26-.59-8.54-1.11-12.79-1.8-2-.32-4.66-6.54-4.23-8.83a39,39,0,0,0,1-8.5c-.29-8.07-1.09-16.12-1.38-24.18s-.44-15.87-.2-23.8c.19-6.07.55-6,6.28-6.84,2.06-.29,4.05-1,6.1-1.37,3.72-.75,5.88.53,6.19,3.56.22,2.11-3,5.44-5.41,5.63-6.74.52-6.74.58-6.59,7.7.12,5.93-.29,11.89.2,17.79.68,8.06,2,16.07,3,24.1.1.8.29,1.6.32,2.41.2,5.46,1.24,6.24,6.66,5,2.89-.66,6-2.16,7.93,1.67.62,1.23,1.87,3,1.45,3.72a8.42,8.42,0,0,1-4,3.3c-1.31.54-3,.11-4.55.11Z" transform="translate(-11.6 -9.82)"/><path d="M433.63,62c6.9,1.79,12.4,5.34,15.93,11.33a23.12,23.12,0,0,1,2.06,18.85c-1.76,5.89-14.62,10.43-20,7.5-2.12-1.17-3.58-5.31-2.28-7.52,1.42-2.42,3.35-1.54,5.45-.49,4.13,2.07,10.79-3.19,10.31-8.06-.68-6.9-4.12-10.83-11.72-12.69-6.18-1.51-7.84-3-7.74-9.39,0-2.54.56-5.07.62-7.61.06-2.85,1.61-4.48,4.15-4.73,6.81-.67,13.65-1.24,20.49-1.4,1.42,0,3.46,1.58,4.14,3,.48,1-.42,3.54-1.45,4.18a15.34,15.34,0,0,1-6.28,1.76,69.44,69.44,0,0,1-7.42,0C435,56.73,434.81,56.87,433.63,62Z" transform="translate(-11.6 -9.82)"/><path d="M63.63,219.41c-9.21-1-12.19-2.5-13-14.71-.61-9.13-.9-18.28-1.46-27.42s-1.68-18.34-1.82-27.53c-.07-5,.26-10.25,3.14-14.73a4,4,0,0,1,2.86-1.78c3.23.22,6.78-.27,8.63,3.74,1.19,2.58-.53,4.35-1.89,4.32-7-.15-5.32,5.41-5.82,8.93s.23,7.44.57,11.16c.37,4.07,1,8.11,1.35,12.18.54,5.69,1,11.4,1.45,17.1.49,6,.84,12,1.48,18,.33,3.11,2.64,2.34,4.53,1.67,3-1,5.2-.42,6.66,2.49,1.88,3.73.69,5.65-4.13,6.51A17,17,0,0,1,63.63,219.41Z" transform="translate(-11.6 -9.82)"/><path d="M90.42,86.87a65,65,0,0,0-6.81,1.18,38.94,38.94,0,0,0-4.9,2.08c-.69,3.9-1.23,7.48-2,11-.52,2.38-1.94,4.3-4.66,3.6-2.46-.63-3.46-2.69-3-5.21.64-3.75,1.43-7.47,2.11-11.21Q73.62,74.66,76.08,61a59.36,59.36,0,0,1,1.29-6.53c.28-.94,1.28-2.23,2.08-2.32a3.91,3.91,0,0,1,3.21,1.31,75,75,0,0,1,4.46,8.61c3.4,7.46,6.58,15,10.11,22.41.94,2,3.18,3.33,4.11,5.31s1.63,4.49,1.1,6.41c-.78,2.84-4,2.86-6.06.16-1.6-2.11-2.83-4.51-4.23-6.77C91.48,88.54,90.8,87.49,90.42,86.87Zm-4-9.37-4.12-8.27-.75.09L80,80.9Z" transform="translate(-11.6 -9.82)"/><path d="M147.83,270c9.64,3,13.22,9.91,14.64,18.8,1,6-5.47,12.41-10.44,13.34a12.93,12.93,0,0,1-7.25-.76c-1.25-.56-2.22-3.12-2.15-4.74,0-.88,2.68-2.56,3.84-2.32,3.87.78,6.29-.81,7.33-4.1a8.79,8.79,0,0,0-4.41-10.47c-2.72-1.29-5.28-2.29-8.5-1.07-1.18.45-3.7-.59-4.54-1.74-1.66-2.26-2.56-5.07,0-7.6,1.21-1.21,2.44-2.4,3.63-3.64,1.73-1.8,3.89-3.77,2.32-6.39-1.31-2.19-7.09-2.18-9.69-1.25-1.78.64-4.7.87-5.85-.14-1.93-1.7.06-6.65,2.16-8,6-3.79,16,.34,20,4.11,2.71,2.55,2.91,9,.61,13.17C149.07,268,148.57,268.76,147.83,270Z" transform="translate(-11.6 -9.82)"/><path d="M170.35,312.36c-1.37-2.16-2.91-3.77-3.37-5.65-.24-1,1.23-2.63,2.28-3.6.67-.62,2-.65,3-.79,2.57-.33,3.81-1.91,3.55-4.29-.65-6.09-1.33-12.2-2.38-18.23-1.34-7.71-3.11-15.34-4.57-23-.46-2.42-.39-4.93-.74-7.37-.39-2.69-2.44-3.49-4.79-3.75a56.19,56.19,0,0,0-6.56-.59c-2.42,0-3.55-1.3-3.64-3.36a11,11,0,0,1,1.06-4.29,2.1,2.1,0,0,1,1.75-.77c3.51.33,7,1.06,10.52,1.14a6.78,6.78,0,0,1,6.57,4.85,98.92,98.92,0,0,1,3.36,12.61c1.5,6.78,2.86,13.59,4.19,20.41,1.07,5.47,2,11,3,16.45.52,2.72.84,5.57,1.94,8.06,1.19,2.68.37,5-1.48,6C180,308.49,175.51,310.09,170.35,312.36Z" transform="translate(-11.6 -9.82)"/><path d="M175.12,202.91c0,7.87-2.67,10.82-10.31,11.66a8,8,0,0,0-2.22.83c-2.1.93-5.54-.53-6.42-2.74a4.19,4.19,0,0,1,3.16-5.84c2.81-.5,5.87-.55,6.44-4.07a29.86,29.86,0,0,0,.17-8.11c-1-8.91-2.19-17.82-3.58-26.69-.95-6-2.3-12-3.6-17.93-.79-3.59-3.61-4-6.7-4-1.34,0-3.18.3-3.91-.43a8.35,8.35,0,0,1-2.47-4.9c0-.79,2.31-2.13,3.77-2.51a17.4,17.4,0,0,1,5.86-.31c6.07.54,10.06,5,11.29,12.54,1.73,10.63,3.28,21.28,5,31.91C172.72,189.32,174,196.26,175.12,202.91Z" transform="translate(-11.6 -9.82)"/><path d="M132,46.65c0-3,1.52-4.15,4.8-4,1.68.1,3.54.32,5-.25,5.84-2.22,8.49,1.47,9.86,6.3,1.82,6.44,3.36,13,4.74,19.51.76,3.63.54,7.49,1.44,11.07a173.75,173.75,0,0,0,6.23,20.83c2.49,6.34-.37,9.26-5,11.19a70.92,70.92,0,0,1-9.94,3c-2.92.73-4.59-.79-5.09-3.61s1-5,3.87-5.13c8.35-.39,8.62-3.1,6.75-10.71-2.15-8.75-4.76-17.34-5.21-26.51-.25-5.19-2.5-10.28-3.74-15.44-.57-2.39-2.12-2.83-4.16-2.47-1.71.3-3.37.82-5.08,1.11C133.94,52.06,132,49.85,132,46.65Z" transform="translate(-11.6 -9.82)"/><path d="M433.84,158.12c-3,.52-6.11.56-8.8,1.69-3.18,1.33-3,2.83.1,4.35,4.25,2.07,8.43,4.3,10.7,8.64a87.86,87.86,0,0,1,5.9,13.16c1.25,3.81-1.78,9-5.62,11.26-3.16,1.84-6.37,1.29-10.21-1.92a77.79,77.79,0,0,1-7.06-6.45c-.65-.69-.88-2.86-.39-3.28a4.24,4.24,0,0,1,3.59-.63A13.54,13.54,0,0,1,426,187.8c2,1.76,4.1,3.39,6.72,1.56,2.9-2,2-5.1.87-7.5a18.65,18.65,0,0,0-9.2-9.56c-3.86-1.8-7.93-3.7-9.32-8.63-1.95-6.87,4.26-14.67,11.39-14.28,3.53.19,7.11-.62,10.64-.46a13.36,13.36,0,0,1,6.64,1.93c.91.62,1.25,3.64.54,4.73-.92,1.42-3,2.36-4.82,2.85s-3.66.1-5.51.1Z" transform="translate(-11.6 -9.82)"/><path d="M536.61,191.91c-10,0-13.91-4.27-13.87-15,0-4.36.2-8.92,1.49-13,1.1-3.49,3.84-6.48,6-9.59a2.5,2.5,0,0,1,2.2-.61c5.48,1.56,11.25,2.26,15.88,6.21,5.06,4.32,4.8,10,4.52,15.72A26.18,26.18,0,0,1,551,183C548.4,190.1,543,192.65,536.61,191.91Zm-1.47-29.72c-4.38,3.33-7.29,13.51-5.08,18.32a6,6,0,0,0,2.79,3.06c4.13,1.48,9.53-1.26,11-5.38a35.11,35.11,0,0,0,1.11-5.33c.59-3.35-.54-5.84-3.69-7.38C539.26,164.5,537.35,163.38,535.15,162.19Z" transform="translate(-11.6 -9.82)"/><path d="M641.1,120.63c-1.26-2.83-3.31-5.61-3.69-8.6-1.12-8.83-1.46-17.76-2.34-26.62-.49-4.94-1.66-9.81-2-14.75-.13-1.7.7-4.23,2-5.15,7-5,18.74-2.11,21.49,6.45,2.1,6.54-.39,14.78-6.59,17.48-2.2,1-4.94.68-7.83,1,.66,5.46,1.28,11.16,2.08,16.83.29,2,1.13,4,1.47,6.05C646.12,116.31,645.68,119,641.1,120.63ZM641.42,78c-.27,1.76.12,3.57,3.15,3.5,2.49-.06,5.46-3.25,5.2-6s-2.54-4-4.92-3.81C641.47,71.92,641.52,74.82,641.42,78Z" transform="translate(-11.6 -9.82)"/><path d="M501.66,177.4c1.46,5,2.94,9.79,4.19,14.59a10.2,10.2,0,0,1,.27,5.17c-.31,1.06-2,2.16-3.2,2.44-3.16.7-3.81-2.3-4.19-4.13-2.37-11.51-4.4-23.09-6.57-34.64-.34-1.82-.85-3.6-1.21-5.41-.46-2.29-.55-4.73,2.08-5.62,3.42-1.16,7-2.62,10.52-2.56,7,.11,9.85,6.46,13.86,10.83.9,1,.75,3.2.6,4.81-.62,6.43-6.71,12.54-13.09,13.46A21.39,21.39,0,0,0,501.66,177.4Zm-2.33-9.25c1.94-.39,3.4-.79,4.88-1,3.42-.38,4.93-3.19,5.34-5.69.25-1.56-1.73-4.09-3.38-5.16-1.47-1-3.9-.8-5.82-.53-.73.1-1.72,1.88-1.73,2.9C498.61,161.67,499,164.62,499.33,168.16Z" transform="translate(-11.6 -9.82)"/><path d="M604.47,264.65c-.16,3-.27,6.06-.49,9.09-.36,4.93-3.36,8.18-7.15,10.85-1.33.94-2.89,1.57-4.16,2.57-3.93,3.09-9.06,1.16-12.1-2.13-6.42-6.95-9.5-15.26-9.92-24.71-.13-3-1.19-6-1.65-9-.34-2.22.28-4.06,3-4.17s4.84.84,5.1,4c.28,3.36.17,6.79.8,10.09a129.45,129.45,0,0,0,3.46,13.29c1,3.23,3.76,5.58,6.76,4.92a11,11,0,0,0,6.81-5.29c1.45-3.16,1.67-7.14,1.47-10.72-.27-4.71-1.52-9.36-2.23-14-.34-2.23.4-4,2.95-4.35,2.83-.43,5.94,1.6,6.15,4.24.4,5.14.64,10.29,1,15.43Z" transform="translate(-11.6 -9.82)"/><path d="M450.74,380.69c1.68.3,3.12.6,4.58.8,3.16.43,4.92-1.6,4.11-4.67-1.73-6.55-5.07-11.46-11.47-14.78-8.78-4.56-8.28-15.37.82-21.34,1.69-1.11,4.1-1.29,6.22-1.51,2.83-.29,5.71-.13,8.56-.27,1.38-.07,2.76-.46,4.14-.52,2.66-.11,4.63,1.16,5.17,3.75s-1.93,5.13-4.84,5.39c-1.63.14-3.32-.21-4.93,0-2,.27-4,.95-6,1.34-1.07.21-2.25,0-3.25.32-1.36.48-3.07,1-3.7,2.11-.41.69.5,3,1.42,3.5,9.36,5.19,13.35,13.7,15.16,23.66.12.68.36,1.33.52,2,1,4.31-.7,7.37-4.93,8.8-.55.19-1.1.37-1.64.6C453.18,393.14,449.93,387.77,450.74,380.69Z" transform="translate(-11.6 -9.82)"/><path d="M376.64,237.05c2.17,1.2,4.65,2.08,6.38,3.74.77.74.56,3.41-.21,4.53-.51.75-2.85.65-4.23.32-3.28-.79-5.77.22-8.13,2.42s-4.42,4.56-2.65,7.72a9.36,9.36,0,0,0,4.89,3.91c12.59,4.06,19.45,12,20.29,24.61.35,5.3-5.37,9-10.87,8.66-3.24-.23-6.45-.84-9.66-1.33a4.83,4.83,0,0,1-3.85-6.22c.74-2.23,2.78-2.33,5-1.72a43.39,43.39,0,0,0,7.88,1.53c3.86.33,5.19-1.35,4.38-5.07-1.33-6.1-5.92-9.17-11-11.74-2-1-4-1.86-6-2.7-7.45-3.09-10.46-9.46-7-17.62C364.9,241.07,369.44,237.75,376.64,237.05Z" transform="translate(-11.6 -9.82)"/><path d="M689,368.2c-.46,2.18.54,3.95,3.3,4.1,3.61.19,7.24.07,10.85,0,1.5,0,3-.57,4.49-.59,1.89,0,4.17-.5,4.61,2.43.49,3.32-.85,5.88-3.58,6.66a9.32,9.32,0,0,1-2.7.62c-6.65-.22-13.51.9-19.69-2.66a7.48,7.48,0,0,1-2.92-2.74c-6.63-13,4.2-25.56,14.78-27.62,5.14-1,11.14,4,11.69,9.3.22,2.15-2.83,6-6,6.88C699,365.92,694.15,366.94,689,368.2Z" transform="translate(-11.6 -9.82)"/><path d="M524.43,48.3c4.92.86,8.6,3.36,9.4,6.87.59,2.63-.75,4.49-3.07,3.53-9.08-3.77-12.55,3.71-17.12,8.47a16.48,16.48,0,0,0-4.32,8.53c-1.37,9.88,6.83,15.17,17,13.53a30.79,30.79,0,0,0,3.76-.72c2.71-.79,5.15-.46,5.82,2.55s-2.34,6.64-5.17,6.62c-4.49,0-9.16.3-13.44-.77C504.2,93.66,495.36,77.09,506.21,63a76.75,76.75,0,0,1,10.58-11C518.84,50.16,521.85,49.48,524.43,48.3Z" transform="translate(-11.6 -9.82)"/><path d="M35.53,65.44c1.54-6.1,2.92-12.25,4.76-18.27.32-1,2.47-1.83,3.91-2.17,2.19-.52,4.51-.47,6.75-.79,3-.43,4.05,1.57,4.5,3.8.49,2.47-.22,4.33-3.4,4.43-5.24.16-6.74,1.7-7.88,6.85-1.46,6.59-.72,13.06.46,19.58s1.84,13.35,3.15,19.95c1.15,5.81,1.41,5.76,7.17,4.78,2.66-.45,6.85,1.91,6.71,4.31a6.3,6.3,0,0,1-2.87,4.47c-1.73.91-4.08.79-6.17.8-2.27,0-4.54-.49-6.81-.51-3.69,0-4.74-2.45-5.1-5.42q-2.17-18-4.2-35.93a50.93,50.93,0,0,1,0-5.66Z" transform="translate(-11.6 -9.82)"/><path d="M403.8,198.16c-4.1-1.17-6.13-3.54-6.45-7.33-.22-2.64-.5-5.28-.81-8.44l-6.33,1.39c-8.37,1.81-12.81-4.16-11.92-11.23a115.25,115.25,0,0,0,.63-14.81c0-3,1.18-5.15,3.68-5.34a4.82,4.82,0,0,1,4.78,4.9c-.07,2.91-.5,5.8-.62,8.71s0,5.64,0,8.43c5.7.88,8.66-2,7.82-7.34a49.13,49.13,0,0,1-1-6.51,15.08,15.08,0,0,1,1.11-5.49c.14-.36,2.51-.49,3.07.06,1.49,1.47,3.24,3.24,3.62,5.14.78,3.88.6,7.93,1,11.89.56,5,1.35,9.92,2,14.88a5.62,5.62,0,0,0,.37,2C406.77,192.43,406.2,195.38,403.8,198.16Z" transform="translate(-11.6 -9.82)"/><path d="M117,67.31c-.87.16-1.43.2-2,.37-1.71.52-3.42,1.74-4.84-.61s-2-4.37-.36-6.74c2-2.85,3.84-5.81,6-8.56.56-.72,2.26-1.39,2.88-1.06,1.3.69,3,1.95,3.2,3.19,1,6.18,1.56,12.43,2.36,18.64.88,6.81,1.8,13.62,2.84,20.41.42,2.73,2.58,1.93,4.44,1.94,1.69,0,4.45,0,4.83.91a7.56,7.56,0,0,1,0,6c-.73,1.29-3.26,1.95-5.07,2.15-4.76.54-9.57.8-14.36.93-1.69,0-3.89-.08-5-1.08-.87-.83-.94-3.31-.36-4.61.47-1,2.39-1.84,3.76-2,3.52-.41,4.83-1.54,4.45-5.3C119,83.74,118,75.62,117,67.31Z" transform="translate(-11.6 -9.82)"/><path d="M639.6,367.13c1.32,2.65,2.46,5,3.61,7.26,1.43,2.84,1,5.34-1.16,6.22-2.38,1-5.08-.32-6.07-3.1-1.58-4.43-3.25-8.84-4.5-13.36-.86-3.09-.93-6.39-1.63-9.54a14.26,14.26,0,0,0-2.14-5.49c-2.39-3.14-2.44-4.53.63-7,7.3-5.86,19.64-2.23,23.69,7.1.92,2.13,1.92,4.64,1.62,6.8C652.86,361.77,647.63,365.78,639.6,367.13Zm-2.49-9.28,1,1.14a58.79,58.79,0,0,0,7.62-3.89c.51-.34.18-3.06-.61-3.94-2.13-2.37-4.53-4.79-8.78-3.14Z" transform="translate(-11.6 -9.82)"/><path d="M570.2,187.29c1,3.84,1.83,7.17,2.61,10.52a2.72,2.72,0,0,1-3,3.61c-1.38-.12-3.54-1.53-3.8-2.71-1.29-5.75-2-11.62-3-17.43A124,124,0,0,0,560,167c-1.31-4.33,0-8.09,4.42-8.9,5.84-1.06,14.94.86,18.72,7.52,4.75,8.39,0,16.88-7.49,19.79C574,186.11,572.18,186.63,570.2,187.29Zm-1-9.24c1.4-.56,1.82-.76,2.27-.9,3.26-1,6.31-4.21,6.1-6.35-.24-2.39-3.94-4.91-7.57-5-.68,0-2,.92-1.95,1.34C568.24,170.69,568.72,174.19,569.16,178Z" transform="translate(-11.6 -9.82)"/><path d="M630.51,248.85c.53,5.84.92,10.93,1.46,16,.74,6.91,1.78,13.8,2.28,20.73a5.64,5.64,0,0,1-2.57,4.34c-.77.42-3.14-1-4.07-2.22a9.36,9.36,0,0,1-1.62-4.83c-.82-9.76-1.45-19.55-2.22-29.31a14.37,14.37,0,0,0-1.08-3.15c-2.7.84-5.15,1.51-7.53,2.36-2.9,1-4.41-.08-5.72-3.5-1.23-3.21.21-4.18,2.92-4.88,4.83-1.24,9.55-3.39,14.43-3.79,4.09-.33,8.46.94,12.44,2.3,1.15.39,2.21,3.73,1.81,5.34-.5,2-2.7,3.06-5.19,2.09C634.39,249.76,632.83,249.48,630.51,248.85Z" transform="translate(-11.6 -9.82)"/><path d="M610,373.89l.49-6-.9-.41c1.76-.84,3.45-2.19,5.29-2.43,3.64-.46,5.56,3.72,3.75,8.24a25.35,25.35,0,0,1-3.28,5.65c-3.13,4.18-7.13,4.55-11.14,1.06a63.58,63.58,0,0,1-4.49-4.82c-.77,1.92-1.23,3.88-2.27,5.46s-2.4,3.13-4,3.63c-2.36.76-4.51-.17-5.56-2.88-2-5.16-4.08-10.3-6.29-15.38-1.08-2.48-.71-4.28,1.86-5.21,2.73-1,4.09.54,4.91,3,1,2.89,2.09,5.73,3.15,8.59l1,0c.51-2.74,1.13-5.46,1.48-8.21.33-2.56.82-5.14,3.64-5.75,3-.64,4.28,1.68,5.24,4.06C604.45,366.24,605,370.59,610,373.89Z" transform="translate(-11.6 -9.82)"/><path d="M283.93,277.69c5.95,2.22,11.26,4.35,16.68,6.18,4,1.34,5.79,4.3,4.51,8.14-.85,2.53-2.42,3.17-4.88,1.94-7.64-3.84-15.39-7.47-22.93-11.5-1.64-.88-2.85-2.94-3.74-4.72-1.15-2.28.6-3.51,2.15-5.11,4.22-4.37,7.84-9.33,12.06-13.71a66,66,0,0,1,10.15-8.57c1.56-1.07,4-1.26,4.67,2,1.11,5.09,1.33,5.05-3.67,7.79-4.66,2.55-7.8,6.52-10.54,10.92C287.24,273,285.95,274.72,283.93,277.69Z" transform="translate(-11.6 -9.82)"/><path d="M536.34,389.21l-10.71-3.46c-9.41-3-12.73-7.12-12.87-17-.12-9.14,2.29-17.75,8-24.95,1.82-2.3,5.26-3.75,8.25-4.6,3.74-1.06,7.82,3.29,6.89,7.1-.24,1-2.34,2.29-3.41,2.14-3.91-.52-6.55.27-8.42,4a37.21,37.21,0,0,0-4.13,19.71,5.77,5.77,0,0,0,3.06,4.16c3.5,1.21,7.34,1.42,10.91,2.46a9,9,0,0,1,4.89,3.18c.75,1.19.14,3.44-.31,5.09C538.22,388,537,388.56,536.34,389.21Z" transform="translate(-11.6 -9.82)"/><path d="M639.78,184.84c-5.74-1.23-14.31-4.34-16.16-11.4-.62-2.38.09-5.23.63-7.77a24.59,24.59,0,0,1,2.5-6.76,4.86,4.86,0,0,1,3.36-2.26,46.85,46.85,0,0,1,8.71.67c5.72.85,11.21,3.35,13,10.58C653.63,175,646.73,184.92,639.78,184.84Zm-1.1-8.4c2.69.06,6.38-3.56,6.32-6.22-.05-2.34-3.73-4.93-7-5-3.16,0-7.78,3.73-7.79,6.34C630.15,174,634.1,175.75,638.69,176.44Z" transform="translate(-11.6 -9.82)"/><path d="M323.91,270.62c4.19,3,8.18,3.36,12.31,3.2,3.54-.13,9.5,3.1,8.69,6.4-.37,1.48-.86,3.4-1.95,4.1s-2.94.11-4.37-.24c-2.56-.63-5.06-1.51-7.58-2.3-4.53-1.42-9.15-2.62-13.57-4.34-4.19-1.63-4.84-6.38-1.81-9.73q7.95-8.8,15.69-17.77c2.06-2.38,4-1.38,5.73.08,2.72,2.35,1.7,6.09-1,8.45C331.77,262.13,328.05,266.41,323.91,270.62Z" transform="translate(-11.6 -9.82)"/><path d="M447,258.38c.66,6.69,1.23,13.39,2.07,20a3.84,3.84,0,0,0,2.32,2.7,36,36,0,0,0,8.46.62c3-.15,6.48,1.72,6.82,4.18.48,3.58-2.14,6.13-6.07,5.62-4.61-.6-9.2-1.35-13.78-2.16-2.56-.46-5.51-4-5.57-6.53-.27-12.09-.47-24.18-.75-36.27,0-2.17.15-4.41,2.8-4.32,2.39.08,4.4,1.29,4.3,4.39-.13,3.88,0,7.77,0,11.66Z" transform="translate(-11.6 -9.82)"/><path d="M605.42,68.81c2.12,4.3,5.44,4.54,8.3,5.63,3.3,1.27,6.73,2.42,9.66,4.32,3.24,2.1,3.56,5.76,3.07,9.37S623.09,93,620,94c-3.51,1.21-6.86.5-10.18-.53A4.65,4.65,0,0,1,606.63,88c.46-2.68,3.07-2.37,5.18-2.25,2.29.13,4.57.33,6.86.5l.4-1.73a40.89,40.89,0,0,0-5.71-2.39c-6-1.52-11.29-3.76-13.73-10a8.74,8.74,0,0,1,1.11-8.9c2.15-2.78,5.37-4.25,8.63-2.8a10.66,10.66,0,0,1,4.91,5.22c.79,1.84-.37,3.76-3.26,3.21A34.48,34.48,0,0,0,605.42,68.81Z" transform="translate(-11.6 -9.82)"/><path d="M680.35,85.21c.38-5.28-4-5.66-6.55-7.12-3.43-1.95-5.93-4.26-7.22-8s.93-6.28,3.27-8.23,5.33-3.39,8.73-1.76c2.47,1.18,3.55,3.08,3.14,5.67s-2.18,3.34-4.67,3c-.66-.1-1.4.38-2.77.8,4,2.29,7.45,4.11,10.74,6.19s5.42,7.95,4.08,11.37c-1.64,4.17-3.59,5.88-8.65,6.06a72.34,72.34,0,0,1-9.55-.38c-2.71-.27-5.19-3.37-4.58-5.71.72-2.76,2.89-2.87,5.33-2.54C674.37,84.92,677.13,85,680.35,85.21Z" transform="translate(-11.6 -9.82)"/><path d="M690.51,165.89c.47-3.54.25-6.19,5.23-7.3,2.66-.59,5.48-3,8.23-1.65,3.9,1.86,8.46,3.93,10.72,7.27,3.21,4.74,4.71,10.68,6.6,16.22.27.8-1.12,2.62-2.18,3.29-1.35.85-3.44,1.85-4.41-.53a72,72,0,0,1-3.06-9.29c-1-3.9-3.51-6.4-6.82-8.34-2-1.17-3.74-.65-4.1,1.44a51.1,51.1,0,0,0-.46,9.29,15.83,15.83,0,0,0,.91,4.74c.87,2.6-.13,3.81-2.56,4.66-2.81,1-3.93-1.31-4.33-2.77C692.73,177.33,691.72,171.58,690.51,165.89Z" transform="translate(-11.6 -9.82)"/><path d="M705,262.35c-4.76-3.46-9-6.3-12.91-9.49a13.16,13.16,0,0,1-3.75-5.2c-.41-1,.49-3.73,1.15-3.85a7.29,7.29,0,0,1,5,.91c3.85,2.55,7.35,5.62,11.16,8.24,1.78,1.22,4.21,1.54,5.88,2.85a14.47,14.47,0,0,1,4.64,5.58c.36.92-1.74,3.1-3.07,4.33-4.49,4.15-9.06,8.23-13.77,12.13-1.53,1.27-3.56,2.59-5.38,2.63-1.33,0-3.49-1.8-3.86-3.18a5.93,5.93,0,0,1,1.43-5.09C695.69,268.75,700.26,265.78,705,262.35Z" transform="translate(-11.6 -9.82)"/><path d="M671,262c-4-1.79-8-3.36-11.75-5.39-2.82-1.52-5.53-3.39-4.36-7.57.76-2.73,1.81-3.6,4-1.84,5.84,4.79,13,6.25,19.93,8.23a5.59,5.59,0,0,1,4.32,4.35c.48,1.95.2,3.56-2.09,5.09-3,2-5.12,5.3-7.76,7.89a92.88,92.88,0,0,1-9.26,8.45c-2,1.48-4.32.56-5.76-1.58-1.58-2.35-.47-5.29,1.9-7.17,3.61-2.86,6.94-6.09,10.36-9.19C670.77,263.06,670.81,262.53,671,262Z" transform="translate(-11.6 -9.82)"/><path d="M344.88,387c-.58-4-1.24-8-1.71-12-.83-7.17-1.53-14.36-2.3-21.54-.27-2.48-.72-5-.82-7.44,0-1,.48-2.83,1-2.95,1.32-.28,3.2-.24,4.14.53a7.49,7.49,0,0,1,2.48,4.32c1.79,12.12,3.27,24.28,5.1,36.39a38.61,38.61,0,0,0,2.88,8.84c1.08,2.59.41,4.22-1.92,5.5-2.56,1.4-5,.53-6.09-1.57-1.57-3.06-2.23-6.59-3.27-9.92Z" transform="translate(-11.6 -9.82)"/><path d="M575.65,373c.06,5.08-6.75,11.18-13,11.09-8.16-.12-12.85-4.37-13.7-12.78-.65-6.43,7.28-12.45,15.51-12.45C567.78,358.85,575.76,366.95,575.65,373Zm-14.95,4.26c2.45-1.09,4.56-1.53,5.88-2.79,1-1,1.85-3.44,1.3-4.41-.8-1.42-2.82-2.47-4.52-2.95a4.46,4.46,0,0,0-3.71,1.26c-1.33,1.48-2.84,3.48-2.83,5.25C556.85,374.83,559.31,376,560.71,377.25Z" transform="translate(-11.6 -9.82)"/><path d="M324.57,157.43c.78-1,1.57-3.16,2.72-3.37,2.22-.41,3.93,1.06,4.36,3.56a52.13,52.13,0,0,1,1.19,6.37c.45,10.16,3.46,19.76,6.16,29.43.87,3.1,2,6.22,2.24,9.38a6.63,6.63,0,0,1-2.33,5c-1.66,1.25-2.76-.59-4.06-2-2.07-2.16-2.26-4.51-2.7-7.18-.95-5.78-2.66-11.44-3.71-17.21C327,173.74,325.93,166,324.57,157.43Z" transform="translate(-11.6 -9.82)"/><path d="M545.73,68.19c2.56-1,4.47-1.65,6.32-2.45,5.89-2.56,11.46-1.2,16.75,1.61,2.46,1.31,2.6,3.76,1.2,6.09-1.3,2.18-3.07,1.58-5.16,1-2.83-.75-5.79-3-8.77,0-2.32,2.29-1.66,5-1.07,7.51.49,2.11,1.76,4.05,2.2,6.17.25,1.18-.09,3.2-.88,3.69-1.11.68-3.66.92-4.22.23a23.13,23.13,0,0,1-3.89-7.14,79.51,79.51,0,0,1-2.72-11.45A22.34,22.34,0,0,1,545.73,68.19Z" transform="translate(-11.6 -9.82)"/><path d="M602.19,156.52c4.9,0,6.79,1.9,5.89,5.79-.24,1.06-2.11,2.67-2.91,2.5-2.71-.57-3.93,1.23-4.47,2.88-.76,2.35-1.54,5.06.6,7.37,2.5,2.7,5.54,3.36,9.08,2.88,3.17-.43,5.69,2.07,5.55,5.54-.13,3.16-2.49,3.8-5,3.44-5.87-.84-11.53-2-15.44-7.34-5.31-7.3-2.27-21,4.66-22.49C601.07,156.89,601.94,156.59,602.19,156.52Z" transform="translate(-11.6 -9.82)"/><path d="M669.1,166.6c.49,3.71,1.14,8,1.56,12.32.1,1.06-.23,2.84-.89,3.14a5.09,5.09,0,0,1-3.79-.19,4.36,4.36,0,0,1-2-2.66c-1.12-4.56-2.64-9-1.38-13.93.94-3.66.92-7.57,1.57-11.32.58-3.34,3.14-4.74,6.18-4.44a96.4,96.4,0,0,1,11.3,2.12c2.3.51,3.15,2.35,2.84,4.47-.34,2.33-1.71,3.73-4.35,3.1-.56-.14-1.16-.13-1.72-.27C670.62,157.14,670.6,156.24,669.1,166.6Z" transform="translate(-11.6 -9.82)"/><path d="M184.14,172.91c-.07-2.36,2-4.52,3.86-3.49,3.49,1.95,6.83.13,10.21.37,3.87.28,7.82.32,11.55,1.24,1.05.26,2.3,3.5,1.88,4.88s-2.82,2.95-4.4,3c-5.87.16-11.76-.26-17.65-.48A5.42,5.42,0,0,1,184.14,172.91Z" transform="translate(-11.6 -9.82)"/><path d="M255.32,378.1a39.15,39.15,0,0,1-6.42-.07c-3-.51-5.26-4.14-4.23-6.87a4.12,4.12,0,0,1,3-2.21c5.64,0,11.28.28,16.92.56a4.78,4.78,0,0,1,4.56,5.67,5.27,5.27,0,0,1-6,4l-7.84-1.54Z" transform="translate(-11.6 -9.82)"/><path d="M220.74,379.82c-2.77.31-5.53.64-8.3.92-2.15.22-4.55-2.2-4.73-4.62-.21-2.79,1.25-3.64,3.79-3.82,5-.35,10-.84,15-1.41,3.19-.37,5.35.76,5.88,3.95.38,2.29-2.93,5.12-5.92,5.29-1.87.11-3.76,0-5.64,0Z" transform="translate(-11.6 -9.82)"/><path d="M200.76,268.49c3.7,0,7.41-.16,11.09.05,3.08.18,5.06,2.6,4,5.11-.75,1.78-3.79,3.32-6,3.63-4.07.57-8.28.06-12.43.19-2.69.08-5.2-1.78-5.3-4.34-.12-3.05,1.71-4.07,4.41-4.11,1.41,0,2.82,0,4.23,0Z" transform="translate(-11.6 -9.82)"/><path d="M590.59,88.62c-.68,1-1.47,3.23-2.29,3.23-1.6,0-4-.78-4.64-2-1.26-2.48-1.49-5.46-2.25-8.21a92,92,0,0,0-3.15-10.54c-1-2.55,0-3.79,1.88-4.79,2.09-1.09,3.39.13,4,2,1.47,4.1,2.85,8.23,4.18,12.38C589.17,83.18,589.79,85.73,590.59,88.62Z" transform="translate(-11.6 -9.82)"/><path d="M232.21,167c1.68-.19,3.37-.3,5-.59,3.87-.68,6.21.95,6.5,4.65.22,2.75-1.84,4.44-5.38,4.58s-7.27.39-10.9.6c-2,.11-4.7-2.47-4.87-4.74-.2-2.69,1.12-4.16,3.83-4.34l5.77-.39Z" transform="translate(-11.6 -9.82)"/><path d="M240.68,267.19c2-.2,4-.29,5.93-.61,4-.65,7.56,3.13,6.13,6.84a4.75,4.75,0,0,1-3.46,2.52,116.13,116.13,0,0,1-12.48-.6c-2.85-.24-4.65-2.59-4.31-5.59s2.66-3,5-2.91c1.06.06,2.12,0,3.18,0Z" transform="translate(-11.6 -9.82)"/><path d="M191.54,73.78c3.43-.37,7.7-1,12-1.17a5.39,5.39,0,0,1,3.94,1.94,4.43,4.43,0,0,1,.28,4.09,5.75,5.75,0,0,1-4,2.06c-4.6.28-9.23.25-13.85.13-1.56,0-3.48-.25-4.52-1.18a4,4,0,0,1-.34-4c.86-1.08,2.77-1.34,4.26-1.88A9.67,9.67,0,0,1,191.54,73.78Z" transform="translate(-11.6 -9.82)"/><path d="M668.17,378.56c-3.88,1-3.59-2.32-3.9-4.26-.78-4.8-1-9.69-1.55-14.54-.24-2.2.18-4.26,2.49-4.67s3.93.75,4.36,3.3c.94,5.56,2.21,11.07,2.83,16.66C672.65,377.35,671.27,379.43,668.17,378.56Z" transform="translate(-11.6 -9.82)"/><path d="M235.73,82.41c-2.51-.31-5.16-.25-7.48-1.09a4.84,4.84,0,0,1-2.52-3.79c0-1.06,1.93-2.76,3.18-2.95a120.87,120.87,0,0,1,12.22-.84c2.67-.12,4.66,1.85,4.3,3.86-.31,1.75-2.6,3.54-4.44,4.49-1.39.72-3.46.14-5.22.14Z" transform="translate(-11.6 -9.82)"/><path d="M380.34,383.83c.67-.57,1.7-2,3.06-2.48,1.72-.56,5.2,3.45,5.25,5.68.06,2.57-2.24,2.36-3.67,2.72C382.92,390.26,380.46,387.45,380.34,383.83Z" transform="translate(-11.6 -9.82)"/><path d="M374.68,99.18c.41,3.18-2.56,3.26-4.15,3.24-3.29,0-2.95-3.41-3.38-5.53-.16-.78,1.75-2.64,3-2.91C372.39,93.48,374.59,96.23,374.68,99.18Z" transform="translate(-11.6 -9.82)"/><path d="M573.76,55.68c1.4-.82,2.73-2.13,4.22-2.37,3-.49,3.8,2.31,3.8,4.27,0,1.35-1.92,2.69-3,4l-5.19-4.25Z" transform="translate(-11.6 -9.82)"/><path d="M668.95,348.13c-.84,3.33-2,5.12-4.63,5.1-2.49,0-3.61-1.52-3.75-4-.21-3.79,2.86-3.22,4.81-3.4C666.49,345.69,667.75,347.29,668.95,348.13Z" transform="translate(-11.6 -9.82)"/><path d="M368.28,193.45l-3.83,3.34-4.43-5.2c1.36-1.07,2.58-2.67,4.11-3.07C366.13,188,367.64,190.15,368.28,193.45Z" transform="translate(-11.6 -9.82)"/></g></svg>